<svg width="21" height="21" viewBox="0 0 21 21" fill="none" xmlns="http://www.w3.org/2000/svg">
<g id="3">
<path id="Vector" d="M10.5086 7.49C11.8521 7.49 12.9411 6.40094 12.9411 5.0575C12.9411 3.71407 11.8521 2.625 10.5086 2.625C9.16526 2.625 8.07617 3.71407 8.07617 5.0575C8.07617 6.40094 9.16526 7.49 10.5086 7.49Z" stroke="#FF4D1E" stroke-width="1.2" stroke-linecap="round" stroke-linejoin="round"/>
<path id="Vector_2" d="M4.1825 18.1834C5.52593 18.1834 6.615 17.0942 6.615 15.7509C6.615 14.4074 5.52593 13.3184 4.1825 13.3184C2.83907 13.3184 1.75 14.4074 1.75 15.7509C1.75 17.0942 2.83907 18.1834 4.1825 18.1834Z" stroke="#FF4D1E" stroke-width="1.2" stroke-linecap="round" stroke-linejoin="round"/>
<path id="Vector_3" d="M16.7294 18.1834C18.0729 18.1834 19.1619 17.0942 19.1619 15.7509C19.1619 14.4074 18.0729 13.3184 16.7294 13.3184C15.386 13.3184 14.2969 14.4074 14.2969 15.7509C14.2969 17.0942 15.386 18.1834 16.7294 18.1834Z" stroke="#FF4D1E" stroke-width="1.2" stroke-linecap="round" stroke-linejoin="round"/>
<path id="Vector_4" d="M15.7508 13.1251L11.7695 7.31543" stroke="#FF4D1E" stroke-width="1.2" stroke-linecap="round" stroke-linejoin="round"/>
<path id="Vector_5" d="M13.957 15.6279H6.95703" stroke="#FF4D1E" stroke-width="1.2" stroke-linecap="round" stroke-linejoin="round"/>
<path id="Vector_6" d="M5.20703 13.0029L9.14453 7.31543" stroke="#FF4D1E" stroke-width="1.2" stroke-linecap="round" stroke-linejoin="round"/>
</g>
</svg>
