<svg width="21" height="21" viewBox="0 0 21 21" fill="none" xmlns="http://www.w3.org/2000/svg">
<path fill-rule="evenodd" clip-rule="evenodd" d="M6.34448 5.75227V3.9375C6.34448 2.26625 7.51698 1.09375 9.18823 1.09375H11.8132C13.4845 1.09375 14.657 2.26625 14.657 3.9375V5.75207C16.7003 6.04432 16.9505 7.29344 17.1339 8.77625L17.7289 13.755C17.7552 14.0175 17.5539 14.245 17.2914 14.245H7.00145C6.6427 14.245 6.3452 14.5338 6.3452 14.9013C6.3452 15.26 6.6427 15.5575 7.00145 15.5575H17.5277C17.7639 15.5575 17.9564 15.7325 17.9652 15.9688C18.0089 17.8237 17.1952 19.25 14.4302 19.25H6.5727C3.50145 19.25 2.83645 17.4913 3.0902 15.3388L3.8777 8.77625C4.05346 7.29379 4.30262 6.0449 6.34448 5.75227ZM13.3445 5.6875V3.9375C13.3445 2.9925 12.7582 2.40625 11.8132 2.40625H9.18823C8.24323 2.40625 7.65698 2.9925 7.65698 3.9375V5.6875H13.3445ZM11.3758 11.34H12.032C12.3908 11.34 12.6883 11.0513 12.6883 10.6838C12.6883 10.325 12.3908 10.0275 12.032 10.0275H11.3758V9.40625C11.3758 9.0475 11.0783 8.75 10.7195 8.75C10.3608 8.75 10.0633 9.0475 10.0633 9.40625V10.0275H9.40703C9.04828 10.0275 8.75073 10.325 8.75073 10.6838C8.75073 11.0513 9.04828 11.34 9.40703 11.34H10.0633V12.0225C10.0633 12.39 10.3608 12.6788 10.7195 12.6788C11.0783 12.6788 11.3758 12.39 11.3758 12.0225V11.34Z" fill="#2BA8B6"/>
</svg>
