<svg width="16" height="16" viewBox="0 0 16 16" fill="none" xmlns="http://www.w3.org/2000/svg">
<g id="box-1 3" clip-path="url(#clip0_1_3657)">
<path id="Vector" d="M2.11328 4.95996L7.99992 8.3666L13.8466 4.97996" stroke="#FF4D1E" stroke-width="1.5" stroke-linecap="round" stroke-linejoin="round"/>
<path id="Vector_2" d="M8 14.4068V8.36011" stroke="#FF4D1E" stroke-width="1.5" stroke-linecap="round" stroke-linejoin="round"/>
<path id="Vector_3" d="M6.62042 1.65336L3.06042 3.62669C2.25375 4.07336 1.59375 5.19336 1.59375 6.11336V9.88C1.59375 10.8 2.25375 11.92 3.06042 12.3667L6.62042 14.3467C7.38041 14.7667 8.62708 14.7667 9.38708 14.3467L12.9471 12.3667C13.7537 11.92 14.4137 10.8 14.4137 9.88V6.11336C14.4137 5.19336 13.7537 4.07336 12.9471 3.62669L9.38708 1.64669C8.62041 1.22669 7.38041 1.22669 6.62042 1.65336Z" stroke="#FF4D1E" stroke-width="1.5" stroke-linecap="round" stroke-linejoin="round"/>
</g>
<defs>
<clipPath id="clip0_1_3657">
<rect width="16" height="16" fill="white"/>
</clipPath>
</defs>
</svg>
