<svg width="21" height="21" viewBox="0 0 21 21" fill="none" xmlns="http://www.w3.org/2000/svg">
<path d="M5.86251 15.75H3.63127C2.38002 15.75 1.75 15.12 1.75 13.8688V3.63127C1.75 2.38002 2.38002 1.75 3.63127 1.75H7.39376C8.64501 1.75 9.275 2.38002 9.275 3.63127V5.25" stroke="#FF4D1E" stroke-width="1.2" stroke-miterlimit="10" stroke-linecap="round" stroke-linejoin="round"/>
<path d="M15.1988 7.36748V17.1325C15.1988 18.5412 14.4988 19.25 13.0901 19.25H7.98003C6.57128 19.25 5.86255 18.5412 5.86255 17.1325V7.36748C5.86255 5.95873 6.57128 5.25 7.98003 5.25H13.0901C14.4988 5.25 15.1988 5.95873 15.1988 7.36748Z" stroke="#FF4D1E" stroke-width="1.2" stroke-miterlimit="10" stroke-linecap="round" stroke-linejoin="round"/>
<path d="M11.7249 5.25V3.63127C11.7249 2.38002 12.3549 1.75 13.6061 1.75H17.3686C18.6199 1.75 19.2499 2.38002 19.2499 3.63127V13.8688C19.2499 15.12 18.6199 15.75 17.3686 15.75H15.1986" stroke="#FF4D1E" stroke-width="1.2" stroke-miterlimit="10" stroke-linecap="round" stroke-linejoin="round"/>
<path d="M8.75 9.625H12.25" stroke="#FF4D1E" stroke-width="1.2" stroke-miterlimit="10" stroke-linecap="round" stroke-linejoin="round"/>
<path d="M8.75 12.25H12.25" stroke="#FF4D1E" stroke-width="1.2" stroke-miterlimit="10" stroke-linecap="round" stroke-linejoin="round"/>
<path d="M10.5 19.25V16.625" stroke="#FF4D1E" stroke-width="1.2" stroke-miterlimit="10" stroke-linecap="round" stroke-linejoin="round"/>
</svg>
