<svg width="21" height="21" viewBox="0 0 21 21" fill="none" xmlns="http://www.w3.org/2000/svg">
<path d="M19.25 7.60367C19.25 4.89992 17.0713 2.7124 14.385 2.7124C12.7925 2.7124 11.3837 3.48245 10.5 4.67245C9.61625 3.48245 8.19875 2.7124 6.615 2.7124C3.92875 2.7124 1.75 4.89992 1.75 7.60367C1.75 13.7287 7.42 17.3424 9.9575 18.2174C10.1063 18.2699 10.2987 18.2962 10.5 18.2962" stroke="#FF4D1E" stroke-width="1.5" stroke-linecap="round" stroke-linejoin="round"/>
<path d="M10.2652 13.9436C9.91539 14.2454 9.46264 14.4375 8.96874 14.4375C7.88491 14.4375 7 13.5595 7 12.4688C7 11.3781 7.87805 10.5 8.96874 10.5C9.4695 10.5 9.92225 10.6852 10.2652 10.9939" stroke="#FF4D1E" stroke-width="1.5" stroke-linecap="round" stroke-linejoin="round"/>
<path d="M12.8077 14.4375H14.2483C14.7004 14.4375 15.068 14.053 15.068 13.5799C15.068 13.0644 14.844 12.8828 14.5103 12.7645L12.8077 12.173C12.4739 12.0547 12.25 11.873 12.25 11.3576C12.25 10.8845 12.6176 10.5 13.0696 10.5H14.5103" stroke="#FF4D1E" stroke-width="1.5" stroke-linecap="round" stroke-linejoin="round"/>
<path d="M20 10.5L18.3125 14.4375L16.625 10.5" stroke="#FF4D1E" stroke-width="1.5" stroke-miterlimit="10" stroke-linecap="round" stroke-linejoin="round"/>
</svg>
