<svg width="25" height="21" viewBox="0 0 25 21" fill="none" xmlns="http://www.w3.org/2000/svg">
<path d="M22.043 7.39375C21.1242 3.35125 17.598 1.53125 14.5005 1.53125C14.5005 1.53125 14.5005 1.53125 14.4917 1.53125C11.4029 1.53125 7.86795 3.3425 6.9492 7.385C5.92545 11.9 8.69045 15.7237 11.1929 18.13C12.1205 19.0225 13.3105 19.4688 14.5005 19.4688C15.6905 19.4688 16.8805 19.0225 17.7992 18.13C20.3017 15.7237 23.0667 11.9087 22.043 7.39375ZM14.5005 11.7775C12.978 11.7775 11.7442 10.5438 11.7442 9.02125C11.7442 7.49875 12.978 6.265 14.5005 6.265C16.023 6.265 17.2567 7.49875 17.2567 9.02125C17.2567 10.5438 16.023 11.7775 14.5005 11.7775Z" fill="#2BA8B6"/>
<line x1="0.5" y1="2.18557e-08" x2="0.499999" y2="21" stroke="#2BA8B6"/>
</svg>
