<svg width="38" height="38" viewBox="0 0 38 38" fill="none" xmlns="http://www.w3.org/2000/svg">
<circle cx="19" cy="19" r="19" fill="#2BA8B6"/>
<path d="M19 9C13.48 9 9 13.48 9 19C9 24.52 13.48 29 19 29C24.52 29 29 24.52 29 19C29 13.48 24.52 9 19 9ZM22.53 19.03C22.38 19.18 22.19 19.25 22 19.25C21.81 19.25 21.62 19.18 21.47 19.03L19.75 17.31V22.5C19.75 22.91 19.41 23.25 19 23.25C18.59 23.25 18.25 22.91 18.25 22.5V17.31L16.53 19.03C16.24 19.32 15.76 19.32 15.47 19.03C15.18 18.74 15.18 18.26 15.47 17.97L18.47 14.97C18.76 14.68 19.24 14.68 19.53 14.97L22.53 17.97C22.82 18.26 22.82 18.74 22.53 19.03Z" fill="white"/>
</svg>
