<svg width="292" height="64" viewBox="0 0 292 64" fill="none" xmlns="http://www.w3.org/2000/svg">
<g filter="url(#filter0_d_434_882)">
<rect x="4" y="2" width="284" height="56" rx="28" fill="white" shape-rendering="crispEdges"/>
<path d="M31.9999 37.84L25.4798 31.32C24.7098 30.55 24.7098 29.29 25.4798 28.52L31.9999 22" stroke="#2BA8B6" stroke-width="2" stroke-miterlimit="10" stroke-linecap="round" stroke-linejoin="round"/>
<path d="M149.512 14.344C149.368 14.184 149.232 14.064 149.104 13.984C148.984 13.904 148.86 13.864 148.732 13.864C148.508 13.864 148.248 13.984 147.952 14.224C147.656 14.464 147.396 14.74 147.172 15.052C146.956 15.364 146.848 15.608 146.848 15.784C146.848 16.008 147.056 16.16 147.472 16.24L149.008 16.504C149.744 16.632 150.112 17.052 150.112 17.764C150.112 18.252 149.992 18.716 149.752 19.156C149.512 19.604 149.172 19.98 148.732 20.284C148.228 20.66 147.6 20.948 146.848 21.148C146.104 21.356 145.364 21.46 144.628 21.46C143.452 21.46 142.572 21.22 141.988 20.74C141.404 20.26 141.112 19.56 141.112 18.64C141.112 17.776 141.332 16.608 141.772 15.136L142.9 15.448C142.612 16.552 142.468 17.384 142.468 17.944C142.468 18.496 142.672 18.924 143.08 19.228C143.488 19.532 144.104 19.684 144.928 19.684C145.64 19.684 146.288 19.608 146.872 19.456C147.456 19.304 147.916 19.128 148.252 18.928C148.596 18.728 148.768 18.572 148.768 18.46C148.768 18.396 148.724 18.34 148.636 18.292C148.556 18.244 148.4 18.2 148.168 18.16L146.932 17.944C146.436 17.864 146.072 17.7 145.84 17.452C145.608 17.196 145.492 16.86 145.492 16.444C145.492 15.868 145.68 15.252 146.056 14.596C146.44 13.932 146.908 13.376 147.46 12.928C148.012 12.472 148.516 12.244 148.972 12.244C149.588 12.244 150.1 12.624 150.508 13.384L149.512 14.344ZM152.309 19.084L152.045 9.7L153.545 9.58L153.485 18.964L152.309 19.084ZM161.163 19C160.547 19 160.059 18.896 159.699 18.688C159.347 18.48 159.095 18.128 158.943 17.632C158.647 17.728 158.307 17.804 157.923 17.86C157.547 17.916 157.187 17.944 156.843 17.944C156.291 17.944 155.871 17.828 155.583 17.596C155.303 17.364 155.163 17.052 155.163 16.66C155.163 16.276 155.275 15.884 155.499 15.484C155.723 15.076 156.047 14.684 156.471 14.308C156.855 13.964 157.479 13.496 158.343 12.904L158.223 11.908L159.579 11.644L159.939 15.64C159.971 16.032 160.031 16.34 160.119 16.564C160.207 16.788 160.347 16.956 160.539 17.068C160.731 17.172 160.999 17.224 161.343 17.224L161.163 19ZM156.423 15.94C156.423 16.116 156.683 16.204 157.203 16.204C157.403 16.204 157.643 16.188 157.923 16.156C158.203 16.124 158.463 16.084 158.703 16.036L158.499 14.236C157.819 14.668 157.303 15.032 156.951 15.328C156.599 15.616 156.423 15.82 156.423 15.94ZM167.044 19C166.292 19 165.656 18.968 165.136 18.904C164.624 18.84 164.22 18.732 163.924 18.58C163.316 18.86 162.396 19 161.164 19C161.132 19 161.1 18.94 161.068 18.82C161.036 18.692 161.02 18.512 161.02 18.28C161.02 17.912 161.056 17.644 161.128 17.476C161.192 17.308 161.264 17.224 161.344 17.224C161.704 17.224 161.976 17.22 162.16 17.212C162.096 16.98 162.064 16.756 162.064 16.54C162.064 16.084 162.176 15.608 162.4 15.112C162.624 14.616 162.916 14.2 163.276 13.864C163.636 13.528 164.012 13.36 164.404 13.36C164.772 13.36 165.112 13.468 165.424 13.684C165.744 13.892 165.992 14.176 166.168 14.536C166.352 14.896 166.444 15.284 166.444 15.7C166.444 15.94 166.396 16.192 166.3 16.456C166.212 16.72 166.08 16.972 165.904 17.212C166.16 17.22 166.6 17.224 167.224 17.224L167.044 19ZM163.204 16.24C163.204 16.424 163.28 16.6 163.432 16.768C163.592 16.928 163.804 17.04 164.068 17.104C164.412 16.976 164.7 16.82 164.932 16.636C165.164 16.452 165.28 16.288 165.28 16.144C165.28 15.96 165.228 15.772 165.124 15.58C165.02 15.388 164.88 15.232 164.704 15.112C164.536 14.984 164.356 14.92 164.164 14.92C164.012 14.92 163.86 14.996 163.708 15.148C163.564 15.292 163.444 15.472 163.348 15.688C163.252 15.896 163.204 16.08 163.204 16.24ZM164.14 11.044H164.26H165.976V12.34H164.26H164.14H162.436V11.044H164.14ZM172.087 13.48C172.495 13.48 172.895 13.612 173.287 13.876C173.679 14.132 173.995 14.472 174.235 14.896C174.483 15.32 174.607 15.756 174.607 16.204C174.607 16.524 174.547 16.828 174.427 17.116C174.683 17.188 175.015 17.224 175.423 17.224L175.243 19C174.323 19 173.719 18.756 173.431 18.268C173.391 18.292 173.295 18.344 173.143 18.424C172.719 18.616 172.191 18.76 171.559 18.856C170.927 18.952 170.243 19 169.507 19H167.047C167.015 19 166.983 18.94 166.951 18.82C166.919 18.692 166.903 18.512 166.903 18.28C166.903 17.912 166.939 17.644 167.011 17.476C167.075 17.308 167.147 17.224 167.227 17.224H167.671L168.547 16.132L168.367 9.7L169.855 9.58L169.831 14.728C170.703 13.896 171.455 13.48 172.087 13.48ZM169.783 17.224C170.447 17.224 171.051 17.192 171.595 17.128C172.147 17.056 172.575 16.972 172.879 16.876C173.191 16.772 173.347 16.668 173.347 16.564C173.347 16.388 173.271 16.184 173.119 15.952C172.967 15.72 172.771 15.52 172.531 15.352C172.291 15.184 172.043 15.1 171.787 15.1C171.435 15.1 171.043 15.276 170.611 15.628C170.187 15.972 169.663 16.504 169.039 17.224H169.783ZM180.038 19C179.51 19 179.074 18.912 178.73 18.736C178.394 18.56 178.166 18.304 178.046 17.968C177.87 18.296 177.562 18.552 177.122 18.736C176.69 18.912 176.142 19 175.478 19H175.238C175.206 19 175.174 18.94 175.142 18.82C175.11 18.692 175.094 18.512 175.094 18.28C175.094 17.912 175.13 17.644 175.202 17.476C175.266 17.308 175.338 17.224 175.418 17.224H175.658C176.37 17.224 176.878 17.112 177.182 16.888C177.486 16.664 177.638 16.328 177.638 15.88V14.956L178.838 14.86V15.844C178.838 16.316 178.946 16.664 179.162 16.888C179.378 17.112 179.73 17.224 180.218 17.224L180.038 19ZM176.774 13.66V12.16H178.394V13.66H176.774ZM184.483 13.78C184.859 13.78 185.159 13.88 185.383 14.08C185.615 14.272 185.787 14.572 185.899 14.98C185.979 15.268 186.043 15.592 186.091 15.952C186.139 16.304 186.163 16.64 186.163 16.96C186.163 17.296 186.091 17.628 185.947 17.956C185.803 18.276 185.611 18.54 185.371 18.748C185.139 18.956 184.899 19.06 184.651 19.06C184.203 19.06 183.715 18.952 183.187 18.736C182.667 18.512 182.303 18.244 182.095 17.932C181.807 18.332 181.499 18.612 181.171 18.772C180.851 18.924 180.475 19 180.043 19C180.011 19 179.979 18.94 179.947 18.82C179.915 18.692 179.899 18.512 179.899 18.28C179.899 17.912 179.935 17.644 180.007 17.476C180.071 17.308 180.143 17.224 180.223 17.224C180.495 17.224 180.715 17.196 180.883 17.14C181.059 17.076 181.223 16.96 181.375 16.792C181.535 16.616 181.703 16.36 181.879 16.024C182.191 15.432 182.467 14.98 182.707 14.668C182.955 14.348 183.215 14.12 183.487 13.984C183.759 13.848 184.091 13.78 184.483 13.78ZM182.851 16.48C183.003 16.696 183.283 16.884 183.691 17.044C184.107 17.204 184.479 17.284 184.807 17.284C184.855 17.284 184.891 17.268 184.915 17.236C184.939 17.204 184.951 17.144 184.951 17.056C184.951 16.904 184.927 16.684 184.879 16.396C184.839 16.1 184.787 15.868 184.723 15.7C184.683 15.572 184.623 15.472 184.543 15.4C184.463 15.32 184.363 15.28 184.243 15.28C183.939 15.28 183.691 15.364 183.499 15.532C183.307 15.692 183.091 16.008 182.851 16.48ZM193.619 14.74C193.739 15.372 193.835 15.972 193.907 16.54C193.979 17.1 194.015 17.548 194.015 17.884C194.015 18.636 193.847 19.284 193.511 19.828C193.175 20.38 192.643 20.844 191.915 21.22C191.059 21.66 189.891 22.02 188.411 22.3L187.931 20.8C189.771 20.472 191.031 20.1 191.711 19.684C192.391 19.268 192.731 18.82 192.731 18.34C192.731 18.092 192.679 17.672 192.575 17.08C192.479 16.48 192.351 15.848 192.191 15.184L193.619 14.74ZM195.821 18.784L195.557 9.7L197.057 9.58L196.997 18.664L195.821 18.784ZM201.95 19C201.414 19 201.03 18.896 200.798 18.688C200.598 19.792 199.93 20.636 198.794 21.22C197.938 21.66 196.77 22.02 195.29 22.3L194.81 20.8C196.65 20.472 197.91 20.1 198.59 19.684C199.27 19.268 199.61 18.82 199.61 18.34C199.61 18.092 199.558 17.672 199.454 17.08C199.358 16.48 199.23 15.868 199.07 15.244L200.462 14.8C200.598 15.536 200.718 16.064 200.822 16.384C200.934 16.704 201.082 16.924 201.266 17.044C201.458 17.164 201.746 17.224 202.13 17.224L201.95 19ZM198.95 13.3V11.8H200.57V13.3H198.95ZM203.445 10.804L203.301 9.94L206.841 8.404L207.021 9.28L203.445 10.804ZM203.865 12.94C204.561 13.86 205.041 14.568 205.305 15.064C205.569 15.56 205.701 16.012 205.701 16.42C205.701 16.876 205.573 17.316 205.317 17.74C205.069 18.156 204.745 18.456 204.345 18.64C203.865 18.88 203.065 19 201.945 19C201.913 19 201.881 18.94 201.849 18.82C201.817 18.692 201.801 18.512 201.801 18.28C201.801 17.912 201.837 17.644 201.909 17.476C201.973 17.308 202.045 17.224 202.125 17.224C202.845 17.224 203.405 17.184 203.805 17.104C204.205 17.016 204.405 16.908 204.405 16.78C204.405 16.548 204.269 16.208 203.997 15.76C203.725 15.312 203.221 14.6 202.485 13.624L202.821 11.92L208.101 9.664L208.365 11.08L203.865 12.94ZM209.322 14.74C209.442 15.372 209.538 15.972 209.61 16.54C209.682 17.1 209.718 17.548 209.718 17.884C209.718 18.636 209.55 19.284 209.214 19.828C208.878 20.38 208.346 20.844 207.618 21.22C206.762 21.66 205.594 22.02 204.114 22.3L203.634 20.8C205.474 20.472 206.734 20.1 207.414 19.684C208.094 19.268 208.434 18.82 208.434 18.34C208.434 18.092 208.382 17.672 208.278 17.08C208.182 16.48 208.054 15.848 207.894 15.184L209.322 14.74ZM214.02 19C213.196 19 212.568 18.784 212.136 18.352C211.704 17.912 211.476 17.236 211.452 16.324L211.26 9.7L212.76 9.58L212.724 15.424C212.724 16.032 212.84 16.484 213.072 16.78C213.304 17.076 213.68 17.224 214.2 17.224L214.02 19ZM215.215 13.3C215.823 13.78 216.287 14.188 216.607 14.524C216.935 14.86 217.159 15.172 217.279 15.46C217.407 15.74 217.471 16.048 217.471 16.384C217.471 16.832 217.359 17.256 217.135 17.656C216.919 18.056 216.603 18.364 216.187 18.58C215.883 18.748 215.547 18.86 215.179 18.916C214.819 18.972 214.431 19 214.015 19C213.983 19 213.951 18.94 213.919 18.82C213.887 18.692 213.871 18.512 213.871 18.28C213.871 17.912 213.907 17.644 213.979 17.476C214.043 17.308 214.115 17.224 214.195 17.224C214.771 17.224 215.243 17.176 215.611 17.08C215.987 16.976 216.175 16.836 216.175 16.66C216.175 16.484 216.119 16.3 216.007 16.108C215.895 15.908 215.667 15.644 215.323 15.316C214.979 14.98 214.475 14.556 213.811 14.044L214.135 12.304L220.171 9.58L220.471 10.96L215.215 13.3ZM62.8721 44C61.8361 44 61.1688 43.692 60.8701 43.076C60.6834 43.4867 60.4501 43.7993 60.1701 44.014C59.8901 44.238 59.5774 44.35 59.2321 44.35C58.6441 44.35 58.0888 44.238 57.5661 44.014C57.0528 43.7993 56.6421 43.5147 56.3341 43.16C56.0261 42.8053 55.8721 42.432 55.8721 42.04C55.8721 41.5733 55.9934 41.032 56.2361 40.416C55.9094 40.5653 55.6294 40.7287 55.3961 40.906C55.1721 41.074 55.0274 41.242 54.9621 41.41C54.9061 41.5407 54.8688 41.7133 54.8501 41.928C54.8314 42.1427 54.8221 42.4367 54.8221 42.81C54.8221 43.1927 54.8501 44.0747 54.9061 45.456C54.9621 46.8373 55.0274 48.2187 55.1021 49.6L52.9321 49.88C52.8854 48.0133 52.8621 45.8433 52.8621 43.37C52.8621 41.0367 53.6554 39.38 55.2421 38.4C55.7648 38.0733 56.4694 37.784 57.3561 37.532C58.2428 37.2707 59.0548 37.14 59.7921 37.14C60.2588 37.14 60.6181 37.2473 60.8701 37.462C61.1314 37.6673 61.3041 38.0267 61.3881 38.54C61.5188 39.268 61.6448 39.8047 61.7661 40.15C61.8968 40.4953 62.0648 40.7333 62.2701 40.864C62.4754 40.9947 62.7694 41.06 63.1521 41.06L62.8721 44ZM57.6221 40.43C57.6221 40.5887 57.7154 40.7473 57.9021 40.906C58.0981 41.0553 58.3501 41.1767 58.6581 41.27C58.9754 41.3633 59.3068 41.41 59.6521 41.41C59.7361 41.41 59.7874 41.368 59.8061 41.284C59.8341 41.2 59.8481 41.0553 59.8481 40.85C59.8481 40.402 59.8108 40.094 59.7361 39.926C59.6708 39.7487 59.5494 39.66 59.3721 39.66C58.8774 39.66 58.3314 39.7347 57.7341 39.884C57.6594 40.0987 57.6221 40.2807 57.6221 40.43ZM66.5843 34.2C67.2096 34.2 67.751 34.4193 68.2083 34.858C68.675 35.2873 69.0343 35.908 69.2863 36.72C69.5383 37.5227 69.6643 38.4793 69.6643 39.59C69.6643 40.514 69.4683 41.3447 69.0763 42.082C68.6843 42.8193 68.157 43.3187 67.4943 43.58C67.037 43.7573 66.491 43.874 65.8563 43.93C65.231 43.9767 64.5636 44 63.8543 44H62.8743C62.8276 44 62.781 43.8927 62.7343 43.678C62.6876 43.454 62.6643 43.1413 62.6643 42.74C62.6643 42.1053 62.7203 41.6667 62.8323 41.424C62.935 41.1813 63.0423 41.06 63.1543 41.06H64.1343C65.133 41.06 65.8936 41.0413 66.4163 41.004C66.9483 40.9573 67.3543 40.8827 67.6343 40.78C67.737 40.7427 67.807 40.6913 67.8443 40.626C67.891 40.5607 67.9143 40.472 67.9143 40.36V39.884C67.6156 39.996 67.2843 40.08 66.9203 40.136C66.5563 40.192 66.211 40.22 65.8843 40.22C65.1563 40.22 64.6103 40.0473 64.2463 39.702C63.8916 39.3473 63.7143 38.82 63.7143 38.12C63.7143 37.476 63.831 36.8553 64.0643 36.258C64.307 35.6513 64.6476 35.1567 65.0863 34.774C65.525 34.3913 66.0243 34.2 66.5843 34.2ZM65.4643 37.35C65.4643 37.6767 65.721 37.84 66.2343 37.84C66.6636 37.84 67.1256 37.8027 67.6203 37.728C67.3683 36.8693 66.9296 36.44 66.3043 36.44C66.043 36.44 65.8376 36.5333 65.6883 36.72C65.539 36.9067 65.4643 37.1167 65.4643 37.35ZM66.2343 31.33H66.3743H68.6843V33.22H66.3743H66.2343H63.9243V31.33H66.2343ZM77.2248 41.9V39.8H79.4648V41.9H77.2248ZM83.2448 37.56C83.4222 38.6333 83.5482 39.5247 83.6228 40.234C83.6975 40.934 83.7348 41.6293 83.7348 42.32C83.7348 43.916 83.1515 45.1293 81.9848 45.96C81.4715 46.324 80.7902 46.6227 79.9408 46.856C79.0915 47.0987 78.2095 47.22 77.2948 47.22C75.9508 47.22 74.9242 46.9167 74.2148 46.31C73.5148 45.7033 73.1648 44.7933 73.1648 43.58C73.1648 42.46 73.4448 40.99 74.0048 39.17L75.7548 39.66C75.5775 40.332 75.4515 40.878 75.3768 41.298C75.3022 41.7087 75.2648 42.0727 75.2648 42.39C75.2648 43.65 76.1048 44.28 77.7848 44.28C78.4662 44.28 79.1755 44.1867 79.9128 44C80.6595 43.804 81.1868 43.5707 81.4948 43.3C81.6348 43.1693 81.7048 42.9827 81.7048 42.74C81.7048 42.3667 81.6395 41.746 81.5088 40.878C81.3782 40.0007 81.2102 39.128 81.0048 38.26L83.2448 37.56ZM88.7114 44C87.6847 44 86.8774 43.7247 86.2894 43.174C85.7014 42.614 85.3887 41.746 85.3514 40.57L85.0714 33.01L87.4514 32.8C87.4421 33.696 87.4281 34.8813 87.4094 36.356C87.4001 37.8213 87.3907 38.7127 87.3814 39.03C87.3814 39.7487 87.5027 40.2667 87.7454 40.584C87.9974 40.9013 88.4127 41.06 88.9914 41.06L88.7114 44ZM94.5241 44C93.8895 44 93.3528 43.8927 92.9141 43.678C92.4848 43.454 92.2001 43.1507 92.0601 42.768C91.8455 43.1507 91.4768 43.454 90.9541 43.678C90.4315 43.8927 89.7781 44 88.9941 44H88.7141C88.6675 44 88.6208 43.8927 88.5741 43.678C88.5275 43.454 88.5041 43.1413 88.5041 42.74C88.5041 42.1053 88.5601 41.6667 88.6721 41.424C88.7748 41.1813 88.8821 41.06 88.9941 41.06H89.2741C90.0955 41.06 90.6601 40.9293 90.9681 40.668C91.2855 40.4067 91.4441 40.024 91.4441 39.52V38.54L93.2641 38.4V39.45C93.2641 40.0287 93.3855 40.444 93.6281 40.696C93.8801 40.9387 94.2721 41.06 94.8041 41.06L94.5241 44ZM91.3041 35.39H91.4441H93.7541V37.28H91.4441H91.3041H88.9941V35.39H91.3041ZM105.795 37.28C105.981 38.5867 106.075 39.66 106.075 40.5C106.075 41.5827 105.846 42.4367 105.389 43.062C104.941 43.6873 104.329 44 103.555 44C102.948 44 102.439 43.9067 102.029 43.72C101.618 43.524 101.333 43.2767 101.175 42.978C101.007 43.2953 100.745 43.5473 100.391 43.734C100.036 43.9113 99.644 44 99.2147 44C98.7107 44 98.2907 43.9067 97.9547 43.72C97.6187 43.524 97.3994 43.258 97.2967 42.922C97.0727 43.3047 96.7414 43.58 96.3027 43.748C95.8734 43.916 95.2807 44 94.5247 44C94.478 44 94.4314 43.8927 94.3847 43.678C94.338 43.454 94.3147 43.1413 94.3147 42.74C94.3147 42.1053 94.3707 41.6667 94.4827 41.424C94.5854 41.1813 94.6927 41.06 94.8047 41.06C95.4207 41.06 95.878 40.976 96.1767 40.808C96.4754 40.64 96.6247 40.3507 96.6247 39.94V38.96L98.4447 38.82V39.8C98.4447 40.64 98.7714 41.06 99.4247 41.06C99.742 41.06 99.9847 40.962 100.153 40.766C100.321 40.57 100.405 40.2947 100.405 39.94V39.1L102.225 38.96V39.8C102.225 40.22 102.341 40.5373 102.575 40.752C102.817 40.9573 103.167 41.06 103.625 41.06C103.858 41.06 103.975 40.9667 103.975 40.78C103.975 40.556 103.937 40.192 103.863 39.688C103.788 39.1747 103.685 38.582 103.555 37.91L105.795 37.28ZM107.831 44.14L107.411 33.01L109.791 32.8L109.651 43.93L107.831 44.14ZM123.172 38.4C122.846 38.0733 122.566 37.91 122.332 37.91C122.09 37.91 121.819 38.0173 121.52 38.232C121.231 38.4467 120.979 38.6987 120.764 38.988C120.55 39.268 120.442 39.492 120.442 39.66C120.442 39.772 120.484 39.8607 120.568 39.926C120.652 39.9913 120.797 40.0427 121.002 40.08L122.682 40.36C123.802 40.5373 124.362 41.144 124.362 42.18C124.362 43.0107 124.166 43.7713 123.774 44.462C123.382 45.162 122.832 45.7313 122.122 46.17C121.581 46.506 120.923 46.7627 120.148 46.94C119.383 47.1267 118.618 47.22 117.852 47.22C116.378 47.22 115.272 46.9167 114.534 46.31C113.806 45.7127 113.442 44.8027 113.442 43.58C113.442 42.46 113.722 40.99 114.282 39.17L116.032 39.66C115.855 40.332 115.729 40.878 115.654 41.298C115.58 41.7087 115.542 42.0727 115.542 42.39C115.542 43.006 115.762 43.4773 116.2 43.804C116.648 44.1213 117.362 44.28 118.342 44.28C119.145 44.28 119.836 44.2147 120.414 44.084C121.002 43.9627 121.446 43.8227 121.744 43.664C122.043 43.5053 122.192 43.384 122.192 43.3C122.192 43.244 122.15 43.1927 122.066 43.146C121.982 43.0993 121.814 43.0573 121.562 43.02L120.232 42.81C118.926 42.6047 118.272 41.9047 118.272 40.71C118.272 39.9447 118.515 39.142 119 38.302C119.486 37.4527 120.078 36.7433 120.778 36.174C121.478 35.6047 122.113 35.32 122.682 35.32C123.102 35.32 123.48 35.4553 123.816 35.726C124.162 35.9873 124.46 36.3653 124.712 36.86L123.172 38.4ZM128.92 38.26C129.247 39.9773 129.41 41.4707 129.41 42.74C129.41 43.664 129.247 44.4527 128.92 45.106C128.603 45.7687 128.09 46.324 127.38 46.772C126.68 47.2293 125.747 47.612 124.58 47.92L123.67 45.54C125.08 45.176 126.05 44.8167 126.582 44.462C127.114 44.1073 127.38 43.72 127.38 43.3C127.38 42.852 127.32 42.25 127.198 41.494C127.086 40.738 126.914 39.8933 126.68 38.96L128.92 38.26ZM133.955 37.14C134.571 37.14 135.117 37.3407 135.593 37.742C136.069 38.1433 136.438 38.7407 136.699 39.534C136.97 40.318 137.105 41.27 137.105 42.39C137.105 43.3887 136.933 44.2333 136.587 44.924C136.242 45.624 135.691 46.1793 134.935 46.59C133.806 47.206 132.149 47.6493 129.965 47.92C129.844 47.3133 129.681 46.45 129.475 45.33C131.547 45.1247 133.031 44.882 133.927 44.602C134.833 44.322 135.285 43.9813 135.285 43.58V43.51C134.613 43.7433 133.89 43.86 133.115 43.86C132.387 43.86 131.832 43.664 131.449 43.272C131.067 42.88 130.875 42.3293 130.875 41.62C130.875 40.864 131.006 40.1453 131.267 39.464C131.538 38.7733 131.907 38.2133 132.373 37.784C132.84 37.3547 133.367 37.14 133.955 37.14ZM132.625 40.57C132.625 40.7567 132.691 40.8967 132.821 40.99C132.961 41.0833 133.199 41.13 133.535 41.13C134.011 41.13 134.506 41.088 135.019 41.004C134.758 40.0613 134.287 39.59 133.605 39.59C133.344 39.59 133.115 39.6973 132.919 39.912C132.723 40.1267 132.625 40.346 132.625 40.57ZM142.073 44C141.046 44 140.239 43.7247 139.651 43.174C139.063 42.614 138.75 41.746 138.713 40.57L138.433 33.01L140.813 32.8C140.803 33.696 140.789 34.8813 140.771 36.356C140.761 37.8213 140.752 38.7127 140.743 39.03C140.743 39.7487 140.864 40.2667 141.107 40.584C141.359 40.9013 141.774 41.06 142.353 41.06L142.073 44ZM147.885 44C147.251 44 146.714 43.8927 146.275 43.678C145.846 43.454 145.561 43.1507 145.421 42.768C145.207 43.1507 144.838 43.454 144.315 43.678C143.793 43.8927 143.139 44 142.355 44H142.075C142.029 44 141.982 43.8927 141.935 43.678C141.889 43.454 141.865 43.1413 141.865 42.74C141.865 42.1053 141.921 41.6667 142.033 41.424C142.136 41.1813 142.243 41.06 142.355 41.06H142.635C143.457 41.06 144.021 40.9293 144.329 40.668C144.647 40.4067 144.805 40.024 144.805 39.52V38.54L146.625 38.4V39.45C146.625 40.0287 146.747 40.444 146.989 40.696C147.241 40.9387 147.633 41.06 148.165 41.06L147.885 44ZM143.755 37.28V35.18H145.995V37.28H143.755ZM151.596 34.2C152.221 34.2 152.763 34.4193 153.22 34.858C153.687 35.2873 154.046 35.908 154.298 36.72C154.55 37.5227 154.676 38.4793 154.676 39.59C154.676 40.514 154.48 41.3447 154.088 42.082C153.696 42.8193 153.169 43.3187 152.506 43.58C152.049 43.7573 151.503 43.874 150.868 43.93C150.243 43.9767 149.575 44 148.866 44H147.886C147.839 44 147.793 43.8927 147.746 43.678C147.699 43.454 147.676 43.1413 147.676 42.74C147.676 42.1053 147.732 41.6667 147.844 41.424C147.947 41.1813 148.054 41.06 148.166 41.06H149.146C150.145 41.06 150.905 41.0413 151.428 41.004C151.96 40.9573 152.366 40.8827 152.646 40.78C152.749 40.7427 152.819 40.6913 152.856 40.626C152.903 40.5607 152.926 40.472 152.926 40.36V39.884C152.627 39.996 152.296 40.08 151.932 40.136C151.568 40.192 151.223 40.22 150.896 40.22C150.168 40.22 149.622 40.0473 149.258 39.702C148.903 39.3473 148.726 38.82 148.726 38.12C148.726 37.476 148.843 36.8553 149.076 36.258C149.319 35.6513 149.659 35.1567 150.098 34.774C150.537 34.3913 151.036 34.2 151.596 34.2ZM150.476 37.35C150.476 37.6767 150.733 37.84 151.246 37.84C151.675 37.84 152.137 37.8027 152.632 37.728C152.38 36.8693 151.941 36.44 151.316 36.44C151.055 36.44 150.849 36.5333 150.7 36.72C150.551 36.9067 150.476 37.1167 150.476 37.35ZM150.196 33.22V31.12H152.436V33.22H150.196ZM161.327 37.14C161.943 37.14 162.489 37.3407 162.965 37.742C163.441 38.1433 163.809 38.7407 164.071 39.534C164.341 40.318 164.477 41.27 164.477 42.39C164.477 43.3887 164.299 44.2333 163.945 44.924C163.599 45.624 163.053 46.1793 162.307 46.59C161.672 46.9353 160.893 47.2153 159.969 47.43C159.045 47.654 157.934 47.8173 156.637 47.92C156.515 47.3133 156.352 46.45 156.147 45.33C158.499 45.162 160.169 44.9287 161.159 44.63C162.157 44.3407 162.657 43.9907 162.657 43.58V43.51C161.985 43.7433 161.261 43.86 160.487 43.86C159.759 43.86 159.203 43.664 158.821 43.272C158.438 42.88 158.247 42.3293 158.247 41.62C158.247 40.864 158.377 40.1453 158.639 39.464C158.909 38.7733 159.278 38.2133 159.745 37.784C160.211 37.3547 160.739 37.14 161.327 37.14ZM159.997 40.57C159.997 40.7567 160.062 40.8967 160.193 40.99C160.333 41.0833 160.571 41.13 160.907 41.13C161.383 41.13 161.877 41.088 162.391 41.004C162.129 40.0613 161.658 39.59 160.977 39.59C160.715 39.59 160.487 39.6973 160.291 39.912C160.095 40.1267 159.997 40.346 159.997 40.57ZM177.989 44C176.953 44 176.286 43.692 175.987 43.076C175.801 43.4867 175.567 43.7993 175.287 44.014C175.007 44.238 174.695 44.35 174.349 44.35C173.761 44.35 173.206 44.238 172.683 44.014C172.17 43.7993 171.759 43.5147 171.451 43.16C171.143 42.8053 170.989 42.432 170.989 42.04C170.989 41.5733 171.111 41.032 171.353 40.416C171.027 40.5653 170.747 40.7287 170.513 40.906C170.289 41.074 170.145 41.242 170.079 41.41C170.023 41.5407 169.986 41.7133 169.967 41.928C169.949 42.1427 169.939 42.4367 169.939 42.81C169.939 43.1927 169.967 44.0747 170.023 45.456C170.079 46.8373 170.145 48.2187 170.219 49.6L168.049 49.88C168.003 48.0133 167.979 45.8433 167.979 43.37C167.979 41.0367 168.773 39.38 170.359 38.4C170.882 38.0733 171.587 37.784 172.473 37.532C173.36 37.2707 174.172 37.14 174.909 37.14C175.376 37.14 175.735 37.2473 175.987 37.462C176.249 37.6673 176.421 38.0267 176.505 38.54C176.636 39.268 176.762 39.8047 176.883 40.15C177.014 40.4953 177.182 40.7333 177.387 40.864C177.593 40.9947 177.887 41.06 178.269 41.06L177.989 44ZM172.739 40.43C172.739 40.5887 172.833 40.7473 173.019 40.906C173.215 41.0553 173.467 41.1767 173.775 41.27C174.093 41.3633 174.424 41.41 174.769 41.41C174.853 41.41 174.905 41.368 174.923 41.284C174.951 41.2 174.965 41.0553 174.965 40.85C174.965 40.402 174.928 40.094 174.853 39.926C174.788 39.7487 174.667 39.66 174.489 39.66C173.995 39.66 173.449 39.7347 172.851 39.884C172.777 40.0987 172.739 40.2807 172.739 40.43ZM182.751 44C181.631 44 180.871 43.678 180.469 43.034C180.273 43.3047 180.054 43.51 179.811 43.65C179.401 43.8833 178.794 44 177.991 44C177.945 44 177.898 43.8927 177.851 43.678C177.805 43.454 177.781 43.1413 177.781 42.74C177.781 42.1053 177.837 41.6667 177.949 41.424C178.061 41.1813 178.173 41.06 178.285 41.06C179.135 41.06 179.55 40.92 179.531 40.64L179.321 33.01L181.631 32.8L181.491 39.24C181.482 39.8933 181.599 40.36 181.841 40.64C182.093 40.92 182.49 41.06 183.031 41.06L182.751 44ZM189.049 38.792C188.303 38.7173 187.719 38.68 187.299 38.68C186.973 38.68 186.697 38.708 186.473 38.764C186.259 38.82 186.114 38.8853 186.039 38.96C186.002 38.9973 185.969 39.0627 185.941 39.156C185.913 39.2493 185.899 39.3473 185.899 39.45C185.899 39.8047 186.016 40.094 186.249 40.318C186.492 40.5327 186.819 40.64 187.229 40.64C187.5 40.64 187.864 40.6027 188.321 40.528C188.788 40.4533 189.474 40.3273 190.379 40.15L190.589 42.88C188.853 43.3187 187.407 43.6173 186.249 43.776C185.101 43.9253 183.935 44 182.749 44C182.703 44 182.656 43.8927 182.609 43.678C182.563 43.454 182.539 43.1413 182.539 42.74C182.539 42.1053 182.595 41.6667 182.707 41.424C182.81 41.1813 182.917 41.06 183.029 41.06H183.981C183.907 40.7427 183.869 40.3927 183.869 40.01C183.869 39.2727 184.019 38.61 184.317 38.022C184.625 37.434 185.055 36.9767 185.605 36.65C186.165 36.3233 186.8 36.16 187.509 36.16C188.116 36.16 188.839 36.244 189.679 36.412L189.049 38.792ZM202.423 36.72C203.076 37.5133 203.543 38.1947 203.823 38.764C204.103 39.3333 204.243 39.8653 204.243 40.36C204.243 41.032 204.056 41.6713 203.683 42.278C203.309 42.8847 202.773 43.3187 202.073 43.58C201.559 43.776 200.962 43.93 200.281 44.042C199.609 44.154 198.923 44.21 198.223 44.21C196.711 44.21 195.642 43.9347 195.017 43.384C194.401 42.8333 194.093 42.0587 194.093 41.06C194.093 40.6493 194.149 40.1547 194.261 39.576C194.382 38.9973 194.559 38.372 194.793 37.7L196.473 38.19C196.398 38.4513 196.333 38.736 196.277 39.044C196.221 39.352 196.193 39.604 196.193 39.8C196.193 40.78 197.009 41.27 198.643 41.27C199.221 41.27 199.781 41.2373 200.323 41.172C200.864 41.1067 201.303 41.0273 201.639 40.934C201.975 40.8313 202.143 40.7333 202.143 40.64C202.143 40.36 201.466 39.38 200.113 37.7L200.603 35.18L206.623 32.8L207.043 35.04L202.423 36.72ZM208.368 38.26C208.517 39.0253 208.634 39.7813 208.718 40.528C208.811 41.2653 208.858 41.886 208.858 42.39C208.858 43.4073 208.648 44.2427 208.228 44.896C207.817 45.5493 207.14 46.114 206.198 46.59C205.18 47.094 203.71 47.5373 201.788 47.92L201.018 45.54C202.539 45.2693 203.724 44.994 204.574 44.714C205.423 44.434 206.011 44.154 206.338 43.874C206.664 43.5847 206.828 43.2767 206.828 42.95C206.828 42.6607 206.767 42.1473 206.646 41.41C206.524 40.6727 206.352 39.856 206.128 38.96L208.368 38.26ZM213.823 44C212.796 44 211.989 43.7247 211.401 43.174C210.813 42.614 210.5 41.746 210.463 40.57L210.183 33.01L212.563 32.8C212.553 33.696 212.539 34.8813 212.521 36.356C212.511 37.8213 212.502 38.7127 212.493 39.03C212.493 39.7487 212.614 40.2667 212.857 40.584C213.109 40.9013 213.524 41.06 214.103 41.06L213.823 44ZM217.885 37.07C218.165 38.61 218.305 39.6833 218.305 40.29C218.305 40.962 218.142 41.6107 217.815 42.236C217.498 42.8613 217.055 43.3093 216.485 43.58C216.159 43.7387 215.776 43.8507 215.337 43.916C214.908 43.972 214.404 44 213.825 44C213.779 44 213.732 43.8927 213.685 43.678C213.639 43.454 213.615 43.1413 213.615 42.74C213.615 42.1053 213.671 41.6667 213.783 41.424C213.886 41.1813 213.993 41.06 214.105 41.06C215.505 41.06 216.205 40.8967 216.205 40.57C216.205 40.2433 216.019 39.2867 215.645 37.7L217.885 37.07ZM214.945 45.19H215.085H217.395V47.08H215.085H214.945H212.635V45.19H214.945ZM213.965 49.67V47.78H216.065V49.67H213.965Z" fill="#1B1B1B"/>
<path d="M235.57 10H241.475C241.787 10.0788 242.055 10.3552 242.046 10.6919C242.053 12.5729 242.048 14.454 242.049 16.3358C242.081 16.7435 241.718 17.1134 241.311 17.084C239.44 17.084 237.568 17.0879 235.696 17.0817C235.306 17.0925 234.971 16.7304 235.002 16.3412C235.002 14.4563 234.997 12.5714 235.005 10.6865C234.993 10.3498 235.262 10.0826 235.57 10Z" fill="#F39200"/>
<path d="M235.579 18.2278C237.488 18.203 239.399 18.2247 241.309 18.2169C241.709 18.1837 242.077 18.5498 242.049 18.9521C242.049 20.8347 242.051 22.7173 242.048 24.5991C242.059 24.9921 241.696 25.3319 241.308 25.3018C239.438 25.301 237.568 25.3049 235.699 25.3002C235.327 25.3118 234.987 24.9751 235.003 24.5998C234.999 22.718 235.001 20.837 235.002 18.9559C234.976 18.6115 235.239 18.2772 235.579 18.2278Z" fill="#F39200"/>
<path d="M243.732 10H249.645C249.959 10.0764 250.231 10.349 250.22 10.6896C250.232 12.5189 250.218 14.349 250.226 16.179C250.228 16.4122 250.219 16.6725 250.046 16.8493C249.884 17.047 249.618 17.0964 249.378 17.0871C247.534 17.0786 245.691 17.0925 243.848 17.0802C243.426 17.0817 243.121 16.6593 243.174 16.2555C243.18 14.4022 243.17 12.5482 243.179 10.6942C243.167 10.3591 243.429 10.0927 243.732 10Z" fill="#0080C8"/>
<path d="M251.925 10H257.834C258.124 10.0749 258.317 10.3143 258.44 10.5761V16.5111C258.294 16.8107 258.039 17.1103 257.675 17.0833C255.804 17.0856 253.933 17.0871 252.063 17.0825C251.663 17.0995 251.321 16.7312 251.354 16.3335C251.354 14.454 251.349 12.5745 251.356 10.6957C251.343 10.3544 251.612 10.0842 251.925 10Z" fill="#0080C8"/>
<path d="M243.723 18.2348C245.63 18.1954 247.541 18.2309 249.449 18.217C249.861 18.1699 250.257 18.5328 250.224 18.9545C250.225 20.8347 250.227 22.7158 250.223 24.5961C250.238 24.9721 249.902 25.3119 249.529 25.3011C247.658 25.3065 245.788 25.3018 243.918 25.3026C243.527 25.3327 243.16 24.9891 243.178 24.5937C243.175 22.7142 243.177 20.8347 243.177 18.956C243.155 18.624 243.397 18.2989 243.723 18.2348Z" fill="#0080C8"/>
<path d="M251.367 18.7978C251.408 18.4612 251.733 18.2048 252.066 18.2187C253.883 18.2141 255.7 18.2218 257.516 18.2148C257.685 18.2195 257.866 18.211 258.021 18.2936C258.216 18.3948 258.317 18.6017 258.438 18.7755V24.7429C258.282 25.0286 258.039 25.3306 257.676 25.3004C255.803 25.3035 253.93 25.3058 252.058 25.2997C251.681 25.3143 251.342 24.98 251.355 24.6016C251.346 22.9514 251.355 21.3013 251.351 19.6519C251.354 19.3669 251.334 19.0812 251.367 18.7978Z" fill="#0080C8"/>
<path d="M235.482 26.468C236.11 26.3908 236.751 26.4549 237.385 26.4341C238.692 26.4348 240.001 26.4333 241.309 26.4341C241.696 26.4032 242.059 26.7437 242.048 27.1352C242.051 29.0193 242.049 30.9035 242.049 32.7876C242.074 33.1884 241.709 33.549 241.311 33.5189C239.438 33.5181 237.565 33.522 235.692 33.5173C235.307 33.5258 234.971 33.166 235.002 32.7807C235.001 30.8981 234.999 29.0162 235.003 27.1344C234.993 26.8371 235.202 26.5561 235.482 26.468Z" fill="#0080C8"/>
<path d="M243.708 26.4551C244.468 26.4057 245.233 26.449 245.995 26.4343C247.172 26.4366 248.35 26.4312 249.527 26.4366C249.901 26.4227 250.239 26.7648 250.223 27.1408C250.227 29.0211 250.225 30.9014 250.224 32.7809C250.253 33.167 249.916 33.5276 249.531 33.5176C247.661 33.5222 245.789 33.5183 243.919 33.5191C243.518 33.5515 243.148 33.1894 243.177 32.7855C243.177 30.9045 243.175 29.0234 243.178 27.1424C243.167 26.8258 243.4 26.5231 243.708 26.4551Z" fill="#0080C8"/>
<path d="M251.355 27.14C251.34 26.7608 251.677 26.4211 252.055 26.4373C253.928 26.4311 255.802 26.4342 257.675 26.4357C258.039 26.4056 258.295 26.7045 258.439 27.0033V32.9491C258.298 33.2233 258.076 33.5182 257.737 33.5152C255.844 33.5244 253.951 33.519 252.058 33.5175C251.667 33.5329 251.325 33.1739 251.354 32.7824C251.352 30.9013 251.349 29.0203 251.355 27.14Z" fill="#0080C8"/>
<path d="M235.572 34.6646C237.485 34.6345 239.401 34.66 241.314 34.6515C241.719 34.6206 242.083 34.9943 242.05 35.4005C242.049 37.2815 242.052 39.1634 242.048 41.0444C242.055 41.4336 241.691 41.7672 241.308 41.7363C239.437 41.7355 237.565 41.7386 235.694 41.7347C235.328 41.7432 234.994 41.4158 235.004 41.0467C234.998 39.1634 235.003 37.2808 235.002 35.3974C234.976 35.0546 235.232 34.7171 235.572 34.6646Z" fill="#0080C8"/>
<path d="M243.716 34.672C245.626 34.6264 247.54 34.6665 249.452 34.6519C249.837 34.6117 250.224 34.9283 250.222 35.3268C250.232 37.2055 250.223 39.0858 250.227 40.9653C250.268 41.3614 249.932 41.7475 249.532 41.7352C247.659 41.7398 245.786 41.7367 243.913 41.7375C243.529 41.766 243.17 41.4301 243.18 41.0433C243.175 39.163 243.179 37.2835 243.178 35.404C243.152 35.0704 243.389 34.7407 243.716 34.672Z" fill="#0080C8"/>
<path d="M235.003 43.583C234.984 43.2054 235.317 42.8626 235.694 42.8734C237.539 42.8641 239.386 42.8742 241.232 42.8688C241.482 42.8549 241.752 42.9321 241.905 43.1452C242.059 43.3352 242.051 43.5923 242.052 43.8232C242.042 45.6471 242.058 47.471 242.044 49.2949C242.045 49.6447 241.737 49.8671 241.453 49.9999H235.598C235.287 49.864 234.971 49.6076 235.002 49.23C234.999 47.3482 234.999 45.4656 235.003 43.583Z" fill="#0080C8"/>
</g>
<defs>
<filter id="filter0_d_434_882" x="0" y="0" width="292" height="64" filterUnits="userSpaceOnUse" color-interpolation-filters="sRGB">
<feFlood flood-opacity="0" result="BackgroundImageFix"/>
<feColorMatrix in="SourceAlpha" type="matrix" values="0 0 0 0 0 0 0 0 0 0 0 0 0 0 0 0 0 0 127 0" result="hardAlpha"/>
<feOffset dy="2"/>
<feGaussianBlur stdDeviation="2"/>
<feComposite in2="hardAlpha" operator="out"/>
<feColorMatrix type="matrix" values="0 0 0 0 0 0 0 0 0 0 0 0 0 0 0 0 0 0 0.07 0"/>
<feBlend mode="normal" in2="BackgroundImageFix" result="effect1_dropShadow_434_882"/>
<feBlend mode="normal" in="SourceGraphic" in2="effect1_dropShadow_434_882" result="shape"/>
</filter>
</defs>
</svg>
