<svg width="292" height="64" viewBox="0 0 292 64" fill="none" xmlns="http://www.w3.org/2000/svg">
<g filter="url(#filter0_d_434_869)">
<rect x="4" y="2" width="284" height="56" rx="28" fill="white" shape-rendering="crispEdges"/>
<path d="M31.9999 37.84L25.4798 31.32C24.7098 30.55 24.7098 29.29 25.4798 28.52L31.9999 22" stroke="#2BA8B6" stroke-width="2" stroke-miterlimit="10" stroke-linecap="round" stroke-linejoin="round"/>
<path d="M161.266 19C161.298 19.072 161.314 19.16 161.314 19.264C161.314 19.624 161.23 19.968 161.062 20.296C160.902 20.624 160.658 20.92 160.33 21.184C159.858 21.56 159.21 21.868 158.386 22.108C157.562 22.356 156.73 22.48 155.89 22.48C154.714 22.48 153.834 22.24 153.25 21.76C152.666 21.28 152.374 20.58 152.374 19.66C152.374 18.796 152.594 17.628 153.034 16.156L154.162 16.468C153.874 17.572 153.73 18.404 153.73 18.964C153.73 19.516 153.934 19.944 154.342 20.248C154.75 20.552 155.366 20.704 156.19 20.704C156.854 20.704 157.478 20.636 158.062 20.5C158.654 20.364 159.13 20.204 159.49 20.02C159.85 19.836 160.03 19.676 160.03 19.54C160.03 19.436 159.95 19.344 159.79 19.264C159.63 19.184 159.342 19.1 158.926 19.012C158.518 18.924 157.914 18.82 157.114 18.7L157.45 17.164C158.29 17.204 159.478 17.224 161.014 17.224H161.974L161.794 19H161.266ZM169.153 19C168.289 19 167.709 18.756 167.413 18.268C167.293 18.532 167.125 18.752 166.909 18.928C166.701 19.096 166.469 19.18 166.213 19.18C165.789 19.18 165.341 19.056 164.869 18.808C164.397 18.56 164.045 18.272 163.813 17.944C163.533 18.352 163.237 18.632 162.925 18.784C162.613 18.928 162.237 19 161.797 19C161.765 19 161.733 18.94 161.701 18.82C161.669 18.692 161.653 18.512 161.653 18.28C161.653 17.912 161.689 17.644 161.761 17.476C161.825 17.308 161.897 17.224 161.977 17.224C162.265 17.224 162.497 17.192 162.673 17.128C162.849 17.064 163.013 16.948 163.165 16.78C163.317 16.604 163.481 16.344 163.657 16C164.041 15.272 164.457 14.752 164.905 14.44C165.353 14.12 165.877 13.96 166.477 13.96C166.837 13.96 167.109 14.044 167.293 14.212C167.485 14.372 167.613 14.656 167.677 15.064C167.773 15.68 167.877 16.14 167.989 16.444C168.109 16.74 168.269 16.944 168.469 17.056C168.669 17.168 168.957 17.224 169.333 17.224L169.153 19ZM164.593 16.504C164.777 16.736 165.065 16.944 165.457 17.128C165.857 17.312 166.197 17.404 166.477 17.404C166.549 17.404 166.597 17.364 166.621 17.284C166.645 17.196 166.657 17.056 166.657 16.864C166.657 16.36 166.625 16.012 166.561 15.82C166.497 15.62 166.381 15.52 166.213 15.52C165.813 15.52 165.485 15.6 165.229 15.76C164.981 15.912 164.769 16.16 164.593 16.504ZM178.192 14.08C178.256 14.48 178.312 14.936 178.36 15.448C178.408 15.96 178.432 16.392 178.432 16.744C178.432 17.44 178.272 17.992 177.952 18.4C177.64 18.8 177.24 19 176.752 19C176.28 19 175.872 18.92 175.528 18.76C175.192 18.6 174.956 18.384 174.82 18.112C174.66 18.4 174.436 18.62 174.148 18.772C173.86 18.924 173.536 19 173.176 19C172.776 19 172.432 18.92 172.144 18.76C171.864 18.6 171.676 18.372 171.58 18.076C171.396 18.388 171.108 18.62 170.716 18.772C170.324 18.924 169.804 19 169.156 19C169.124 19 169.092 18.94 169.06 18.82C169.028 18.692 169.012 18.512 169.012 18.28C169.012 17.912 169.048 17.644 169.12 17.476C169.184 17.308 169.256 17.224 169.336 17.224C169.968 17.224 170.432 17.136 170.728 16.96C171.024 16.776 171.172 16.476 171.172 16.06V15.316L172.372 15.22V16.084C172.372 16.444 172.452 16.724 172.612 16.924C172.772 17.124 173.012 17.224 173.332 17.224C173.628 17.224 173.864 17.128 174.04 16.936C174.224 16.736 174.316 16.484 174.316 16.18V15.436L175.516 15.34V16.084C175.516 16.444 175.628 16.724 175.852 16.924C176.084 17.124 176.404 17.224 176.812 17.224C177.012 17.224 177.112 17.136 177.112 16.96C177.112 16.752 177.076 16.412 177.004 15.94C176.94 15.468 176.86 14.984 176.764 14.488L178.192 14.08ZM181.818 14.74C181.938 15.372 182.034 15.972 182.106 16.54C182.178 17.1 182.214 17.548 182.214 17.884C182.214 18.636 182.046 19.284 181.71 19.828C181.374 20.38 180.842 20.844 180.114 21.22C179.258 21.66 178.09 22.02 176.61 22.3L176.13 20.8C177.97 20.472 179.23 20.1 179.91 19.684C180.59 19.268 180.93 18.82 180.93 18.34C180.93 18.092 180.878 17.672 180.774 17.08C180.678 16.48 180.55 15.848 180.39 15.184L181.818 14.74ZM189.682 14.74C189.802 15.372 189.898 15.972 189.97 16.54C190.042 17.1 190.078 17.548 190.078 17.884C190.078 18.636 189.91 19.284 189.574 19.828C189.238 20.38 188.706 20.844 187.978 21.22C187.122 21.66 185.954 22.02 184.474 22.3L183.994 20.8C185.834 20.472 187.094 20.1 187.774 19.684C188.454 19.268 188.794 18.82 188.794 18.34C188.794 18.092 188.742 17.672 188.638 17.08C188.542 16.48 188.414 15.848 188.254 15.184L189.682 14.74ZM191.883 18.784L191.619 9.7L193.119 9.58L193.059 18.664L191.883 18.784ZM198.013 19C197.477 19 197.093 18.896 196.861 18.688C196.661 19.792 195.993 20.636 194.857 21.22C194.001 21.66 192.833 22.02 191.353 22.3L190.873 20.8C192.713 20.472 193.973 20.1 194.653 19.684C195.333 19.268 195.673 18.82 195.673 18.34C195.673 18.092 195.621 17.672 195.517 17.08C195.421 16.48 195.293 15.868 195.133 15.244L196.525 14.8C196.661 15.536 196.781 16.064 196.885 16.384C196.997 16.704 197.145 16.924 197.329 17.044C197.521 17.164 197.809 17.224 198.193 17.224L198.013 19ZM195.013 13.3V11.8H196.633V13.3H195.013ZM198.007 19C197.975 19 197.943 18.94 197.911 18.82C197.879 18.692 197.863 18.512 197.863 18.28C197.863 17.912 197.899 17.644 197.971 17.476C198.035 17.308 198.107 17.224 198.188 17.224H199.988L199.808 19H198.007ZM201.312 10.804L201.168 9.94L204.708 8.404L204.888 9.28L201.312 10.804ZM201.732 12.94C202.428 13.86 202.908 14.568 203.172 15.064C203.436 15.56 203.568 16.012 203.568 16.42C203.568 16.876 203.44 17.316 203.184 17.74C202.936 18.156 202.612 18.456 202.212 18.64C201.732 18.88 200.932 19 199.812 19C199.78 19 199.748 18.94 199.716 18.82C199.684 18.692 199.668 18.512 199.668 18.28C199.668 17.912 199.704 17.644 199.776 17.476C199.84 17.308 199.912 17.224 199.992 17.224C200.712 17.224 201.272 17.184 201.672 17.104C202.072 17.016 202.272 16.908 202.272 16.78C202.272 16.548 202.136 16.208 201.864 15.76C201.592 15.312 201.088 14.6 200.352 13.624L200.688 11.92L205.968 9.664L206.232 11.08L201.732 12.94ZM207.189 14.74C207.309 15.372 207.405 15.972 207.477 16.54C207.549 17.1 207.585 17.548 207.585 17.884C207.585 18.636 207.417 19.284 207.081 19.828C206.745 20.38 206.213 20.844 205.485 21.22C204.629 21.66 203.461 22.02 201.981 22.3L201.501 20.8C203.341 20.472 204.601 20.1 205.281 19.684C205.961 19.268 206.301 18.82 206.301 18.34C206.301 18.092 206.249 17.672 206.145 17.08C206.049 16.48 205.921 15.848 205.761 15.184L207.189 14.74ZM211.887 19C211.063 19 210.435 18.784 210.003 18.352C209.571 17.912 209.343 17.236 209.319 16.324L209.127 9.7L210.627 9.58L210.591 15.424C210.591 16.032 210.707 16.484 210.939 16.78C211.171 17.076 211.547 17.224 212.067 17.224L211.887 19ZM211.882 19C211.85 19 211.818 18.94 211.786 18.82C211.754 18.692 211.738 18.512 211.738 18.28C211.738 17.912 211.774 17.644 211.846 17.476C211.91 17.308 211.982 17.224 212.062 17.224H213.863L213.683 19H211.882ZM215.607 12.94C216.303 13.86 216.783 14.568 217.047 15.064C217.311 15.56 217.443 16.012 217.443 16.42C217.443 16.876 217.315 17.316 217.059 17.74C216.811 18.156 216.487 18.456 216.087 18.64C215.607 18.88 214.807 19 213.687 19C213.655 19 213.623 18.94 213.591 18.82C213.559 18.692 213.543 18.512 213.543 18.28C213.543 17.912 213.579 17.644 213.651 17.476C213.715 17.308 213.787 17.224 213.867 17.224C214.587 17.224 215.147 17.184 215.547 17.104C215.947 17.016 216.147 16.908 216.147 16.78C216.147 16.548 216.011 16.208 215.739 15.76C215.467 15.312 214.963 14.6 214.227 13.624L214.563 11.92L219.843 9.664L220.107 11.08L215.607 12.94ZM99.0998 41.9V39.8H101.34V41.9H99.0998ZM105.12 37.56C105.297 38.6333 105.423 39.5247 105.498 40.234C105.573 40.934 105.61 41.6293 105.61 42.32C105.61 43.916 105.027 45.1293 103.86 45.96C103.347 46.324 102.665 46.6227 101.816 46.856C100.967 47.0987 100.085 47.22 99.1698 47.22C97.8258 47.22 96.7992 46.9167 96.0898 46.31C95.3898 45.7033 95.0398 44.7933 95.0398 43.58C95.0398 42.46 95.3198 40.99 95.8798 39.17L97.6298 39.66C97.4525 40.332 97.3265 40.878 97.2518 41.298C97.1772 41.7087 97.1398 42.0727 97.1398 42.39C97.1398 43.65 97.9798 44.28 99.6598 44.28C100.341 44.28 101.051 44.1867 101.788 44C102.535 43.804 103.062 43.5707 103.37 43.3C103.51 43.1693 103.58 42.9827 103.58 42.74C103.58 42.3667 103.515 41.746 103.384 40.878C103.253 40.0007 103.085 39.128 102.88 38.26L105.12 37.56ZM107.366 43.44L106.946 33.01L109.326 32.8L109.186 43.23L107.366 43.44ZM114.789 44C114.304 44 113.935 43.888 113.683 43.664C113.543 44.2987 113.272 44.854 112.871 45.33C112.479 45.8153 111.928 46.2353 111.219 46.59C110.202 47.094 108.732 47.5373 106.809 47.92L106.039 45.54C107.56 45.2693 108.746 44.994 109.595 44.714C110.444 44.434 111.032 44.154 111.359 43.874C111.686 43.5847 111.849 43.2767 111.849 42.95C111.849 42.6607 111.788 42.152 111.667 41.424C111.546 40.6867 111.373 39.8887 111.149 39.03L113.319 38.33C113.496 39.198 113.641 39.8093 113.753 40.164C113.874 40.5093 114.028 40.7473 114.215 40.878C114.402 40.9993 114.686 41.06 115.069 41.06L114.789 44ZM118.846 37.07C119.126 38.61 119.266 39.6833 119.266 40.29C119.266 40.962 119.103 41.6107 118.776 42.236C118.459 42.8613 118.016 43.3093 117.446 43.58C117.12 43.7387 116.737 43.8507 116.298 43.916C115.869 43.972 115.365 44 114.786 44C114.74 44 114.693 43.8927 114.646 43.678C114.6 43.454 114.576 43.1413 114.576 42.74C114.576 42.1053 114.632 41.6667 114.744 41.424C114.847 41.1813 114.954 41.06 115.066 41.06C116.466 41.06 117.166 40.8967 117.166 40.57C117.166 40.2433 116.98 39.2867 116.606 37.7L118.846 37.07ZM115.906 45.19H116.046H118.356V47.08H116.046H115.906H113.596V45.19H115.906ZM121.011 44.14L120.591 33.01L122.971 32.8L122.831 43.93L121.011 44.14ZM137.402 44C137.402 44.4853 137.285 44.9473 137.052 45.386C136.828 45.8247 136.501 46.226 136.072 46.59C135.577 47.0193 134.863 47.3693 133.93 47.64C132.997 47.92 132.031 48.06 131.032 48.06C129.557 48.06 128.451 47.7567 127.714 47.15C126.986 46.5527 126.622 45.6427 126.622 44.42C126.622 43.3 126.902 41.83 127.462 40.01L129.212 40.5C129.035 41.172 128.909 41.718 128.834 42.138C128.759 42.5487 128.722 42.9127 128.722 43.23C128.722 43.846 128.941 44.3127 129.38 44.63C129.828 44.9567 130.542 45.12 131.522 45.12C132.241 45.12 132.894 45.064 133.482 44.952C134.07 44.8493 134.532 44.7187 134.868 44.56C135.204 44.4013 135.372 44.2613 135.372 44.14C135.372 44.0653 135.283 44 135.106 43.944C134.929 43.8787 134.602 43.8087 134.126 43.734C133.65 43.6593 132.945 43.5613 132.012 43.44L132.502 40.99C133.529 41.0367 135.139 41.06 137.332 41.06H138.242L137.962 44H137.402ZM137.96 44C137.914 44 137.867 43.8927 137.82 43.678C137.774 43.454 137.75 43.1413 137.75 42.74C137.75 42.1053 137.806 41.6667 137.918 41.424C138.021 41.1813 138.128 41.06 138.24 41.06H140.34L140.06 44H137.96ZM140.066 44C140.019 44 139.972 43.8927 139.926 43.678C139.879 43.454 139.856 43.1413 139.856 42.74C139.856 42.1053 139.912 41.6667 140.024 41.424C140.126 41.1813 140.234 41.06 140.346 41.06H142.446L142.166 44H140.066ZM146.931 44C145.811 44 145.051 43.678 144.649 43.034C144.453 43.3047 144.234 43.51 143.991 43.65C143.581 43.8833 142.974 44 142.171 44C142.125 44 142.078 43.8927 142.031 43.678C141.985 43.454 141.961 43.1413 141.961 42.74C141.961 42.1053 142.017 41.6667 142.129 41.424C142.241 41.1813 142.353 41.06 142.465 41.06C143.315 41.06 143.73 40.92 143.711 40.64L143.501 33.01L145.811 32.8L145.671 39.24C145.662 39.8933 145.779 40.36 146.021 40.64C146.273 40.92 146.67 41.06 147.211 41.06L146.931 44ZM152.319 36.93C152.842 36.93 153.262 37.0747 153.579 37.364C153.896 37.644 154.13 38.0827 154.279 38.68C154.354 38.9693 154.419 39.3287 154.475 39.758C154.531 40.178 154.559 40.542 154.559 40.85C154.559 41.4193 154.452 41.956 154.237 42.46C154.022 42.964 153.738 43.37 153.383 43.678C153.038 43.986 152.683 44.14 152.319 44.14C151.712 44.14 151.106 44 150.499 43.72C149.892 43.44 149.472 43.1273 149.239 42.782C148.903 43.23 148.544 43.5473 148.161 43.734C147.778 43.9113 147.368 44 146.929 44C146.882 44 146.836 43.8927 146.789 43.678C146.742 43.454 146.719 43.1413 146.719 42.74C146.719 42.1053 146.775 41.6667 146.887 41.424C146.99 41.1813 147.097 41.06 147.209 41.06C147.498 41.06 147.732 41.0273 147.909 40.962C148.096 40.8873 148.264 40.7613 148.413 40.584C148.572 40.3973 148.754 40.1127 148.959 39.73C149.37 38.9833 149.734 38.414 150.051 38.022C150.368 37.6207 150.7 37.3407 151.045 37.182C151.4 37.014 151.824 36.93 152.319 36.93ZM150.457 40.402C150.56 40.5793 150.84 40.7567 151.297 40.934C151.754 41.1113 152.165 41.2 152.529 41.2C152.66 41.2 152.725 41.13 152.725 40.99C152.725 40.8313 152.702 40.6353 152.655 40.402C152.618 40.1593 152.576 39.9587 152.529 39.8C152.426 39.4733 152.24 39.31 151.969 39.31C151.726 39.31 151.526 39.338 151.367 39.394C151.208 39.45 151.059 39.5573 150.919 39.716C150.788 39.8653 150.634 40.094 150.457 40.402ZM163.387 38.26C163.537 39.0253 163.653 39.7813 163.737 40.528C163.831 41.2653 163.877 41.886 163.877 42.39C163.877 43.4073 163.667 44.2427 163.247 44.896C162.837 45.5493 162.16 46.114 161.217 46.59C160.2 47.094 158.73 47.5373 156.807 47.92L156.037 45.54C157.559 45.2693 158.744 44.994 159.593 44.714C160.443 44.434 161.031 44.154 161.357 43.874C161.684 43.5847 161.847 43.2767 161.847 42.95C161.847 42.6607 161.787 42.1473 161.665 41.41C161.544 40.6727 161.371 39.856 161.147 38.96L163.387 38.26ZM165.622 43.44L165.202 33.01L167.582 32.8L167.442 43.23L165.622 43.44ZM171.645 38.26C171.794 39.0253 171.911 39.7813 171.995 40.528C172.088 41.2653 172.135 41.886 172.135 42.39C172.135 43.4073 171.925 44.2427 171.505 44.896C171.094 45.5493 170.418 46.114 169.475 46.59C168.458 47.094 166.988 47.5373 165.065 47.92L164.295 45.54C165.816 45.2693 167.002 44.994 167.851 44.714C168.7 44.434 169.288 44.154 169.615 43.874C169.942 43.5847 170.105 43.2767 170.105 42.95C170.105 42.6607 170.044 42.1473 169.923 41.41C169.802 40.6727 169.629 39.856 169.405 38.96L171.645 38.26ZM169.405 36.86V34.76H171.645V36.86H169.405ZM177.1 44C176.073 44 175.266 43.7247 174.678 43.174C174.09 42.614 173.777 41.746 173.74 40.57L173.46 33.01L175.84 32.8C175.831 33.696 175.817 34.8813 175.798 36.356C175.789 37.8213 175.779 38.7127 175.77 39.03C175.77 39.7487 175.891 40.2667 176.134 40.584C176.386 40.9013 176.801 41.06 177.38 41.06L177.1 44ZM177.103 44C177.056 44 177.009 43.8927 176.963 43.678C176.916 43.454 176.893 43.1413 176.893 42.74C176.893 42.1053 176.949 41.6667 177.061 41.424C177.163 41.1813 177.271 41.06 177.383 41.06H179.483L179.203 44H177.103ZM179.208 44C179.162 44 179.115 43.8927 179.068 43.678C179.022 43.454 178.998 43.1413 178.998 42.74C178.998 42.1053 179.054 41.6667 179.166 41.424C179.269 41.1813 179.376 41.06 179.488 41.06H181.588L181.308 44H179.208ZM181.314 44C181.267 44 181.22 43.8927 181.174 43.678C181.127 43.454 181.104 43.1413 181.104 42.74C181.104 42.1053 181.16 41.6667 181.272 41.424C181.374 41.1813 181.482 41.06 181.594 41.06H183.694L183.414 44H181.314ZM187.479 37.07C187.759 38.61 187.899 39.6833 187.899 40.29C187.899 40.962 187.736 41.6107 187.409 42.236C187.092 42.8613 186.649 43.3093 186.079 43.58C185.753 43.7387 185.37 43.8507 184.931 43.916C184.502 43.972 183.998 44 183.419 44C183.373 44 183.326 43.8927 183.279 43.678C183.233 43.454 183.209 43.1413 183.209 42.74C183.209 42.1053 183.265 41.6667 183.377 41.424C183.48 41.1813 183.587 41.06 183.699 41.06C185.099 41.06 185.799 40.8967 185.799 40.57C185.799 40.2433 185.613 39.2867 185.239 37.7L187.479 37.07ZM183.839 47.29V45.19H186.079V47.29H183.839ZM193.354 42.74V40.64H195.594V42.74H193.354ZM200.984 44C200.33 44 199.882 43.916 199.64 43.748C199.593 44.336 199.434 44.882 199.164 45.386C198.902 45.89 198.529 46.3147 198.044 46.66C197.54 47.024 196.863 47.3227 196.014 47.556C195.174 47.7987 194.31 47.92 193.424 47.92C192.08 47.92 191.053 47.6167 190.344 47.01C189.644 46.4033 189.294 45.4933 189.294 44.28C189.294 43.16 189.574 41.69 190.134 39.87L191.884 40.36C191.706 41.032 191.58 41.578 191.506 41.998C191.431 42.4087 191.394 42.7727 191.394 43.09C191.394 44.35 192.234 44.98 193.914 44.98C194.595 44.98 195.304 44.882 196.042 44.686C196.788 44.4993 197.316 44.2707 197.624 44C197.764 43.8693 197.834 43.6827 197.834 43.44C197.834 43.0667 197.764 42.446 197.624 41.578C197.493 40.71 197.33 39.8607 197.134 39.03L199.304 38.33C199.397 39.1233 199.509 39.7113 199.64 40.094C199.78 40.4673 199.966 40.724 200.2 40.864C200.442 40.9947 200.797 41.06 201.264 41.06L200.984 44ZM200.988 44C200.941 44 200.894 43.8927 200.848 43.678C200.801 43.454 200.778 43.1413 200.778 42.74C200.778 42.1053 200.834 41.6667 200.946 41.424C201.048 41.1813 201.156 41.06 201.268 41.06H203.368L203.088 44H200.988ZM203.093 44C203.046 44 203 43.8927 202.953 43.678C202.906 43.454 202.883 43.1413 202.883 42.74C202.883 42.1053 202.939 41.6667 203.051 41.424C203.154 41.1813 203.261 41.06 203.373 41.06H205.473L205.193 44H203.093ZM205.199 44C205.152 44 205.105 43.8927 205.059 43.678C205.012 43.454 204.989 43.1413 204.989 42.74C204.989 42.1053 205.045 41.6667 205.157 41.424C205.259 41.1813 205.367 41.06 205.479 41.06H207.579L207.299 44H205.199ZM207.304 44C207.257 44 207.211 43.8927 207.164 43.678C207.117 43.454 207.094 43.1413 207.094 42.74C207.094 42.1053 207.15 41.6667 207.262 41.424C207.365 41.1813 207.472 41.06 207.584 41.06H209.684L209.404 44H207.304ZM209.409 44C209.363 44 209.316 43.8927 209.269 43.678C209.223 43.454 209.199 43.1413 209.199 42.74C209.199 42.1053 209.255 41.6667 209.367 41.424C209.47 41.1813 209.577 41.06 209.689 41.06H211.789L211.509 44H209.409ZM215.225 34.2C215.85 34.2 216.392 34.4193 216.849 34.858C217.316 35.2873 217.675 35.908 217.927 36.72C218.179 37.5227 218.305 38.4793 218.305 39.59C218.305 40.514 218.109 41.3447 217.717 42.082C217.325 42.8193 216.798 43.3187 216.135 43.58C215.678 43.7573 215.132 43.874 214.497 43.93C213.872 43.9767 213.204 44 212.495 44H211.515C211.468 44 211.422 43.8927 211.375 43.678C211.328 43.454 211.305 43.1413 211.305 42.74C211.305 42.1053 211.361 41.6667 211.473 41.424C211.576 41.1813 211.683 41.06 211.795 41.06H212.775C213.774 41.06 214.534 41.0413 215.057 41.004C215.589 40.9573 215.995 40.8827 216.275 40.78C216.378 40.7427 216.448 40.6913 216.485 40.626C216.532 40.5607 216.555 40.472 216.555 40.36V39.884C216.256 39.996 215.925 40.08 215.561 40.136C215.197 40.192 214.852 40.22 214.525 40.22C213.797 40.22 213.251 40.0473 212.887 39.702C212.532 39.3473 212.355 38.82 212.355 38.12C212.355 37.476 212.472 36.8553 212.705 36.258C212.948 35.6513 213.288 35.1567 213.727 34.774C214.166 34.3913 214.665 34.2 215.225 34.2ZM214.105 37.35C214.105 37.6767 214.362 37.84 214.875 37.84C215.304 37.84 215.766 37.8027 216.261 37.728C216.009 36.8693 215.57 36.44 214.945 36.44C214.684 36.44 214.478 36.5333 214.329 36.72C214.18 36.9067 214.105 37.1167 214.105 37.35ZM213.825 33.22V31.12H216.065V33.22H213.825Z" fill="#1B1B1B"/>
<mask id="mask0_434_869" style="mask-type:luminance" maskUnits="userSpaceOnUse" x="228" y="10" width="40" height="40">
<path d="M268 10H228V50H268V10Z" fill="white"/>
</mask>
<g mask="url(#mask0_434_869)">
<path d="M250.763 10.3368C251.085 10.3368 251.572 10.1724 251.687 10.6243C251.778 11.0023 251.308 11.0927 251.06 11.2653C244.873 15.3819 242.224 21.3968 242.026 28.5372C241.911 32.6128 243.106 36.4337 245.896 39.5972C246.316 40.0738 246.836 40.4764 247.298 40.9284C247.513 41.142 247.942 41.3146 247.76 41.6761C247.595 42.0212 247.174 41.8815 246.877 41.8158C244.625 41.2981 242.455 40.5586 240.441 39.4164C235.912 36.8446 232.348 33.2949 229.526 28.9234C228.09 26.6966 228.519 24.3302 228.965 22.0869C229.485 19.4904 230.17 16.8856 231.209 14.4124C231.696 13.2455 232.339 12.1773 233.024 11.1256C233.363 10.5997 233.907 10.534 234.476 10.534C236.143 10.534 247.01 10.3203 250.763 10.3368Z" fill="#E5E5E5"/>
<path d="M245.475 49.6136C245.137 49.6136 244.642 49.7698 244.502 49.4C244.328 48.9234 244.881 48.7919 245.178 48.6112C252.802 43.911 256.243 32.6868 252.629 24.1165C251.787 22.1198 250.566 20.3203 248.792 18.9727C248.561 18.7919 248.075 18.6358 248.239 18.2907C248.421 17.9045 248.875 18.1346 249.205 18.2003C252.538 18.833 255.525 20.2628 258.273 22.2184C261.383 24.4287 263.941 27.1814 266.128 30.2956C267.381 32.0869 267.662 34.0261 267.365 36.0885C266.803 40.0655 265.723 43.8946 263.949 47.5348C263.273 48.9234 262.629 49.4329 260.805 49.4657C260.088 49.4493 249.939 49.6218 245.475 49.6136Z" fill="#E5E5E5"/>
<path d="M228 30.2791C228.041 29.9094 227.984 29.5149 228.363 29.3999C228.8 29.2684 228.866 29.6875 229.015 29.9587C232.967 37.2882 239.328 41.2652 247.307 42.9907C247.67 43.0729 248.157 42.9579 248.289 43.4344C248.412 43.8863 248 44.1328 247.719 44.3711C245.294 46.4172 242.67 48.1674 239.898 49.7204C238.949 50.2545 238.19 49.9423 237.422 49.326C234.073 46.5979 232.068 42.9497 230.393 39.063C229.172 36.2364 228.429 33.2783 228 30.2791Z" fill="#E93736"/>
<path d="M268.001 29.7697C267.992 30.0573 268.05 30.4106 267.696 30.501C267.365 30.5832 267.291 30.2545 267.184 30.0326C264.354 24.363 259.585 20.8872 253.941 18.3975C252.249 17.6497 250.46 17.1978 248.644 16.8445C248.355 16.787 247.935 16.8198 247.877 16.3925C247.827 16.0639 248.124 15.8831 248.339 15.7023C250.798 13.6399 253.446 11.8568 256.235 10.2709C256.952 9.86008 257.58 9.95047 258.224 10.4024C260.525 12.0211 262.15 14.2151 263.537 16.598C265.888 20.6818 267.53 25.0285 268.001 29.7697Z" fill="#63AB45"/>
</g>
</g>
<defs>
<filter id="filter0_d_434_869" x="0" y="0" width="292" height="64" filterUnits="userSpaceOnUse" color-interpolation-filters="sRGB">
<feFlood flood-opacity="0" result="BackgroundImageFix"/>
<feColorMatrix in="SourceAlpha" type="matrix" values="0 0 0 0 0 0 0 0 0 0 0 0 0 0 0 0 0 0 127 0" result="hardAlpha"/>
<feOffset dy="2"/>
<feGaussianBlur stdDeviation="2"/>
<feComposite in2="hardAlpha" operator="out"/>
<feColorMatrix type="matrix" values="0 0 0 0 0 0 0 0 0 0 0 0 0 0 0 0 0 0 0.07 0"/>
<feBlend mode="normal" in2="BackgroundImageFix" result="effect1_dropShadow_434_869"/>
<feBlend mode="normal" in="SourceGraphic" in2="effect1_dropShadow_434_869" result="shape"/>
</filter>
</defs>
</svg>
