<svg width="25" height="21" viewBox="0 0 25 21" fill="none" xmlns="http://www.w3.org/2000/svg">
<path d="M18.875 3.0625H10.125C7.5 3.0625 5.75 4.375 5.75 7.4375V13.5625C5.75 16.625 7.5 17.9375 10.125 17.9375H18.875C21.5 17.9375 23.25 16.625 23.25 13.5625V7.4375C23.25 4.375 21.5 3.0625 18.875 3.0625ZM19.2862 8.39125L16.5475 10.5788C15.97 11.0425 15.235 11.27 14.5 11.27C13.765 11.27 13.0212 11.0425 12.4525 10.5788L9.71375 8.39125C9.43375 8.16375 9.39 7.74375 9.60875 7.46375C9.83625 7.18375 10.2475 7.13125 10.5275 7.35875L13.2663 9.54625C13.9313 10.08 15.06 10.08 15.725 9.54625L18.4638 7.35875C18.7438 7.13125 19.1637 7.175 19.3825 7.46375C19.61 7.74375 19.5662 8.16375 19.2862 8.39125Z" fill="#2BA8B6"/>
<line x1="0.5" y1="2.18557e-08" x2="0.499999" y2="21" stroke="#2BA8B6"/>
</svg>
