<svg width="349" height="288" viewBox="0 0 349 288" fill="none" xmlns="http://www.w3.org/2000/svg">
<path fill-rule="evenodd" clip-rule="evenodd" d="M30.9 255.5C46.5 255.5 59.0999 242.9 59.0999 227.3C59.0999 211.7 46.5 199.1 30.9 199.1C15.2999 199.1 2.69995 211.7 2.69995 227.3C2.69995 242.9 15.2999 255.5 30.9 255.5ZM30.9 239.1C37.4999 239.1 42.7999 233.8 42.7999 227.2C42.7999 220.6 37.4999 215.3 30.9 215.3C24.3 215.3 19 220.6 19 227.2C19 233.8 24.3 239.1 30.9 239.1Z" fill="#E5E5E5" fill-opacity="0.7"/>
<path d="M298.1 22.4002C298.1 33.0002 289.5 41.6002 278.9 41.6002C268.3 41.6002 259.7 33.0002 259.7 22.4002C259.7 11.8002 268.3 3.2002 278.9 3.2002C289.5 3.2002 298.1 11.8002 298.1 22.4002Z" fill="#E5E5E5" fill-opacity="0.7"/>
<path fill-rule="evenodd" clip-rule="evenodd" d="M331.4 102.4C339.3 102.4 345.7 95.9998 345.7 88.0998C345.7 80.1998 339.3 73.7998 331.4 73.7998C323.5 73.7998 317.1 80.1998 317.1 88.0998C317.1 95.9998 323.5 102.4 331.4 102.4ZM331.4 94.0998C334.7 94.0998 337.4 91.3998 337.4 88.0998C337.4 84.7998 334.7 82.0998 331.4 82.0998C328.1 82.0998 325.4 84.7998 325.4 88.0998C325.4 91.3998 328.1 94.0998 331.4 94.0998Z" fill="#E5E5E5" fill-opacity="0.7"/>
<path d="M79.6 274.8C79.6 280.9 74.7 285.9 68.5 285.9C62.3 285.9 57.4 281 57.4 274.8C57.4 268.6 62.3 263.7 68.5 263.7C74.7 263.7 79.6 268.6 79.6 274.8Z" fill="#E5E5E5" fill-opacity="0.7"/>
<path d="M52 142.1C61.6 79.6 141.9 27.3 180.8 9C254.7 47.1 296.1 113.6 307.5 142.1V249.8C235.2 219.1 192.9 253.9 180.8 275.2C132.2 220.1 74.7 235.3 52 249.8V142.1Z" fill="url(#paint0_linear_1619_84)" fill-opacity="0.3"/>
<path fill-rule="evenodd" clip-rule="evenodd" d="M263 240.4C263.7 240.4 264.4 240.1 265 239.7C265.6 239.2 265.9 238.6 266.1 237.9C266.2 237.2 266.1 236.5 265.8 235.8C265.5 235.2 264.9 234.7 264.2 234.4C263.5 234.1 262.8 234.1 262.1 234.3C261.4 234.5 260.8 235 260.4 235.6C260 236.2 259.8 236.9 259.9 237.6C259.9 238.3 260.3 239 260.8 239.5C261.1 239.8 261.4 240 261.8 240.2C262.2 240.4 262.6 240.4 263 240.4ZM253.4 240C238.8 239.9 225.5 243.1 213.6 249.2C201.1 255.7 190.2 265.6 181.3 278.4L178.5 282.5L175.7 278.4C162.3 259.1 144.4 246.5 123.2 241.9C102.6 237.5 78.8 240.5 52.8 252.1L48 254.2V152C48 127.1 58.1 101.2 81 75C101.7 51.3 133 27.2 176.9 3.4L178.5 2.5L180.1 3.4C187.4 7.4 194.4 11.4 201.1 15.4C204.9 17.7 208.5 19.9 212.1 22.2C213.8 20.6 215.9 19.7 218.2 19.5C220.5 19.3 222.8 20 224.6 21.3C226.5 22.6 227.8 24.6 228.5 26.8C229.1 29 229 31.4 228 33.5C227.1 35.6 225.5 37.3 223.4 38.4C221.4 39.5 219 39.8 216.8 39.3C214.6 38.8 212.5 37.6 211.1 35.8C209.7 34 208.9 31.8 208.9 29.5C208.9 29.1 208.9 28.7 208.9 28.3C205.2 26 201.5 23.6 197.5 21.3C191.5 17.7 185.1 14 178.4 10.4C136.1 33.5 105.9 56.8 86 79.6C64.3 104.5 54.7 128.9 54.7 152.2V244C80.2 233.5 103.8 231 124.5 235.5C146 240.2 164.3 252.3 178.4 270.9C187.4 259 198.2 249.7 210.4 243.4C223.3 236.7 237.9 233.2 253.8 233.4C254.5 231.9 255.5 230.6 256.8 229.6C258.1 228.6 259.6 227.9 261.2 227.6C262.8 227.3 264.4 227.4 266 227.9C267.5 228.4 268.9 229.2 270.1 230.4C271.2 231.5 272 232.8 272.5 234.2C273 235.6 273.1 237.2 273 238.7C272.8 240.2 272.3 241.7 271.4 242.9C270.6 244.2 269.4 245.2 268.1 246C266.8 246.8 265.3 247.2 263.8 247.3C262.3 247.4 260.8 247.2 259.3 246.6C257.8 246 256.6 245.1 255.6 244C254.6 242.9 253.8 241.5 253.4 240Z" fill="#43C5D1" stroke="#1B1B1B" stroke-miterlimit="10"/>
<path fill-rule="evenodd" clip-rule="evenodd" d="M209.5 111.3L223.9 119.9L238.7 141.3L223.9 162.7L208.8 171.7L186.4 148.3V148.1C188 146.2 188.9 143.8 188.8 141.2C188.8 138.7 187.9 136.3 186.2 134.4L209.4 111.3H209.5Z" fill="#43C5D1" stroke="#1B1B1B" stroke-miterlimit="10"/>
<path fill-rule="evenodd" clip-rule="evenodd" d="M147.4 111.3L133 119.9L118.2 141.3L132.9 162.7L148 171.7L170.4 148.3C168.8 146.2 167.9 143.8 167.9 141.3C167.9 138.8 168.8 136.4 170.5 134.5L147.4 111.4V111.3Z" fill="#43C5D1" stroke="#1B1B1B" stroke-miterlimit="10"/>
<path fill-rule="evenodd" clip-rule="evenodd" d="M148.3 110.4L156.9 96.0002L178.3 81.2002L199.7 96.0002L208.7 111.1L185.4 133.4C183.5 131.7 181 130.8 178.4 130.8C175.8 130.8 173.4 131.8 171.5 133.5L148.4 110.4H148.3Z" fill="#43C5D1" stroke="#1B1B1B" stroke-miterlimit="10"/>
<path fill-rule="evenodd" clip-rule="evenodd" d="M148.3 172.6L156.9 187L178.3 201.8L199.7 187L208.7 171.9L185.3 149.6H185.1C183.2 151.1 180.8 151.9 178.3 151.9C175.8 151.9 173.5 151 171.6 149.3L148.3 172.6Z" fill="#43C5D1" stroke="#1B1B1B" stroke-miterlimit="10"/>
<path fill-rule="evenodd" clip-rule="evenodd" d="M231 64.7002C231.7 64.7002 232.4 64.4002 233 64.0002C233.6 63.5002 233.9 62.9002 234.1 62.2002C234.2 61.5002 234.1 60.8002 233.8 60.1002C233.5 59.5002 232.9 59.0002 232.2 58.7002C231.5 58.4002 230.8 58.4002 230.1 58.6002C229.4 58.8002 228.8 59.3002 228.4 59.9002C228 60.5002 227.8 61.2002 227.9 61.9002C228 62.6002 228.3 63.3002 228.8 63.8002C229.1 64.1002 229.4 64.3002 229.8 64.5002C230.2 64.7002 230.6 64.7002 231 64.7002ZM296 229.2C296.7 229.2 297.4 229 298 228.5C298.6 228 298.9 227.4 299.1 226.7C299.2 226 299.1 225.2 298.8 224.6C298.5 224 297.9 223.5 297.2 223.2C296.5 222.9 295.8 222.9 295.1 223.1C294.4 223.3 293.8 223.8 293.4 224.4C293 225 292.8 225.7 292.9 226.5C292.9 227.2 293.3 227.9 293.8 228.4C294.4 229 295.2 229.3 296 229.3V229.2ZM303.1 233.2C301.8 234.5 300.1 235.5 298.2 235.9C296.4 236.3 294.4 236.2 292.7 235.6C290.9 235 289.4 233.9 288.2 232.4C287 230.9 286.3 229.1 286.1 227.3C266.3 222.1 246.7 221.2 228.5 225.4C210.5 229.5 194 238.7 180.9 251.8L178.5 254.2L176.1 251.8C163.1 238.7 146.6 229.5 128.5 225.4C109.9 221.1 89.9 222.1 69.8 227.6L65.5 228.8V152.2C65.5 123.5 82.1 97.7002 104.5 75.8002C126.5 54.2002 154.2 36.4002 176.9 23.6002L178.6 22.7002L180.3 23.6002C185.6 26.6002 190.7 29.6002 195.7 32.6002C200.7 35.7002 205.7 38.9002 210.7 42.2002C213.6 44.1002 216.5 46.1002 219.4 48.2002C221.6 49.8002 223.8 51.4002 226.1 53.1002C228 52.0002 230.2 51.5002 232.4 51.8002C234.6 52.1002 236.6 53.1002 238.2 54.6002C239.8 56.1002 240.8 58.2002 241.1 60.3002C241.4 62.5002 241 64.7002 239.9 66.6002C238.8 68.5002 237.1 70.0002 235.1 70.9002C233.1 71.7002 230.8 71.9002 228.7 71.3002C226.6 70.7002 224.7 69.5002 223.3 67.7002C222 66.0002 221.2 63.8002 221.2 61.6002C221.2 60.5002 221.4 59.4002 221.8 58.3002C219.7 56.7002 217.6 55.2002 215.5 53.7002C212.6 51.6002 209.7 49.6002 207 47.8002C202.2 44.6002 197.3 41.4002 192.2 38.3002C187.6 35.5002 183.1 32.9002 178.7 30.3002C156.8 42.8002 130.4 59.9002 109.5 80.4002C88.3 101.2 72.5 125.5 72.5 152V219.7C92.3 214.9 111.9 214.4 130.2 218.6C146.9 222.4 162.3 230.2 175.2 241.4V227.2C175.1 227.2 175 227.2 174.9 227.1C172.8 226.2 171 224.6 170 222.6C168.9 220.6 168.6 218.3 169 216C169.4 214.1 170.3 212.4 171.6 211.1L155.6 200L154.7 199L147.5 187C146.2 187.9 144.6 188.4 143 188.6C140.7 188.8 138.4 188.3 136.5 187C134.6 185.7 133.2 183.8 132.5 181.6C131.8 179.4 132 177.1 132.8 174.9C133.1 174.3 133.4 173.6 133.8 173.1L121 165.5L120 164.6L108.9 148.5C107.3 150 105.2 151 103 151.2C100.7 151.4 98.4 150.9 96.5 149.6C94.6 148.3 93.2 146.4 92.5 144.2C91.8 142 91.9 139.7 92.8 137.5C93.7 135.4 95.3 133.6 97.3 132.6C99.3 131.5 101.7 131.2 103.9 131.6C105.8 132 107.5 132.9 108.8 134.2L119.9 118.1L120.9 117.2L133.7 109.6C133.1 108.8 132.7 107.8 132.4 106.9C131.7 104.7 131.8 102.3 132.7 100.2C133.6 98.1002 135.2 96.3002 137.2 95.2002C139.2 94.1002 141.6 93.8002 143.8 94.2002C145.1 94.4002 146.3 94.9002 147.3 95.6002L154.4 83.6002L155.3 82.6002L171.4 71.5002C170.8 70.8002 170.2 70.1002 169.8 69.3002C168.7 67.3002 168.4 64.9002 168.8 62.7002C169.2 60.5002 170.5 58.4002 172.2 57.0002C173.9 55.6002 176.2 54.8002 178.5 54.7002C179.8 54.7002 181.1 55.0002 182.3 55.5002C183.5 56.0002 184.6 56.7002 185.5 57.6002C187.1 59.2002 188.1 61.4002 188.4 63.6002C188.6 65.9002 188.1 68.2002 186.8 70.1002C186.5 70.6002 186.1 71.1002 185.7 71.5002L201.8 82.6002L202.7 83.6002L209.8 95.6002C210 95.4002 210.3 95.3002 210.5 95.2002C212.5 94.1002 214.9 93.8002 217.1 94.2002C219.3 94.6002 221.4 95.9002 222.8 97.6002C224.3 99.4002 225.1 101.6 225.1 103.9C225.1 105.2 224.8 106.5 224.4 107.7C224.1 108.3 223.8 109 223.4 109.5L236.2 117.2L237.2 118.1L248.3 134.1C249 133.5 249.7 132.9 250.5 132.5C252.5 131.4 254.9 131.1 257.1 131.5C259.3 131.9 261.4 133.2 262.8 134.9C264.3 136.7 265 138.9 265.1 141.2C265.1 142.5 264.8 143.8 264.3 145C263.8 146.2 263.1 147.3 262.2 148.2C260.6 149.8 258.4 150.8 256.2 151.1C253.9 151.3 251.6 150.8 249.7 149.5C249.2 149.2 248.8 148.8 248.3 148.4L237.2 164.4L236.2 165.3L223.4 173C224.5 174.6 225.1 176.6 225.1 178.6C225.1 179.9 224.8 181.2 224.3 182.4C223.8 183.6 223.1 184.7 222.2 185.6C220.6 187.2 218.4 188.2 216.2 188.5C214 188.7 211.7 188.2 209.8 186.9L202.7 198.9L201.8 199.9L185.8 211C187.3 212.6 188.3 214.7 188.5 216.9C188.7 219.2 188.1 221.5 186.9 223.4C185.7 225.1 184.1 226.4 182.1 227.2V241.4C195 230.2 210.4 222.4 227.1 218.6C246.4 214.2 267.1 215 287.9 220.5C288.7 219.3 289.7 218.4 290.9 217.6C292.1 216.9 293.4 216.4 294.8 216.2C296.2 216 297.6 216.1 298.9 216.5C300.2 216.9 301.5 217.5 302.6 218.4C303.7 219.3 304.5 220.4 305.2 221.6C305.8 222.8 306.2 224.2 306.2 225.6C306.2 227 306 228.4 305.5 229.7C305 231 304.2 232.2 303.2 233.2H303.1ZM179 208L197.6 195.2L205.7 181.6C205 179.4 205.2 177.1 206 174.9C206.2 174.5 206.3 174.2 206.5 173.8L185.7 152.9C183.9 154 181.9 154.7 179.9 154.9C176.9 155.2 173.9 154.5 171.4 152.9L150.5 173.8C151.3 175.3 151.8 176.9 151.8 178.7C151.8 179.7 151.7 180.6 151.4 181.6L159.5 195.2L178.1 208C178.3 208 178.4 208 178.6 208C178.8 208 179 208 179.2 208H179ZM245.1 140.8C245.1 141.2 245.1 141.5 245.1 141.9L232.3 160.4L217.7 169.1C217.5 169.1 217.3 169 217 168.9C215 168.5 213 168.7 211.1 169.5L190 148.4C190.4 147.8 190.7 147.1 191 146.4C191.7 144.7 192 143 192 141.2C192 138.7 191.3 136.2 190 134L211.1 112.9C212.6 113.6 214.3 113.8 216 113.7C216.6 113.7 217.1 113.5 217.7 113.4L232.3 122.1L245.1 140.6V140.8ZM177.9 74.6002C178.2 74.6002 178.6 74.6002 178.9 74.6002L197.5 87.4002L205.6 101C205 102.9 205 104.9 205.6 106.8C205.8 107.5 206.1 108.2 206.5 108.8L185.7 129.7C184.3 128.8 182.8 128.2 181.2 127.9C178.1 127.3 174.9 127.8 172.1 129.2C171.9 129.3 171.6 129.5 171.4 129.6L150.5 108.7C150.7 108.4 150.9 108 151 107.7C151.5 106.5 151.8 105.2 151.8 103.9C151.8 102.9 151.7 101.9 151.4 101L159.5 87.4002L178.1 74.6002H177.9ZM111.8 141.8C111.8 141.6 111.8 141.5 111.8 141.3C111.8 141.1 111.8 141 111.8 140.8L124.7 122.2L139.3 113.5C140.4 113.8 141.6 113.9 142.8 113.8C143.8 113.7 144.8 113.4 145.8 113L158.9 126.1L166.9 134.1C166.5 134.7 166.2 135.4 165.9 136.1C164.7 139 164.5 142.3 165.4 145.3C165.7 146.4 166.2 147.5 166.9 148.5L145.8 169.6C145.2 169.3 144.5 169.1 143.8 169C142.3 168.7 140.7 168.8 139.3 169.2L124.7 160.5L111.9 141.9L111.8 141.8ZM217.4 181.5C216.8 182 215.9 182.3 215.1 182.3C214.6 182.3 214.2 182.3 213.7 182C213.3 181.8 212.9 181.5 212.5 181.2C211.9 180.6 211.5 179.8 211.5 179C211.5 178.2 211.6 177.3 212.1 176.6C212.6 175.9 213.3 175.4 214.1 175.1C214.9 174.9 215.8 174.9 216.5 175.2C217.3 175.5 217.9 176.1 218.3 176.8C218.7 177.5 218.8 178.4 218.7 179.2C218.5 180 218.1 180.8 217.4 181.3V181.5ZM144.1 181.5C143.5 182 142.6 182.3 141.8 182.3C141.3 182.3 140.9 182.3 140.4 182C140 181.8 139.6 181.5 139.2 181.2C138.6 180.6 138.2 179.8 138.2 179C138.2 178.2 138.3 177.3 138.8 176.6C139.3 175.9 140 175.4 140.8 175.1C141.6 174.9 142.5 174.9 143.2 175.2C144 175.5 144.6 176.1 145 176.8C145.4 177.5 145.5 178.4 145.4 179.2C145.2 180 144.8 180.8 144.1 181.3V181.5ZM144.1 106.8C143.5 107.3 142.6 107.6 141.8 107.6C141.3 107.6 140.9 107.6 140.4 107.3C140 107.1 139.6 106.9 139.2 106.5C138.6 105.9 138.2 105.1 138.2 104.3C138.2 103.5 138.3 102.6 138.8 101.9C139.3 101.2 140 100.7 140.8 100.4C141.6 100.2 142.5 100.2 143.2 100.5C144 100.8 144.6 101.4 145 102.1C145.4 102.8 145.5 103.7 145.4 104.5C145.2 105.3 144.8 106.1 144.1 106.6V106.8ZM217.4 106.8C216.8 107.3 215.9 107.6 215.1 107.6C214.6 107.6 214.2 107.6 213.7 107.3C213.3 107.1 212.9 106.9 212.5 106.5C211.9 105.9 211.5 105.1 211.5 104.3C211.5 103.5 211.6 102.6 212.1 101.9C212.6 101.2 213.3 100.7 214.1 100.4C214.9 100.2 215.8 100.2 216.5 100.5C217.3 100.8 217.9 101.4 218.3 102.1C218.7 102.8 218.8 103.7 218.7 104.5C218.5 105.3 218.1 106.1 217.4 106.6V106.8ZM178.4 148.7C180.1 148.7 181.8 148.1 183.1 147C184.4 145.9 185.3 144.4 185.7 142.7C186 141 185.7 139.3 185 137.8C184.2 136.3 182.9 135.1 181.3 134.4C179.7 133.7 178 133.7 176.3 134.2C174.6 134.7 173.2 135.7 172.3 137.2C171.3 138.6 170.9 140.3 171.1 142C171.3 143.7 172 145.3 173.2 146.5C173.9 147.2 174.7 147.7 175.6 148.1C176.5 148.5 177.5 148.7 178.4 148.7ZM181.3 215.6C181.8 216.2 182.1 217.1 182.1 217.9C182.1 218.7 181.7 219.8 181 220.5C180.4 221.1 179.6 221.5 178.8 221.5C178 221.5 177.1 221.4 176.4 220.9C175.7 220.4 175.2 219.7 174.9 218.9C174.7 218.1 174.7 217.2 175 216.5C175.3 215.7 175.9 215.1 176.6 214.7C177.3 214.3 178.2 214.2 179 214.3C179.8 214.5 180.6 214.9 181.1 215.6H181.3ZM104.2 144.1C103.6 144.6 102.7 144.9 101.9 144.9C101.4 144.9 100.9 144.9 100.5 144.6C100.1 144.4 99.7 144.1 99.3 143.8C98.7 143.2 98.3 142.4 98.3 141.6C98.3 140.8 98.4 139.9 98.9 139.2C99.4 138.5 100.1 138 100.9 137.7C101.7 137.5 102.6 137.5 103.3 137.8C104.1 138.1 104.7 138.7 105.1 139.4C105.5 140.1 105.6 141 105.5 141.8C105.3 142.6 104.9 143.4 104.2 143.9V144.1ZM181.3 62.4002C181.8 63.0002 182.1 63.9002 182.1 64.7002C182.1 65.5002 181.7 66.6002 181 67.3002C180.4 67.9002 179.6 68.3002 178.8 68.3002C178 68.3002 177.1 68.2002 176.4 67.7002C175.7 67.2002 175.2 66.5002 174.9 65.7002C174.7 64.9002 174.7 64.0002 175 63.3002C175.3 62.5002 175.9 61.9002 176.6 61.5002C177.3 61.1002 178.2 61.0002 179 61.1002C179.8 61.3002 180.6 61.7002 181.1 62.4002H181.3ZM257.3 144.1C256.7 144.6 255.8 144.9 255 144.9C254.5 144.9 254 144.9 253.6 144.6C253.2 144.4 252.8 144.1 252.4 143.8C251.8 143.2 251.4 142.4 251.4 141.6C251.4 140.8 251.5 139.9 252 139.2C252.5 138.5 253.2 138 254 137.7C254.8 137.5 255.7 137.5 256.4 137.8C257.2 138.1 257.8 138.7 258.2 139.4C258.6 140.1 258.7 141 258.6 141.8C258.4 142.6 258 143.4 257.3 143.9V144.1Z" fill="#333333" stroke="#1B1B1B" stroke-miterlimit="10"/>
<defs>
<linearGradient id="paint0_linear_1619_84" x1="252.4" y1="138.1" x2="42.6" y2="149.9" gradientUnits="userSpaceOnUse">
<stop stop-color="#43C5D1" stop-opacity="0"/>
<stop offset="1" stop-color="#43C5D1"/>
</linearGradient>
</defs>
</svg>
