<svg width="150" height="56" viewBox="0 0 150 56" fill="none" xmlns="http://www.w3.org/2000/svg">
<rect x="0.5" y="0.5" width="149" height="55" rx="15.5" stroke="#E5E5E5"/>
<mask id="mask0_183_586" style="mask-type:luminance" maskUnits="userSpaceOnUse" x="17" y="7" width="40" height="42">
<path d="M56.7534 7H17.834V49H56.7534V7Z" fill="white"/>
</mask>
<g mask="url(#mask0_183_586)">
<path fill-rule="evenodd" clip-rule="evenodd" d="M36.1984 39.1685C35.9234 39.1685 35.6992 38.9423 35.6992 38.6646C35.6992 38.3869 35.9234 38.1606 36.1984 38.1606H39.2292C39.5042 38.1606 39.7284 38.3869 39.7284 38.6646C39.7284 38.9423 39.5042 39.1685 39.2292 39.1685H36.1984Z" fill="#01AFBA"/>
<path fill-rule="evenodd" clip-rule="evenodd" d="M40.8288 37.4307C41.1046 37.4307 41.3288 37.2044 41.3288 36.9268C41.3288 36.6491 41.1046 36.4229 40.8288 36.4229H34.6055C34.3305 36.4229 34.1055 36.6491 34.1055 36.9268C34.1055 37.2044 34.3305 37.4307 34.6055 37.4307H40.8288Z" fill="#01AFBA"/>
<path fill-rule="evenodd" clip-rule="evenodd" d="M50.2958 42.6853C50.4291 42.6853 50.5408 42.6338 50.6225 42.5516C50.7041 42.4693 50.755 42.3458 50.755 42.2224C50.755 42.0888 50.7041 41.9756 50.6225 41.8934C50.5408 41.8111 50.4183 41.7597 50.2958 41.7597C50.1633 41.7597 50.0516 41.8111 49.97 41.8934C49.8883 41.9756 49.8375 42.099 49.8375 42.2224C49.8375 42.3562 49.8883 42.4693 49.97 42.5516C50.0516 42.6338 50.1633 42.6853 50.2958 42.6853ZM51.3466 43.2714C51.0816 43.5388 50.7041 43.7137 50.2958 43.7137C49.8883 43.7137 49.5108 43.5491 49.245 43.2714C48.98 43.0041 48.8066 42.6235 48.8066 42.2122C48.8066 41.8008 48.97 41.4203 49.245 41.153C49.5108 40.8856 49.8883 40.7107 50.2958 40.7107C50.7041 40.7107 51.0816 40.8752 51.3466 41.153C51.6125 41.4203 51.7858 41.8008 51.7858 42.2122C51.7758 42.6235 51.6125 43.0041 51.3466 43.2714Z" fill="#01AFBA"/>
<path fill-rule="evenodd" clip-rule="evenodd" d="M55.2146 41.0193C55.3471 41.0193 55.4596 40.9678 55.5413 40.8855C55.6229 40.8033 55.6738 40.6798 55.6738 40.5564C55.6738 40.4228 55.6229 40.3096 55.5413 40.2274C55.4596 40.1451 55.3371 40.0937 55.2146 40.0937C55.0821 40.0937 54.9696 40.1451 54.888 40.2274C54.8063 40.3096 54.7555 40.433 54.7555 40.5564C54.7555 40.6902 54.8063 40.8033 54.888 40.8855C54.9696 40.9575 55.0821 41.0193 55.2146 41.0193ZM56.2655 41.6054C56.0005 41.8728 55.623 42.0477 55.2146 42.0477C54.8063 42.0477 54.4288 41.8831 54.1638 41.6054C53.8979 41.338 53.7246 40.9575 53.7246 40.5462C53.7246 40.1348 53.8879 39.7543 54.1638 39.4869C54.4288 39.2196 54.8063 39.0447 55.2146 39.0447C55.623 39.0447 56.0005 39.2092 56.2655 39.4869C56.5305 39.7543 56.7038 40.1348 56.7038 40.5462C56.7038 40.9575 56.5305 41.338 56.2655 41.6054Z" fill="#F07168"/>
<path fill-rule="evenodd" clip-rule="evenodd" d="M45.531 16.3278C45.6635 16.3278 45.776 16.2764 45.8568 16.1941C45.9385 16.1118 45.9902 15.9884 45.9902 15.8651C45.9902 15.7313 45.9385 15.6182 45.8568 15.5359C45.776 15.4537 45.6535 15.4022 45.531 15.4022C45.3985 15.4022 45.286 15.4537 45.2043 15.5359C45.1227 15.6182 45.0718 15.7417 45.0718 15.8651C45.0718 15.9987 45.1227 16.1118 45.2043 16.1941C45.286 16.2764 45.4085 16.3278 45.531 16.3278ZM46.5818 16.914C46.316 17.1814 45.9385 17.3562 45.531 17.3562C45.1227 17.3562 44.7452 17.1917 44.4802 16.914C44.2143 16.6466 44.041 16.2661 44.041 15.8547C44.041 15.4434 44.2043 15.0629 44.4802 14.7955C44.7452 14.5281 45.1227 14.3533 45.531 14.3533C45.9385 14.3533 46.316 14.5178 46.5818 14.7955C46.8468 15.0629 47.0202 15.4434 47.0202 15.8547C47.0202 16.2661 46.8568 16.6466 46.5818 16.914Z" fill="#F07168"/>
<path fill-rule="evenodd" clip-rule="evenodd" d="M44.7791 12.1013C44.5133 12.3686 44.1358 12.5435 43.7283 12.5435C43.3199 12.5435 42.9424 12.3789 42.6774 12.1013C42.4116 11.8339 42.2383 11.4534 42.2383 11.042C42.2383 10.6306 42.4016 10.2501 42.6774 9.98274C42.9424 9.71536 43.3199 9.54053 43.7283 9.54053C44.1358 9.54053 44.5133 9.70507 44.7791 9.98274C45.0441 10.2501 45.2174 10.6306 45.2174 11.042C45.2174 11.4534 45.0541 11.8236 44.7791 12.1013Z" fill="#01AFBA"/>
<path fill-rule="evenodd" clip-rule="evenodd" d="M49.1357 42.6239C46.8599 42.5622 44.779 43.0352 42.9424 44.0019C41.0757 44.9789 39.4532 46.4598 38.1274 48.3829L37.709 48.9898L37.2907 48.3829C35.3007 45.4932 32.6382 43.6009 29.4757 42.9118C26.4149 42.2434 22.864 42.6959 18.9974 44.4339L18.2832 44.7527V29.4295C18.2832 25.7066 19.7832 21.809 23.1907 17.8702C26.2824 14.3119 30.934 10.7022 37.474 7.13369L37.719 7L37.964 7.13369C39.0557 7.73017 40.0957 8.32664 41.0857 8.93339C42.0857 9.54016 43.0449 10.1469 43.9424 10.7537L43.3815 11.6072C42.494 11.0108 41.5549 10.4143 40.5757 9.80754C39.6774 9.26249 38.729 8.71743 37.729 8.17238C31.414 11.6381 26.9349 15.1244 23.9657 18.549C20.7315 22.282 19.314 25.9432 19.314 29.4295V43.1998C23.119 41.6263 26.629 41.2459 29.6999 41.9143C32.9032 42.6137 35.6274 44.4339 37.719 47.2209C39.0557 45.4314 40.6574 44.0431 42.4832 43.0867C44.4732 42.048 46.7174 41.5338 49.1657 41.5955L49.1357 42.6239Z" fill="#01AFBA"/>
<path fill-rule="evenodd" clip-rule="evenodd" d="M44.5029 15.6386C44.0645 15.2992 43.6254 14.9702 43.197 14.6719C42.7579 14.3634 42.3395 14.0652 41.922 13.7875C41.2079 13.3041 40.4729 12.8311 39.7279 12.3683C39.0545 11.9466 38.3812 11.5558 37.7179 11.1753C34.4537 13.047 30.5354 15.6078 27.4137 18.6929C24.2612 21.809 21.9145 25.4496 21.9145 29.4295V39.5901C24.8529 38.8702 27.7712 38.788 30.5054 39.4153C33.127 40.0221 35.5862 41.287 37.7179 43.3027C39.8504 41.287 42.2995 40.0221 44.9312 39.4153C47.8595 38.7365 51.012 38.8908 54.1645 39.7547L53.8995 40.7419C50.8995 39.9192 47.9204 39.7753 45.1562 40.4128C42.5645 41.0093 40.1462 42.3051 38.0754 44.3722L37.7179 44.7322L37.3612 44.3722C35.2904 42.2948 32.872 41.0093 30.2804 40.4128C27.5162 39.7753 24.537 39.9192 21.537 40.7419L20.8945 40.9167V29.4295C20.8945 25.1308 23.3637 21.2537 26.6995 17.9628C29.9745 14.7233 34.0962 12.0598 37.4737 10.1367L37.7179 9.99268L37.9629 10.1367C38.7487 10.5892 39.5137 11.0314 40.2487 11.4839C40.9929 11.9466 41.7379 12.43 42.4829 12.9236C42.9112 13.2116 43.3504 13.5098 43.7787 13.8286C44.227 14.1474 44.6662 14.4765 45.1154 14.8159L44.5029 15.6386Z" fill="#F07168"/>
<path fill-rule="evenodd" clip-rule="evenodd" d="M36.902 18.9086C36.902 19.073 36.8612 19.1759 36.7695 19.289C36.6979 19.3713 36.5754 19.4227 36.4629 19.4433C36.3562 19.4623 35.1845 19.4579 34.1695 19.4541C33.5345 19.4518 32.9612 19.4496 32.7495 19.4535C32.0862 19.4639 31.4845 20.2248 31.4845 20.9859C31.4845 21.4075 31.5862 21.8189 31.862 22.1274C32.107 22.3948 32.3412 22.5388 32.8412 22.5388H34.2387C34.3037 22.5388 34.3645 22.537 34.422 22.5354C34.7079 22.5274 34.907 22.5217 35.0854 22.7445C35.3204 23.0324 35.1262 23.5569 34.6879 23.5569C33.8304 23.5501 32.9637 23.5523 32.0995 23.5546C31.6687 23.5558 31.2387 23.5569 30.8112 23.5569C30.2087 23.5569 29.862 23.8037 29.5762 24.2767C29.342 24.6573 29.2912 25.2126 29.4237 25.6548C29.5562 26.1176 29.9337 26.5701 30.4337 26.6421C30.4945 26.6524 30.597 26.6627 30.6479 26.6627C30.8454 26.6696 31.0479 26.6672 31.2479 26.6649C31.3479 26.6638 31.447 26.6627 31.5454 26.6627H34.6679C34.8412 26.6627 34.9229 26.6833 35.0145 26.7655C35.1879 26.8992 35.2695 27.146 35.157 27.3928C35.137 27.434 35.0962 27.4854 35.0654 27.5163C34.9212 27.6716 34.7487 27.6711 34.567 27.6706L34.5345 27.6705C34.4762 27.6705 34.3654 27.6699 34.2204 27.6691C33.5312 27.6652 32.0762 27.6571 31.882 27.6911C31.6779 27.7322 31.5662 27.7939 31.4129 27.8967C31.382 27.9173 31.3645 27.9328 31.3462 27.9482C31.3287 27.9636 31.3112 27.979 31.2804 27.9996C31.1579 28.0922 30.9745 28.3801 30.9129 28.5241C30.6679 29.0794 30.6987 29.7067 31.0354 30.2209C31.1887 30.4678 31.4437 30.6632 31.7295 30.7352C31.8904 30.7757 32.1337 30.7715 32.3395 30.7678C32.3945 30.7669 32.447 30.766 32.4945 30.766H34.0962C34.1679 30.766 34.2387 30.7639 34.3062 30.7618C34.6304 30.7519 34.8979 30.7436 35.0754 30.982C35.3204 31.3213 35.0654 31.7944 34.6779 31.7944H31.9945C31.2704 31.7944 30.7295 31.4447 30.2904 30.9203C30.2395 30.8586 30.1579 30.7454 30.117 30.6632C30.0562 30.5604 30.0154 30.4884 29.9745 30.3752C29.7904 29.9535 29.7087 29.4908 29.7704 28.9149C29.8354 28.3423 30.087 27.9323 30.1979 27.7523C30.2262 27.706 30.2454 27.675 30.2495 27.6603C30.1379 27.6603 29.9129 27.5883 29.8212 27.5471C29.5562 27.4443 29.2195 27.2283 29.0254 27.002C29.0104 26.9867 29.0029 26.9763 28.9945 26.9661C28.987 26.9557 28.9795 26.9455 28.9645 26.93C28.5154 26.4467 28.332 25.7782 28.332 25.0995C28.332 24.7292 28.4437 24.3179 28.5562 24.0608C28.7804 23.526 29.2604 22.981 29.7904 22.765C30.2195 22.5902 30.4029 22.5799 30.882 22.5799C30.872 22.549 30.8312 22.477 30.8004 22.4256C30.3929 21.6852 30.342 20.8419 30.6479 20.0398C30.9945 19.145 31.8004 18.4663 32.7904 18.4663H36.392C36.667 18.4251 36.902 18.6514 36.902 18.9086ZM37.3504 23.0221C37.3504 23.8037 37.147 24.2973 36.7079 24.8526C36.6362 24.9452 36.5245 25.0584 36.4329 25.1201C36.4579 25.1561 36.4887 25.1818 36.5195 25.2075C36.5495 25.2332 36.5804 25.2589 36.6062 25.2949C36.6329 25.3277 36.6579 25.3578 36.6812 25.3863C36.8287 25.5638 36.9229 25.6769 37.0545 25.9428C37.5245 26.9198 37.422 27.9996 36.7795 28.8737C36.7579 28.9104 36.7462 28.9209 36.7262 28.939C36.7187 28.9461 36.7095 28.9545 36.6979 28.9663C36.6679 28.9964 36.6545 29.0155 36.637 29.0397C36.6312 29.0486 36.6245 29.0581 36.6162 29.0691C36.5929 29.0925 36.5687 29.1129 36.5437 29.133C36.5037 29.1664 36.4645 29.1992 36.4329 29.244C36.5545 29.3056 36.6979 29.4908 36.7795 29.6039C36.8812 29.7376 36.9729 29.8919 37.0545 30.0461C37.2895 30.5192 37.3404 30.8483 37.3404 31.4242C37.3404 31.7944 37.2387 32.1132 37.1262 32.3806C37.0654 32.5246 37.0037 32.6377 36.922 32.7611C36.8404 32.9051 36.6362 33.1519 36.5137 33.2445C36.4779 33.2755 36.452 33.2988 36.4295 33.319C36.3712 33.3725 36.3354 33.4045 36.1879 33.5015C35.8612 33.7073 35.4629 33.8204 35.0245 33.8204H33.2904C33.0862 33.8204 32.9129 33.6969 32.8212 33.5119C32.7087 33.265 32.8104 32.9976 33.0354 32.864C33.1729 32.7859 33.3537 32.7883 33.5545 32.791C33.5912 32.7915 33.6295 32.792 33.6679 32.792H35.0654C35.3104 32.792 35.4529 32.7508 35.6262 32.6686C35.8612 32.5451 36.0145 32.3601 36.147 32.1338C36.4837 31.5579 36.412 30.7763 36.0245 30.2518C35.8812 30.0564 35.6979 29.8919 35.4737 29.7993C35.2487 29.7067 35.0754 29.7068 34.7695 29.7068H33.1679C33.112 29.7068 33.0495 29.7085 32.9837 29.7104C32.7762 29.7162 32.5395 29.7229 32.392 29.6759C31.9737 29.5422 31.9229 28.9765 32.2904 28.7503C32.452 28.6527 32.8237 28.6645 33.1137 28.6736C33.1904 28.6761 33.2612 28.6783 33.3204 28.6783H35.0962C35.7895 28.6783 36.2179 28.1024 36.3304 27.4854C36.392 27.1563 36.3512 26.8169 36.2287 26.5187C36.0754 26.1279 35.7695 25.7577 35.3512 25.6343C35.0979 25.5546 34.4787 25.5675 34.0029 25.5774C33.8645 25.5802 33.7387 25.5829 33.637 25.5829H31.862C31.7962 25.5829 31.7237 25.5858 31.647 25.5889C31.1937 25.6075 30.617 25.631 30.617 25.0584C30.617 24.791 30.852 24.5647 31.107 24.5647H34.5654C34.6129 24.5647 34.6512 24.5684 34.687 24.5718C34.737 24.5766 34.782 24.581 34.8412 24.575C35.3712 24.575 35.7287 24.5236 36.0654 24.0505C36.2487 23.7832 36.3304 23.526 36.3612 23.1867C36.412 22.5696 36.1162 21.9423 35.6162 21.6441C35.3362 21.4786 35.0929 21.479 34.687 21.4795L34.6162 21.4795H33.4537C33.1879 21.4795 32.9945 21.4795 32.8512 21.2122C32.6579 20.8522 32.9537 20.4717 33.2695 20.4717H35.0962C35.4429 20.4717 35.8104 20.6054 36.0345 20.7185C36.8304 21.1504 37.3504 22.1069 37.3504 23.0221ZM38.5345 18.9086C38.5345 19.073 38.5754 19.1759 38.667 19.289C38.7379 19.3713 38.8604 19.4227 38.9729 19.4433C39.0795 19.4623 40.2512 19.4579 41.2662 19.4541C41.9012 19.4518 42.4745 19.4496 42.6862 19.4535C43.3495 19.4639 43.952 20.2248 43.952 20.9859C43.952 21.4075 43.8495 21.8189 43.5745 22.1274C43.3295 22.3948 43.0945 22.5388 42.5945 22.5388H41.197C41.132 22.5388 41.0712 22.5371 41.0145 22.5354C40.7287 22.5274 40.5287 22.5217 40.3504 22.7445C40.1154 23.0324 40.3095 23.5569 40.7479 23.5569C41.6062 23.5501 42.4729 23.5523 43.3362 23.5546C43.767 23.5558 44.197 23.5569 44.6254 23.5569C45.227 23.5569 45.5737 23.8037 45.8595 24.2767C46.0945 24.6573 46.1454 25.2126 46.0129 25.6548C45.8795 26.1176 45.502 26.5701 45.0029 26.6421C44.9412 26.6524 44.8395 26.6627 44.7879 26.6627C44.5904 26.6696 44.3887 26.6672 44.1879 26.6649C44.0879 26.6638 43.9887 26.6627 43.8904 26.6627H40.7687C40.5954 26.6627 40.5137 26.6833 40.422 26.7655C40.2479 26.8992 40.1662 27.146 40.2787 27.3928C40.2995 27.434 40.3404 27.4854 40.3704 27.5163C40.5154 27.6716 40.687 27.6711 40.8687 27.6706L40.9012 27.6705C40.9595 27.6705 41.0712 27.6699 41.2162 27.6691C41.9062 27.6652 43.3595 27.6571 43.5537 27.6911C43.7579 27.7322 43.8704 27.7939 44.0229 27.8967C44.0537 27.9173 44.0712 27.9328 44.0895 27.9482C44.107 27.9636 44.1254 27.979 44.1554 27.9996C44.2779 28.0922 44.462 28.3801 44.5229 28.5241C44.7679 29.0794 44.737 29.7067 44.4004 30.2209C44.2479 30.4678 43.9929 30.6632 43.707 30.7352C43.5454 30.7757 43.302 30.7715 43.0962 30.7678C43.0412 30.7669 42.9887 30.766 42.942 30.766H41.3504C41.2779 30.766 41.2079 30.7639 41.1404 30.7618C40.8162 30.7519 40.5479 30.7436 40.3704 30.982C40.1254 31.3213 40.3812 31.7944 40.7687 31.7944H43.452C44.1762 31.7944 44.717 31.4447 45.1554 30.9203C45.2062 30.8586 45.2879 30.7454 45.3287 30.6632C45.3904 30.5604 45.4312 30.4884 45.472 30.3752C45.6554 29.9535 45.737 29.4908 45.6762 28.9149C45.6112 28.3423 45.3587 27.9323 45.2479 27.7523C45.2195 27.706 45.2004 27.675 45.1962 27.6603C45.3087 27.6603 45.5329 27.5883 45.6245 27.5471C45.8904 27.4443 46.227 27.2283 46.4204 27.002C46.4362 26.9867 46.4437 26.9763 46.4512 26.9661C46.4587 26.9557 46.4662 26.9455 46.482 26.93C46.9304 26.4467 47.1145 25.7782 47.1145 25.0995C47.1145 24.7292 47.002 24.3179 46.8904 24.0608C46.6654 23.526 46.1862 22.981 45.6554 22.765C45.227 22.5902 45.0437 22.5799 44.5637 22.5799C44.5737 22.549 44.6145 22.477 44.6454 22.4256C45.0537 21.6852 45.1045 20.8419 44.7987 20.0398C44.4512 19.145 43.6454 18.4663 42.6562 18.4663H39.0545C38.7687 18.4251 38.5345 18.6514 38.5345 18.9086ZM38.0854 23.0221C38.0854 23.8037 38.2895 24.2973 38.7279 24.8526C38.7995 24.9452 38.912 25.0584 39.0037 25.1201C38.9779 25.1561 38.947 25.1818 38.917 25.2075C38.8862 25.2332 38.8554 25.2589 38.8304 25.2949C38.8029 25.3277 38.7779 25.3578 38.7545 25.3863C38.607 25.5638 38.5129 25.6769 38.3812 25.9428C37.912 26.9198 38.0137 27.9996 38.657 28.8737C38.6787 28.9104 38.6895 28.9209 38.7095 28.939C38.717 28.9461 38.7262 28.9545 38.7379 28.9663C38.7679 28.9964 38.7812 29.0155 38.7987 29.0397C38.8045 29.0486 38.812 29.0581 38.8195 29.0691C38.8429 29.0925 38.8679 29.1129 38.892 29.133C38.932 29.1664 38.972 29.1992 39.0037 29.244C38.8812 29.3056 38.7379 29.4908 38.657 29.6039C38.5545 29.7376 38.4629 29.8919 38.3812 30.0461C38.1462 30.5192 38.0954 30.8483 38.0954 31.4242C38.0954 31.7944 38.1979 32.1132 38.3095 32.3806C38.3712 32.5246 38.432 32.6377 38.5137 32.7611C38.5954 32.9051 38.7995 33.1519 38.922 33.2445C38.9579 33.2755 38.9837 33.2988 39.0062 33.319C39.0654 33.3725 39.1004 33.4045 39.2487 33.5015C39.5745 33.7073 39.9729 33.8204 40.4112 33.8204H42.1662C42.3704 33.8204 42.5437 33.6969 42.6354 33.5119C42.7479 33.265 42.6454 32.9976 42.4212 32.864C42.2837 32.7859 42.102 32.7883 41.902 32.791C41.8645 32.7915 41.827 32.792 41.7887 32.792H40.3912C40.1462 32.792 40.0037 32.7508 39.8295 32.6686C39.5954 32.5451 39.442 32.3601 39.3095 32.1338C38.9729 31.5579 39.0445 30.7763 39.432 30.2518C39.5745 30.0564 39.7587 29.8919 39.9829 29.7993C40.207 29.7067 40.3812 29.7068 40.687 29.7068H42.2887C42.3445 29.7068 42.407 29.7085 42.472 29.7104C42.6804 29.7162 42.9162 29.7229 43.0637 29.6759C43.482 29.5422 43.5337 28.9766 43.1662 28.7503C43.0045 28.6527 42.6329 28.6645 42.3429 28.6737C42.2662 28.6761 42.1954 28.6783 42.1354 28.6783H40.3604C39.667 28.6783 39.2379 28.1024 39.1262 27.4854C39.0645 27.1563 39.1054 26.8169 39.2279 26.5187C39.3812 26.1279 39.687 25.7577 40.1054 25.6343C40.3579 25.5546 40.9779 25.5675 41.4529 25.5774C41.5912 25.5802 41.7179 25.5829 41.8195 25.5829H43.5945C43.6604 25.5829 43.7329 25.5858 43.8087 25.5889C44.2629 25.6075 44.8395 25.631 44.8395 25.0584C44.8395 24.791 44.6045 24.5647 44.3495 24.5647H40.8912C40.8437 24.5647 40.8054 24.5684 40.7687 24.5718C40.7195 24.5766 40.6745 24.581 40.6154 24.575C40.0854 24.575 39.7279 24.5236 39.3912 24.0505C39.2079 23.7832 39.1262 23.526 39.0954 23.1867C39.0445 22.5696 39.3404 21.9423 39.8404 21.6441C40.1204 21.4786 40.3637 21.479 40.7695 21.4795L40.8395 21.4795H42.0029C42.2679 21.4795 42.462 21.4795 42.6054 21.2122C42.7987 20.8522 42.5029 20.4717 42.187 20.4717H40.3604C40.0137 20.4717 39.6462 20.6054 39.422 20.7185C38.6054 21.1504 38.0854 22.1069 38.0854 23.0221Z" fill="url(#paint0_linear_183_586)"/>
<path fill-rule="evenodd" clip-rule="evenodd" d="M34.4219 16.9658V17.0378C34.4219 17.2743 34.6469 17.5108 34.891 17.5108H40.5535C40.7885 17.5108 41.0227 17.2845 41.0227 17.0378C41.0227 16.8834 40.9927 16.7498 40.8802 16.6367C40.8294 16.5852 40.676 16.4927 40.5744 16.4927H34.9019C34.6569 16.4927 34.4219 16.7292 34.4219 16.9658Z" fill="#F07168"/>
<path d="M38.2251 10.8767H37.2051V16.8929H38.2251V10.8767Z" fill="#F07168"/>
<path fill-rule="evenodd" clip-rule="evenodd" d="M40.5127 35.6819H34.9219C34.6469 35.6819 34.4219 35.4556 34.4219 35.178C34.4219 34.9003 34.6469 34.6741 34.9219 34.6741H40.5127C40.7885 34.6741 41.0127 34.9003 41.0127 35.178C41.0127 35.4556 40.7885 35.6819 40.5127 35.6819Z" fill="#07AEB8"/>
</g>
<path d="M97.4999 20.5941L97.5724 20.3678L98.6134 17.0095H99.4914L97.5724 22.5313L97.4909 22.7304C97.3521 23.0623 97.168 23.3098 96.9387 23.4727C96.7154 23.6356 96.4529 23.7171 96.1512 23.7171L95.6895 23.6537V22.9839L95.9068 23.002C96.1783 23.0261 96.3926 22.9748 96.5495 22.8481C96.7124 22.7274 96.8422 22.5192 96.9387 22.2235L97.1198 21.7347L95.418 17.0095H96.3051L97.4999 20.5941Z" fill="#505050"/>
<path d="M94.9596 19.4536C94.9596 19.9364 94.8812 20.3618 94.7243 20.73C94.5734 21.092 94.3562 21.3757 94.0725 21.5809C93.7949 21.78 93.4721 21.8796 93.1039 21.8796C92.4944 21.8796 92.0268 21.6653 91.7009 21.2369L91.6556 21.7891H90.9043V15H91.728V17.5346C92.0539 17.1242 92.5095 16.919 93.0949 16.919C93.6742 16.919 94.1299 17.1393 94.4618 17.5798C94.7937 18.0143 94.9596 18.6148 94.9596 19.3812V19.4536ZM94.1359 19.354C94.1359 18.7989 94.0273 18.3704 93.81 18.0687C93.5988 17.7669 93.291 17.616 92.8867 17.616C92.3496 17.616 91.9634 17.8665 91.728 18.3674V20.4312C91.9755 20.9321 92.3647 21.1826 92.8958 21.1826C93.294 21.1826 93.5988 21.0317 93.81 20.73C94.0273 20.4222 94.1359 19.9636 94.1359 19.354Z" fill="#505050"/>
<path d="M82.8809 19.354C82.8809 18.8713 82.9593 18.4458 83.1162 18.0777C83.2791 17.7096 83.5024 17.426 83.7861 17.2268C84.0757 17.0216 84.4046 16.919 84.7727 16.919C85.334 16.919 85.7775 17.1091 86.1034 17.4893V15H86.9181V21.7891H86.1668L86.1306 21.2731C85.8047 21.6774 85.3491 21.8796 84.7637 21.8796C84.3956 21.8796 84.0697 21.777 83.7861 21.5718C83.5024 21.3606 83.2791 21.0649 83.1162 20.6847C82.9593 20.2985 82.8809 19.8549 82.8809 19.354ZM83.7046 19.4536C83.7046 19.9967 83.8162 20.4222 84.0395 20.73C84.2628 21.0317 84.5706 21.1826 84.9628 21.1826C85.4758 21.1826 85.856 20.9502 86.1034 20.4856V18.2859C85.856 17.8393 85.4788 17.616 84.9719 17.616C84.5796 17.616 84.2688 17.7669 84.0395 18.0687C83.8162 18.3644 83.7046 18.7808 83.7046 19.3178V19.4536Z" fill="#505050"/>
<path d="M80.2719 21.8795C79.8374 21.8795 79.4542 21.7829 79.1223 21.5898C78.7904 21.3967 78.5309 21.1221 78.3438 20.7661C78.1628 20.41 78.0723 19.9967 78.0723 19.5259V19.3811C78.0723 18.9406 78.1568 18.5332 78.3257 18.1591C78.4947 17.7849 78.7361 17.4862 79.0499 17.2629C79.3697 17.0336 79.7409 16.9189 80.1633 16.9189C80.7849 16.9189 81.2676 17.1271 81.6116 17.5435C81.9616 17.9539 82.1366 18.5362 82.1366 19.2906V19.6346H78.896V19.6617C78.9081 20.1204 79.0469 20.4945 79.3124 20.7842C79.5779 21.0678 79.9098 21.2096 80.3081 21.2096C80.8271 21.2096 81.2495 20.9954 81.5754 20.5669L82.0733 20.9562C81.669 21.5717 81.0685 21.8795 80.2719 21.8795ZM80.1633 17.5888C79.8314 17.5888 79.5538 17.7095 79.3305 17.9509C79.1072 18.1923 78.9714 18.5272 78.9232 18.9557H81.3129V18.9014C81.2888 18.485 81.1771 18.1621 80.978 17.9328C80.7788 17.7035 80.5073 17.5888 80.1633 17.5888Z" fill="#505050"/>
<path d="M77.6181 17.7427C77.5216 17.7185 77.3858 17.7065 77.2108 17.7065C76.6737 17.7065 76.3116 17.9358 76.1245 18.3944V21.789H75.3008V17.0095H76.0974L76.1155 17.5616C76.381 17.1332 76.7612 16.9189 77.256 16.9189C77.419 16.9189 77.5397 16.9401 77.6181 16.9823V17.7427Z" fill="#505050"/>
<path d="M72.4926 21.8795C72.0581 21.8795 71.6749 21.7829 71.343 21.5898C71.0111 21.3967 70.7516 21.1221 70.5645 20.7661C70.3835 20.41 70.293 19.9967 70.293 19.5259V19.3811C70.293 18.9406 70.3775 18.5332 70.5464 18.1591C70.7154 17.7849 70.9568 17.4862 71.2706 17.2629C71.5904 17.0336 71.9616 16.9189 72.384 16.9189C73.0056 16.9189 73.4884 17.1271 73.8323 17.5435C74.1823 17.9539 74.3573 18.5362 74.3573 19.2906V19.6346H71.1167V19.6617C71.1288 20.1204 71.2676 20.4945 71.5331 20.7842C71.7986 21.0678 72.1305 21.2096 72.5288 21.2096C73.0478 21.2096 73.4702 20.9954 73.7961 20.5669L74.294 20.9562C73.8897 21.5717 73.2892 21.8795 72.4926 21.8795ZM72.384 17.5888C72.0521 17.5888 71.7745 17.7095 71.5512 17.9509C71.3279 18.1923 71.1921 18.5272 71.1439 18.9557H73.5336V18.9014C73.5095 18.485 73.3978 18.1621 73.1987 17.9328C72.9995 17.7035 72.728 17.5888 72.384 17.5888Z" fill="#505050"/>
<path d="M64.9685 20.1596L65.0862 20.5851L66.1996 17.0095H66.8604L67.9919 20.6575L68.1096 20.1596L68.9152 17.0095H69.7299L68.3359 21.789H67.6751L66.6431 18.5574L66.5164 18.1682L66.3987 18.5574L65.3849 21.789H64.715L63.3301 17.0095H64.1448L64.9685 20.1596Z" fill="#505050"/>
<path d="M58.377 19.354C58.377 18.8953 58.4645 18.4819 58.6395 18.1138C58.8205 17.7397 59.074 17.447 59.3998 17.2358C59.7317 17.0246 60.115 16.9189 60.5495 16.9189C60.9779 16.9189 61.3581 17.0215 61.69 17.2267C62.0219 17.4319 62.2784 17.7216 62.4594 18.0957C62.6405 18.4638 62.731 18.8953 62.731 19.3902V19.4535C62.731 19.9363 62.6375 20.3618 62.4504 20.7299C62.2633 21.092 62.0038 21.3756 61.6719 21.5808C61.346 21.7799 60.9749 21.8795 60.5585 21.8795C60.13 21.8795 59.7499 21.7769 59.4179 21.5717C59.0921 21.3665 58.8356 21.0769 58.6485 20.7027C58.4675 20.3286 58.377 19.8971 58.377 19.4083V19.354ZM59.2007 19.4535C59.1947 19.9846 59.3154 20.41 59.5628 20.7299C59.8162 21.0497 60.1481 21.2096 60.5585 21.2096C60.9689 21.2096 61.2947 21.0527 61.5361 20.7389C61.7836 20.4251 61.9103 19.9876 61.9163 19.4264V19.354C61.9223 18.8289 61.7986 18.4035 61.5452 18.0776C61.2978 17.7517 60.9658 17.5888 60.5495 17.5888C60.1512 17.5888 59.8283 17.7457 59.5809 18.0595C59.3335 18.3733 59.2067 18.8138 59.2007 19.3811V19.4535Z" fill="#505050"/>
<path d="M53.9141 19.2721V21.7886H53.0723V15.3525H55.4439C55.9086 15.3525 56.3099 15.434 56.6478 15.5969C56.9858 15.7599 57.2453 15.9892 57.4263 16.2849C57.6074 16.5806 57.6979 16.9246 57.6979 17.3168C57.6979 17.9444 57.5017 18.4272 57.1095 18.7652C56.7172 19.1031 56.159 19.2721 55.4349 19.2721H53.9141ZM53.9141 18.5751H55.4439C55.8965 18.5751 56.2435 18.4695 56.4849 18.2583C56.7263 18.041 56.847 17.7302 56.847 17.3259C56.847 16.9457 56.7263 16.641 56.4849 16.4116C56.2435 16.1823 55.9116 16.0616 55.4892 16.0495H53.9141V18.5751Z" fill="#505050"/>
<path d="M132.499 30.3226C132.368 30.2853 132.135 30.2666 131.799 30.2666C131.033 30.2666 130.529 30.5466 130.287 31.1066V36.0066H128.383V28.6146H130.189L130.231 29.5246C130.641 28.8246 131.201 28.4746 131.911 28.4746C132.153 28.4746 132.359 28.5026 132.527 28.5586L132.499 30.3226Z" fill="#01AFBA"/>
<path d="M126.735 36.0068H124.831V28.6148H126.735V36.0068ZM124.719 26.6828C124.719 26.4028 124.812 26.1741 124.999 25.9968C125.195 25.8101 125.456 25.7168 125.783 25.7168C126.1 25.7168 126.357 25.8101 126.553 25.9968C126.749 26.1741 126.847 26.4028 126.847 26.6828C126.847 26.9628 126.749 27.1961 126.553 27.3828C126.357 27.5601 126.1 27.6488 125.783 27.6488C125.456 27.6488 125.195 27.5601 124.999 27.3828C124.812 27.1961 124.719 26.9628 124.719 26.6828Z" fill="#01AFBA"/>
<path d="M121.545 36.0066C121.19 36.0066 120.891 35.8853 120.649 35.6426C120.415 35.4 120.299 35.1013 120.299 34.7466C120.299 34.392 120.415 34.098 120.649 33.8646C120.891 33.6313 121.19 33.5146 121.545 33.5146C121.899 33.5146 122.193 33.636 122.427 33.8786C122.669 34.112 122.791 34.4013 122.791 34.7466C122.791 35.1013 122.669 35.4 122.427 35.6426C122.193 35.8853 121.899 36.0066 121.545 36.0066Z" fill="#01AFBA"/>
<path d="M120.03 30.3226C119.899 30.2853 119.666 30.2666 119.33 30.2666C118.565 30.2666 118.061 30.5466 117.818 31.1066V36.0066H115.914V28.6146H117.72L117.762 29.5246C118.173 28.8246 118.733 28.4746 119.442 28.4746C119.685 28.4746 119.89 28.5026 120.058 28.5586L120.03 30.3226Z" fill="#01AFBA"/>
<path d="M112.733 36.0066C112.659 35.8386 112.593 35.6006 112.537 35.2926C112.052 35.8619 111.413 36.1466 110.619 36.1466C110.153 36.1466 109.728 36.0533 109.345 35.8666C108.963 35.6706 108.659 35.4046 108.435 35.0686C108.221 34.7233 108.113 34.3453 108.113 33.9346C108.113 33.1506 108.407 32.5486 108.995 32.1286C109.593 31.7086 110.442 31.4986 111.543 31.4986H112.467V31.0366C112.467 30.6539 112.369 30.3599 112.173 30.1546C111.977 29.9493 111.688 29.8466 111.305 29.8466C110.96 29.8466 110.685 29.9353 110.479 30.1126C110.274 30.2806 110.171 30.5093 110.171 30.7986H108.295C108.295 30.3693 108.426 29.9773 108.687 29.6226C108.958 29.2679 109.327 28.9879 109.793 28.7826C110.269 28.5773 110.806 28.4746 111.403 28.4746C112.309 28.4746 113.023 28.6986 113.545 29.1466C114.068 29.5853 114.339 30.1966 114.357 30.9806V34.2986C114.357 34.9706 114.451 35.5026 114.637 35.8946V36.0066H112.733ZM111.039 34.7186C111.347 34.7186 111.632 34.6439 111.893 34.4946C112.155 34.3359 112.346 34.1446 112.467 33.9206V32.6046H111.669C110.568 32.6046 110.017 33.0013 110.017 33.7946C110.017 34.0746 110.111 34.2986 110.297 34.4666C110.484 34.6346 110.731 34.7186 111.039 34.7186Z" fill="#01AFBA"/>
<path d="M100.158 32.2126C100.158 31.4566 100.284 30.7986 100.536 30.2386C100.788 29.6693 101.138 29.2353 101.586 28.9366C102.034 28.6286 102.552 28.4746 103.14 28.4746C103.971 28.4746 104.615 28.7593 105.072 29.3286L105.142 28.6146H106.864V35.7686C106.864 36.2073 106.757 36.6646 106.542 37.1406C106.328 37.6259 105.959 38.0413 105.436 38.3866C104.914 38.7413 104.218 38.9186 103.35 38.9186C102.809 38.9186 102.282 38.8113 101.768 38.5966C101.264 38.3819 100.877 38.0973 100.606 37.7426L101.46 36.6226C101.918 37.1919 102.52 37.4766 103.266 37.4766C103.817 37.4766 104.237 37.3273 104.526 37.0286C104.816 36.7393 104.96 36.3146 104.96 35.7546V35.3626C104.494 35.8853 103.882 36.1466 103.126 36.1466C102.538 36.1466 102.02 35.9879 101.572 35.6706C101.124 35.3533 100.774 34.9053 100.522 34.3266C100.28 33.7479 100.158 33.0713 100.158 32.2966V32.2126ZM102.048 32.3946C102.048 33.0946 102.184 33.6453 102.454 34.0466C102.734 34.4479 103.122 34.6486 103.616 34.6486C104.232 34.6486 104.68 34.4013 104.96 33.9066V30.7006C104.671 30.2153 104.228 29.9726 103.63 29.9726C103.126 29.9726 102.734 30.1779 102.454 30.5886C102.184 30.9993 102.048 31.6013 102.048 32.3946Z" fill="#01AFBA"/>
<path d="M96.2787 36.1466C95.56 36.1466 94.9253 35.9973 94.3747 35.6986C93.824 35.3906 93.3947 34.9613 93.0867 34.4106C92.788 33.8599 92.6387 33.2206 92.6387 32.4926V32.2966C92.6387 31.5686 92.774 30.9153 93.0447 30.3366C93.3247 29.7579 93.7213 29.3053 94.2347 28.9786C94.7573 28.6426 95.3687 28.4746 96.0687 28.4746C97.0767 28.4746 97.8653 28.7966 98.4347 29.4406C99.0133 30.0846 99.3027 30.9853 99.3027 32.1426V32.8986H94.5567V32.9266C94.6127 33.4493 94.804 33.8693 95.1307 34.1866C95.4667 34.5039 95.8913 34.6626 96.4047 34.6626C97.1607 34.6626 97.7627 34.3779 98.2107 33.8086L99.1487 34.7886C98.85 35.2179 98.4487 35.5539 97.9447 35.7966C97.45 36.0299 96.8947 36.1466 96.2787 36.1466ZM96.0547 29.9586C95.6533 29.9586 95.322 30.1033 95.0607 30.3926C94.7993 30.6726 94.636 31.0786 94.5707 31.6106H97.4407V31.4706C97.422 30.9853 97.2913 30.6119 97.0487 30.3506C96.8153 30.0893 96.484 29.9586 96.0547 29.9586Z" fill="#01AFBA"/>
<path d="M86.8346 28.6146L86.9046 29.5106C87.4273 28.8199 88.1413 28.4746 89.0466 28.4746C90.5866 28.4746 91.366 29.3799 91.3846 31.1906V36.0066H89.4946V31.2466C89.4853 30.7986 89.3873 30.4766 89.2006 30.2806C89.0233 30.0753 88.7153 29.9726 88.2766 29.9726C87.978 29.9726 87.712 30.0426 87.4786 30.1826C87.2546 30.3226 87.0773 30.5186 86.9466 30.7706V36.0066H85.0566V28.6146H86.8346Z" fill="#01AFBA"/>
<path d="M80.0887 34.5232H83.8407V36.0072H77.7227V34.8592L81.3347 30.0992H77.8347V28.6152H83.7287V29.7212L80.0887 34.5232Z" fill="#01AFBA"/>
<path d="M76.3402 36.0068H74.4362V28.6148H76.3402V36.0068ZM74.3242 26.6828C74.3242 26.4028 74.4176 26.1741 74.6042 25.9968C74.8002 25.8101 75.0616 25.7168 75.3882 25.7168C75.7056 25.7168 75.9622 25.8101 76.1582 25.9968C76.3542 26.1741 76.4522 26.4028 76.4522 26.6828C76.4522 26.9628 76.3542 27.1961 76.1582 27.3828C75.9622 27.5601 75.7056 27.6488 75.3882 27.6488C75.0616 27.6488 74.8002 27.5601 74.6042 27.3828C74.4176 27.1961 74.3242 26.9628 74.3242 26.6828Z" fill="#01AFBA"/>
<path d="M73.3543 30.3226C73.2236 30.2853 72.9903 30.2666 72.6543 30.2666C71.8889 30.2666 71.3849 30.5466 71.1423 31.1066V36.0066H69.2383V28.6146H71.0443L71.0863 29.5246C71.4969 28.8246 72.0569 28.4746 72.7663 28.4746C73.0089 28.4746 73.2143 28.5026 73.3823 28.5586L73.3543 30.3226Z" fill="#01AFBA"/>
<path d="M66.0575 36.0066C65.9828 35.8386 65.9175 35.6006 65.8615 35.2926C65.3762 35.8619 64.7368 36.1466 63.9435 36.1466C63.4768 36.1466 63.0522 36.0533 62.6695 35.8666C62.2868 35.6706 61.9835 35.4046 61.7595 35.0686C61.5448 34.7233 61.4375 34.3453 61.4375 33.9346C61.4375 33.1506 61.7315 32.5486 62.3195 32.1286C62.9168 31.7086 63.7662 31.4986 64.8675 31.4986H65.7915V31.0366C65.7915 30.6539 65.6935 30.3599 65.4975 30.1546C65.3015 29.9493 65.0122 29.8466 64.6295 29.8466C64.2842 29.8466 64.0088 29.9353 63.8035 30.1126C63.5982 30.2806 63.4955 30.5093 63.4955 30.7986H61.6195C61.6195 30.3693 61.7502 29.9773 62.0115 29.6226C62.2822 29.2679 62.6508 28.9879 63.1175 28.7826C63.5935 28.5773 64.1302 28.4746 64.7275 28.4746C65.6328 28.4746 66.3468 28.6986 66.8695 29.1466C67.3922 29.5853 67.6628 30.1966 67.6815 30.9806V34.2986C67.6815 34.9706 67.7748 35.5026 67.9615 35.8946V36.0066H66.0575ZM64.3635 34.7186C64.6715 34.7186 64.9562 34.6439 65.2175 34.4946C65.4788 34.3359 65.6702 34.1446 65.7915 33.9206V32.6046H64.9935C63.8922 32.6046 63.3415 33.0013 63.3415 33.7946C63.3415 34.0746 63.4348 34.2986 63.6215 34.4666C63.8082 34.6346 64.0555 34.7186 64.3635 34.7186Z" fill="#01AFBA"/>
<path d="M56.024 31.9327L54.946 33.0807V36.0067H53V26.0527H54.946V30.6587L55.856 29.4547L58.516 26.0527H60.924L57.34 30.4627L61.05 36.0067H58.712L56.024 31.9327Z" fill="#01AFBA"/>
<defs>
<linearGradient id="paint0_linear_183_586" x1="37.7229" y1="18.4614" x2="37.7229" y2="33.8204" gradientUnits="userSpaceOnUse">
<stop stop-color="#F07168"/>
<stop offset="1" stop-color="#01AFBA"/>
</linearGradient>
</defs>
</svg>
