<svg width="32" height="32" viewBox="0 0 32 32" fill="none" xmlns="http://www.w3.org/2000/svg">
<circle cx="16" cy="16" r="15.5" fill="white" stroke="#F2F2F2"/>
<g clip-path="url(#clip0_289_159)">
<path opacity="0.4" d="M22 9.33325V17.3999C22 18.6666 21.3333 19.3333 20.0667 19.3333H11.9333C10.6667 19.3333 10 18.6666 10 17.3999V9.33325H22Z" fill="#505050"/>
<path d="M22.6668 9.83325H9.3335C9.06016 9.83325 8.8335 9.60659 8.8335 9.33325C8.8335 9.05992 9.06016 8.83325 9.3335 8.83325H22.6668C22.9402 8.83325 23.1668 9.05992 23.1668 9.33325C23.1668 9.60659 22.9402 9.83325 22.6668 9.83325Z" fill="#505050"/>
<path d="M19.1135 22.8933C19.0269 23.0666 18.8469 23.1666 18.6669 23.1666C18.5935 23.1666 18.5135 23.1466 18.4469 23.1133L16.0002 21.8933L13.5535 23.1133C13.4868 23.1466 13.4068 23.1666 13.3335 23.1666C13.1535 23.1666 12.9735 23.0666 12.8868 22.8933C12.7602 22.6399 12.8602 22.3399 13.1135 22.2199L15.5002 21.0266V19.3333H16.5002V21.0266L18.8869 22.2199C19.1402 22.3399 19.2402 22.6399 19.1135 22.8933Z" fill="#505050"/>
</g>
<defs>
<clipPath id="clip0_289_159">
<rect width="16" height="16" fill="white" transform="translate(8 8)"/>
</clipPath>
</defs>
</svg>
