<svg width="25" height="21" viewBox="0 0 25 21" fill="none" xmlns="http://www.w3.org/2000/svg">
<path d="M18.21 1.75H10.79C8.375 1.75 7.5 2.625 7.5 5.08375V15.9163C7.5 18.375 8.375 19.25 10.79 19.25H18.2013C20.625 19.25 21.5 18.375 21.5 15.9163V5.08375C21.5 2.625 20.625 1.75 18.21 1.75ZM14.5 16.8875C13.66 16.8875 12.9688 16.1962 12.9688 15.3562C12.9688 14.5162 13.66 13.825 14.5 13.825C15.34 13.825 16.0312 14.5162 16.0312 15.3562C16.0312 16.1962 15.34 16.8875 14.5 16.8875ZM16.25 5.46875H12.75C12.3913 5.46875 12.0938 5.17125 12.0938 4.8125C12.0938 4.45375 12.3913 4.15625 12.75 4.15625H16.25C16.6088 4.15625 16.9062 4.45375 16.9062 4.8125C16.9062 5.17125 16.6088 5.46875 16.25 5.46875Z" fill="#2BA8B6"/>
<line x1="0.5" y1="2.18557e-08" x2="0.499999" y2="21" stroke="#2BA8B6"/>
</svg>
