<svg width="25" height="21" viewBox="0 0 25 21" fill="none" xmlns="http://www.w3.org/2000/svg">
<path d="M9.5825 9.40765C9.95875 9.40765 10.2562 9.1014 10.2562 8.73387C10.2562 8.41012 10.58 7.73637 11.1225 7.15012C11.6563 6.58137 12.2425 6.24887 12.7325 6.24887C13.1087 6.24887 13.4062 5.94262 13.4062 5.57512C13.4062 5.20762 13.1 4.90137 12.7325 4.90137C11.8575 4.90137 10.9388 5.37387 10.1338 6.22262C9.38125 7.01887 8.9 8.00762 8.9 8.72512C8.9 9.1014 9.20625 9.40765 9.5825 9.40765Z" fill="#2BA8B6"/>
<path d="M6.42469 9.40625C6.80094 9.40625 7.09844 9.1 7.09844 8.7325C7.09844 5.62625 9.62719 3.10625 12.7247 3.10625C13.1009 3.10625 13.3984 2.8 13.3984 2.4325C13.3984 2.065 13.1009 1.75 12.7334 1.75C8.88344 1.75 5.75094 4.8825 5.75094 8.7325C5.75094 9.1 6.05719 9.40625 6.42469 9.40625Z" fill="#2BA8B6"/>
<path d="M15.3312 13.0812L16.95 14.7C17.2913 15.0412 17.8338 15.0412 18.1838 14.7087C18.28 14.6125 18.3762 14.525 18.4725 14.4287C19.3737 13.5187 20.1875 12.565 20.9137 11.5675C21.6312 10.57 22.2088 9.5725 22.6287 8.58375C23.04 7.58625 23.25 6.6325 23.25 5.7225C23.25 5.1275 23.145 4.55875 22.935 4.03375C22.725 3.5 22.3925 3.01 21.9288 2.5725C21.3687 2.02125 20.7562 1.75 20.1087 1.75C19.8637 1.75 19.6187 1.8025 19.4 1.9075C19.1725 2.0125 18.9713 2.17 18.8137 2.3975L16.7837 5.25875C16.6262 5.4775 16.5125 5.67875 16.4338 5.87125C16.355 6.055 16.3112 6.23875 16.3112 6.405C16.3112 6.615 16.3725 6.825 16.495 7.02625C16.6087 7.2275 16.775 7.4375 16.985 7.6475L17.65 8.33875C17.7463 8.435 17.79 8.54875 17.79 8.68875C17.79 8.75875 17.7812 8.82 17.7637 8.89C17.7375 8.96 17.7112 9.0125 17.6937 9.065C17.5362 9.35375 17.265 9.73 16.88 10.185C16.4863 10.64 16.0663 11.1037 15.6113 11.5675C15.5238 11.655 15.4275 11.7425 15.34 11.83C14.99 12.1712 14.9812 12.7312 15.3312 13.0812Z" fill="#2BA8B6"/>
<path d="M5.77587 16.0379C5.77587 16.2829 5.81962 16.5367 5.90712 16.7817C5.93337 16.8517 5.95962 16.9217 5.99462 16.9917C6.14337 17.3067 6.33587 17.6042 6.58962 17.8842C7.01837 18.3567 7.49087 18.6979 8.02462 18.9167C8.03337 18.9167 8.04212 18.9254 8.05087 18.9254C8.56712 19.1354 9.12712 19.2492 9.73087 19.2492C10.6234 19.2492 11.5771 19.0392 12.5834 18.6104C13.5896 18.1817 14.5959 17.6042 15.5934 16.8779C15.9346 16.6242 16.2759 16.3704 16.5996 16.0992L13.7384 13.2379C13.4934 13.4217 13.2746 13.5617 13.0909 13.6579C13.0471 13.6754 12.9946 13.7017 12.9334 13.7279C12.8634 13.7542 12.7934 13.7629 12.7146 13.7629C12.5659 13.7629 12.4521 13.7104 12.3559 13.6142L11.6909 12.9579C11.4721 12.7392 11.2621 12.5729 11.0609 12.4679C10.8596 12.3454 10.6584 12.2842 10.4396 12.2842C10.2734 12.2842 10.0984 12.3192 9.90587 12.3979C9.71337 12.4767 9.51212 12.5904 9.29337 12.7392L6.39712 14.7954C6.16962 14.9529 6.01212 15.1367 5.91587 15.3554C5.82837 15.5742 5.77587 15.7929 5.77587 16.0379Z" fill="#2BA8B6"/>
<line x1="0.5" y1="2.18557e-08" x2="0.499999" y2="21" stroke="#2BA8B6"/>
</svg>
