<svg width="245" height="116" viewBox="0 0 245 116" fill="none" xmlns="http://www.w3.org/2000/svg">
<g id="Group 1000006190">
<path id="Vector" fill-rule="evenodd" clip-rule="evenodd" d="M230.523 43.7941H220.628C217.881 43.7941 215.674 43.0006 214.02 41.6804C212.893 40.7802 212.046 39.66 211.493 38.3998C210.959 37.1863 210.693 35.8594 210.693 34.4858C210.693 31.8387 211.693 28.9649 213.68 26.4711L223.602 14.009H244.218L244.192 41.7804L244.025 42.8272L243.412 44.6476L242.598 45.9544L233.697 54.6826H205.192L196.697 45.1343L196.237 45.8944L186.922 55.6227C184.895 57.7431 182.941 59.4234 180.594 60.6169C178.161 61.8571 175.44 62.5173 171.986 62.5173H158.864L150.096 53.7491C148.156 51.8088 146.835 50.0351 145.955 47.6747C145.115 45.4343 144.775 42.8872 144.775 39.36V13.969H156.083V20.5835H151.389V39.3533C151.389 42.1138 151.603 43.9674 152.13 45.3677C152.61 46.6546 153.47 47.7614 154.777 49.0683L161.604 55.8961H171.986C174.32 55.8961 176.094 55.4894 177.6 54.7226C179.194 53.9091 180.628 52.6556 182.168 51.042L190.976 41.8471L191.183 41.227L191.196 30.4585V13.8023H197.811V30.5452C197.811 33.279 198.051 35.0926 198.584 36.4795C199.097 37.8064 199.984 38.9599 201.271 40.3535L208.119 48.0481H231.036L237.411 41.7937L237.604 41.227L237.624 20.6235H226.775L218.847 30.5785C217.821 31.8654 217.307 33.259 217.307 34.4858C217.307 34.9592 217.387 35.386 217.541 35.7394C217.674 36.0461 217.874 36.3128 218.134 36.5128C218.654 36.9262 219.481 37.1796 220.634 37.1796H230.529V43.7941H230.523ZM68.3153 47.6947L66.5217 45.9011C64.5814 43.9608 63.2612 42.1871 62.381 39.8267C61.5409 37.5864 61.2008 35.0393 61.2008 31.512V4.76081H67.8153V31.512C67.8153 34.2725 68.0286 36.1261 68.5554 37.5263C69.0355 38.8132 69.8956 39.9201 71.2025 41.227L74.1497 44.1741C74.4697 43.8674 74.7898 43.5407 75.1165 43.2006L83.9246 34.0057L84.1313 33.3856L84.158 4.76081H90.7458L90.7191 33.9391L90.5524 34.9859L89.939 36.8062L89.1922 38.0464L79.8773 47.7748C77.8503 49.8951 75.8966 51.5754 73.5496 52.7689C71.1158 54.0091 68.3954 54.6692 64.9414 54.6692V48.0548C66.2217 48.0548 67.3352 47.9281 68.3287 47.6947H68.3153ZM112.323 25.7244C115.777 25.7244 118.497 26.3845 120.931 27.6247C123.278 28.8182 125.232 30.5052 127.259 32.6189L127.285 32.6589L134.106 39.9468L135.013 42.1938V54.6692H108.442V48.0548H128.399V43.474L122.518 37.1863C120.971 35.5794 119.544 34.3258 117.95 33.5123C116.443 32.7455 114.677 32.3388 112.336 32.3388V25.7244H112.323ZM85.5983 50.0551L90.0924 54.8893L99.6673 45.9811C101.728 44.0608 103.088 42.2405 103.955 39.8467C104.775 37.593 105.082 35.0259 105.082 31.512V4.76081H98.4671V31.512C98.4671 34.2791 98.2737 36.1795 97.7537 37.5997C97.2869 38.8799 96.4668 39.9468 95.1665 41.147L85.5916 50.0551H85.5983ZM12.1925 20.5768H7.49841V39.3467C7.49841 42.1071 7.71178 43.9608 8.23853 45.361C8.71861 46.6479 9.57876 47.7547 10.8856 49.0616L17.7135 55.8894H28.0952C30.4289 55.8894 32.2026 55.4827 33.7095 54.7159C35.3031 53.9025 36.7367 52.6489 38.2769 51.0353L47.0851 41.8404L47.2918 41.2203L47.3185 30.5385H47.3051V13.7957H53.9196V30.5385H53.9062L53.8796 41.7671L53.7129 42.8139L53.0994 44.6342L52.3526 45.8744L43.0377 55.6027C41.0107 57.7231 39.0571 59.4034 36.71 60.5969C34.2763 61.8371 31.5558 62.4972 28.1019 62.4972H14.9797L6.21152 53.7291C4.2712 51.7888 2.95097 50.0151 2.07082 47.6547C1.23068 45.4143 0.890625 42.8672 0.890625 39.34V13.949H12.1992V20.5635L12.1925 20.5768ZM229.983 0H236.597V6.61446H229.983V0ZM167.986 27.9181V34.5325H174.6V27.9181H167.986ZM24.0945 27.9181V34.5325H30.709V27.9181H24.0945Z" fill="#1B1B1B"/>
<g id="Group">
<path id="Vector_2" d="M6.7393 112.586C5.45908 111.839 4.44558 110.826 3.69212 109.552C2.93866 108.272 2.55859 106.885 2.55859 105.372V96.5436L6.28589 95.6368V105.372C6.28589 106.219 6.49259 106.999 6.89933 107.712C7.30606 108.426 7.86616 108.992 8.57961 109.406C9.29306 109.819 10.0665 110.032 10.9 110.032H21.6952C22.5286 110.032 23.2954 109.826 24.0022 109.406C24.709 108.992 25.2691 108.426 25.6825 107.712C26.0959 106.999 26.3093 106.219 26.3093 105.372V102.958H13.3137V94.6232C13.3137 93.1163 13.6938 91.7227 14.4473 90.4559C15.2007 89.189 16.2209 88.1755 17.5078 87.4287C18.7947 86.6819 20.1882 86.3085 21.6952 86.3085H30.0099V105.378C30.0099 106.885 29.6365 108.279 28.8897 109.559C28.1429 110.833 27.1294 111.846 25.8559 112.593C24.5756 113.34 23.1954 113.713 21.6952 113.713H10.9C9.40642 113.713 8.01952 113.34 6.7393 112.593V112.586ZM26.3026 99.2773V89.9891H21.6885C20.8417 89.9891 20.0616 90.1958 19.3414 90.6159C18.6213 91.0293 18.0545 91.5961 17.6411 92.2962C17.2277 93.003 17.0144 93.7764 17.0144 94.6232V99.2773H26.3026ZM18.6413 78.3271H27.6362V81.501H18.6413V78.3271Z" fill="#1A1A1A"/>
<path id="Vector_3" d="M34.4531 99.27H36.6335V76.8796L40.3341 75.8194V99.27H44.9682C45.815 99.27 46.5952 99.0633 47.3086 98.6432C48.0221 98.2298 48.5888 97.6631 49.0022 96.9496C49.4157 96.2361 49.629 95.456 49.629 94.6092V76.5995L53.3096 75.666V94.6092C53.3096 96.1028 52.9362 97.4897 52.1895 98.7699C51.4427 100.05 50.4292 101.064 49.1556 101.817C47.8754 102.571 46.4885 102.951 44.9749 102.951H34.4598V99.27H34.4531ZM54.2498 102.064C53.1163 101.47 52.1694 100.657 51.4227 99.6301L50.4292 97.1763L51.336 94.8493L53.303 94.6159C53.303 95.4627 53.5097 96.2428 53.9164 96.9563C54.3231 97.6697 54.8832 98.2365 55.59 98.6499C56.2968 99.0633 57.0703 99.2767 57.9171 99.2767L58.5705 101.137L57.9171 102.957C56.6035 102.957 55.3833 102.664 54.2431 102.07L54.2498 102.064Z" fill="#1A1A1A"/>
<path id="Vector_4" d="M57.2617 101.138L57.9152 99.2773H65.023L65.6765 101.164L65.023 102.965H57.9152L57.2617 101.144V101.138Z" fill="#1A1A1A"/>
<path id="Vector_5" d="M64.375 101.137L65.0284 99.2764H80.9445V94.6223C80.9445 93.7755 80.7378 93.002 80.3177 92.2952C79.9043 91.5884 79.3375 91.0283 78.6374 90.6149C77.9306 90.2015 77.1572 89.9881 76.3104 89.9881H68.7157L69.6026 86.3075H76.3104C77.8373 86.3075 79.2375 86.6809 80.5244 87.4277C81.8113 88.1745 82.8248 89.1813 83.5716 90.4549C84.3184 91.7218 84.6918 93.1153 84.6918 94.6223V102.957H65.0351L64.3817 101.137H64.375ZM71.2762 78.5596H75.0835V81.9268H71.2762V78.5596Z" fill="#1A1A1A"/>
<path id="Vector_6" d="M97.2464 114.786C95.9662 114.025 94.966 112.999 94.2392 111.705C93.5124 110.412 93.1523 109.011 93.1523 107.504C93.1523 106.124 93.4857 104.844 94.1592 103.664C94.8326 102.483 95.7595 101.523 96.9397 100.783C98.1265 100.043 99.4467 99.6097 100.9 99.483L97.4731 91.1883V86.3008H108.922C109.895 86.3008 110.795 86.5475 111.622 87.0342C112.449 87.521 113.076 88.1944 113.516 89.0546C113.909 89.8414 114.109 90.6415 114.109 91.4483C114.109 92.5351 113.789 93.5153 113.156 94.3888L109.175 99.2763H115.696L116.35 101.137L115.696 102.957H101.54C100.694 102.957 99.9135 103.164 99.1934 103.584C98.4733 103.997 97.8998 104.557 97.4797 105.264C97.0597 105.971 96.8463 106.738 96.8463 107.571C96.8463 108.404 97.0597 109.198 97.4797 109.918C97.8998 110.638 98.4733 111.205 99.1934 111.625C99.9135 112.038 100.687 112.252 101.52 112.252H113.036L112.062 115.932H101.5C99.9468 115.932 98.5333 115.552 97.2597 114.792L97.2464 114.786ZM110.482 91.5283C110.482 91.0616 110.322 90.6549 109.995 90.3081C109.668 89.9614 109.262 89.788 108.768 89.788H101.194V90.6348L104.814 99.183L110.102 92.5818C110.355 92.2551 110.482 91.9017 110.482 91.5217V91.5283Z" fill="#1A1A1A"/>
<path id="Vector_7" d="M115.016 101.138L115.669 99.2773H122.777L123.43 101.164L122.777 102.965H115.669L115.016 101.144V101.138Z" fill="#1A1A1A"/>
<path id="Vector_8" d="M127.792 110.512H118.797V107.338H127.792V110.512ZM122.651 102.957L122.124 101.137L122.718 99.2767H122.784C123.631 99.2767 124.404 99.07 125.111 98.6499C125.818 98.2365 126.371 97.6697 126.785 96.9563C127.192 96.2428 127.398 95.4627 127.398 94.6159V87.8881L131.126 86.9746V94.6159C131.126 96.1228 130.746 97.5164 129.992 98.7966C129.239 100.077 128.218 101.084 126.945 101.83C125.665 102.577 124.284 102.951 122.784 102.951H122.658L122.651 102.957Z" fill="#1A1A1A"/>
<path id="Vector_9" d="M139.701 101.823C138.421 101.069 137.414 100.049 136.667 98.7758C135.92 97.5022 135.547 96.1153 135.547 94.6151V76.7987L139.227 75.8652V94.6151C139.227 95.4619 139.434 96.242 139.854 96.9555C140.268 97.6689 140.834 98.2357 141.548 98.6491C142.261 99.0625 143.041 99.2758 143.888 99.2758L144.542 101.136L143.888 102.956C142.381 102.956 140.988 102.576 139.708 101.823H139.701Z" fill="#1A1A1A"/>
<path id="Vector_10" d="M143.816 102.956L143.223 101.136L143.836 99.2755H143.876C144.723 99.2755 145.496 99.0689 146.203 98.6488C146.91 98.2354 147.47 97.6686 147.883 96.9552C148.297 96.2417 148.51 95.4616 148.51 94.6148V87.887L152.191 86.9735V94.6148C152.191 95.4616 152.398 96.2417 152.818 96.9552C153.231 97.6686 153.798 98.2354 154.498 98.6488C155.205 99.0622 155.978 99.2755 156.825 99.2755L157.478 101.136L156.825 102.956C155.511 102.956 154.285 102.663 153.144 102.069C152.004 101.476 151.071 100.676 150.351 99.6556C149.604 100.669 148.664 101.476 147.537 102.069C146.41 102.663 145.19 102.956 143.876 102.956H143.816ZM148.157 79.1455H151.964V82.5127H148.157V79.1455Z" fill="#1A1A1A"/>
<path id="Vector_11" d="M156.18 101.111L156.833 99.2704L159.714 99.2504V87.1683L163.414 86.2148V94.723L171.242 86.3015H178.884C180.39 86.3015 181.784 86.6749 183.051 87.4217C184.318 88.1685 185.331 89.1753 186.078 90.4489C186.825 91.7224 187.198 93.1093 187.198 94.6162C187.198 96.1232 186.818 97.5167 186.065 98.797C185.311 100.077 184.298 101.084 183.031 101.831C181.764 102.578 180.39 102.951 178.924 102.951H156.833L156.18 101.111ZM181.204 98.6436C181.917 98.2302 182.484 97.6634 182.898 96.95C183.311 96.2365 183.524 95.4564 183.524 94.6096C183.524 93.7628 183.318 93.0026 182.898 92.2892C182.484 91.5757 181.917 91.0157 181.204 90.5956C180.49 90.1822 179.717 89.9688 178.884 89.9688L172.576 89.9488L163.921 99.257H178.884C179.717 99.257 180.49 99.0503 181.204 98.6303V98.6436Z" fill="#1A1A1A"/>
<path id="Vector_12" d="M194.711 109.13L198.285 106.736V87.8798L202.012 86.9463V108.703L196.765 112.217L194.711 109.13Z" fill="#1A1A1A"/>
<path id="Vector_13" d="M207.027 76.7987L210.755 75.8652V102.95H207.027V76.7921V76.7987Z" fill="#1A1A1A"/>
<path id="Vector_14" d="M213.547 109.132L217.121 106.738V87.8813L220.848 86.9478V108.705L215.601 112.219L213.547 109.132ZM217.168 79.2266H220.975V82.5938H217.168V79.2266Z" fill="#1A1A1A"/>
<path id="Vector_15" d="M230.021 101.823C228.741 101.069 227.734 100.049 226.987 98.7758C226.241 97.5022 225.867 96.1153 225.867 94.6151V76.7987L229.548 75.8652V94.6151C229.548 95.4619 229.755 96.242 230.175 96.9555C230.588 97.6689 231.155 98.2357 231.868 98.6491C232.582 99.0625 233.362 99.2758 234.209 99.2758L234.862 101.136L234.209 102.956C232.702 102.956 231.308 102.576 230.028 101.823H230.021Z" fill="#1A1A1A"/>
<path id="Vector_16" d="M233.164 107.311H236.971V110.678H233.164V107.311ZM234.071 102.95L233.544 101.13L234.138 99.2699H234.198C235.044 99.2699 235.818 99.0632 236.525 98.6431C237.231 98.2297 237.785 97.6629 238.198 96.9494C238.605 96.236 238.812 95.4558 238.812 94.609V87.8813L242.539 86.9678V94.609C242.539 96.116 242.159 97.5095 241.405 98.7898C240.652 100.07 239.632 101.077 238.358 101.824C237.078 102.57 235.698 102.944 234.198 102.944H234.071V102.95Z" fill="#1A1A1A"/>
</g>
</g>
</svg>
