<svg width="181" height="157" viewBox="0 0 181 157" fill="none" xmlns="http://www.w3.org/2000/svg">
<g clip-path="url(#clip0_213_1139)">
<path d="M14.8181 73.5896C15.1874 73.5896 15.5278 73.3441 15.6255 72.9685L27.0459 30.1849C29.3415 21.5762 37.1844 15.5674 46.1172 15.5674C55.05 15.5674 62.8929 21.5798 65.1885 30.1849L76.6089 72.9685C76.7283 73.4127 77.1882 73.6799 77.6336 73.5607C78.0789 73.4416 78.3469 72.9866 78.2274 72.5388L66.8071 29.7552C64.3159 20.417 55.8067 13.8955 46.1172 13.8955C36.4277 13.8955 27.9185 20.417 25.4273 29.7552L14.007 72.5388C13.8875 72.983 14.1555 73.4416 14.6008 73.5607C14.6732 73.5788 14.7457 73.5896 14.8181 73.5896Z" fill="#303442"/>
<path d="M0.000679016 60.333H92.2324V139.996H0.000679016V60.333Z" fill="#95C682"/>
<path d="M27.35 72.2925L68.7578 79.3809L61.1753 123.434L19.7676 116.346L27.35 72.2925Z" fill="white"/>
<path d="M32.0254 100.149L56.2075 104.083" stroke="#303442" stroke-width="1.5" stroke-linecap="round" stroke-linejoin="round"/>
<path d="M42.1483 114.207L46.082 90.0244" stroke="#303442" stroke-width="1.5" stroke-linecap="round" stroke-linejoin="round"/>
<path d="M47.6272 72.6865H53.1816V81.6347H47.6272V72.6865Z" fill="#303442"/>
<path d="M47.6267 82.1475H53.1811C53.4636 82.1475 53.6953 81.92 53.6953 81.6348V72.6866C53.6953 72.4049 53.4672 72.1738 53.1811 72.1738H47.6267C47.3443 72.1738 47.1125 72.4013 47.1125 72.6866V81.6348C47.1125 81.9164 47.3406 82.1475 47.6267 82.1475ZM52.6706 81.1256H48.1408V73.203H52.6706V81.1256Z" fill="#303442"/>
<path d="M147.115 8.05469H95.8138L82.1458 1.44182C77.3868 -0.862358 71.7467 -0.376416 67.4546 2.70932L41.9947 21.0132C39.0914 23.1027 38.5716 27.2049 40.8618 29.9505C42.9246 32.4166 46.5385 32.8864 49.1657 31.0357L55.3134 26.7027L51.464 31.056C48.6094 34.2835 48.78 39.1672 51.8457 42.1922L64.8964 55.0616C66.8252 56.9648 69.5783 57.7828 72.238 57.2442L92.476 53.1461C94.2383 52.7898 95.83 51.8624 97.0076 50.5058L108.901 36.8063H147.115V8.05469Z" fill="#FDCFB3"/>
<path d="M141.373 0.830078H180.675C180.855 0.830078 181 0.975121 181 1.15404V45.9742C181 46.1531 180.855 46.2981 180.675 46.2981H141.373C141.193 46.2981 141.048 46.1531 141.048 45.9742V1.15404C141.048 0.975121 141.193 0.830078 141.373 0.830078Z" fill="#303442"/>
</g>
<defs>
<clipPath id="clip0_213_1139">
<rect width="180.55" height="157" fill="white" transform="matrix(-1 0 0 1 181 0)"/>
</clipPath>
</defs>
</svg>
