<svg width="150" height="58" viewBox="0 0 150 58" fill="none" xmlns="http://www.w3.org/2000/svg">
<path fill-rule="evenodd" clip-rule="evenodd" d="M140.592 49.2823C140.771 49.2823 140.935 49.2099 141.051 49.092C141.169 48.9741 141.241 48.8122 141.241 48.6333C141.241 48.4543 141.169 48.291 141.051 48.1745C140.933 48.0566 140.771 47.9842 140.592 47.9842C140.413 47.9842 140.25 48.0566 140.134 48.1745C140.016 48.2924 139.943 48.4543 139.943 48.6333C139.943 48.8122 140.016 48.9755 140.134 49.092C140.252 49.2099 140.413 49.2823 140.592 49.2823ZM138.6 49.1957C135.584 49.173 132.819 49.8305 130.365 51.1045C127.767 52.4538 125.509 54.4976 123.665 57.1592L123.083 58L122.501 57.1592C119.733 53.1611 116.024 50.5549 111.624 49.6033C107.358 48.6801 102.424 49.3022 97.0395 51.7053L96.041 52.1513V30.9735C96.041 25.825 98.126 20.4535 102.875 15.0109C107.166 10.0968 113.645 5.11443 122.748 0.181796L123.083 0L123.418 0.181796C124.932 1.00272 126.381 1.82932 127.767 2.66161C128.547 3.1303 129.304 3.59757 130.038 4.06626C130.408 3.71971 130.905 3.50809 131.451 3.50809C131.998 3.50809 132.541 3.7396 132.914 4.11455C133.289 4.48951 133.521 5.00649 133.521 5.57744C133.521 6.1484 133.289 6.6668 132.914 7.04033C132.539 7.41529 132.022 7.64679 131.451 7.64679C130.881 7.64679 130.362 7.41529 129.989 7.04033C129.614 6.66538 129.382 6.1484 129.382 5.57744C129.382 5.49507 129.386 5.41553 129.396 5.33599C128.636 4.84884 127.851 4.3631 127.04 3.87595C125.79 3.12604 124.471 2.37045 123.082 1.61202C114.31 6.40121 108.069 11.2117 103.939 15.9441C99.4355 21.104 97.4599 26.1587 97.4599 30.9749V49.9868C102.75 47.8109 107.638 47.2911 111.923 48.2185C116.379 49.1829 120.172 51.7053 123.082 55.5529C124.947 53.0872 127.176 51.1642 129.714 49.8476C132.396 48.4557 135.415 47.7427 138.705 47.7825C138.809 47.5538 138.952 47.3465 139.128 47.1718C139.503 46.7968 140.02 46.5653 140.591 46.5653C141.162 46.5653 141.68 46.7968 142.054 47.1718C142.429 47.5467 142.66 48.0637 142.66 48.6347C142.66 49.2056 142.429 49.724 142.054 50.0976C141.679 50.4725 141.162 50.704 140.591 50.704C140.02 50.704 139.502 50.4725 139.128 50.0976C138.881 49.8504 138.696 49.5422 138.6 49.1971V49.1957Z" fill="#32C0CF"/>
<path fill-rule="evenodd" clip-rule="evenodd" d="M133.966 12.878C134.145 12.878 134.308 12.8056 134.425 12.6877C134.542 12.5698 134.615 12.4079 134.615 12.2289C134.615 12.05 134.542 11.8867 134.425 11.7702C134.307 11.6523 134.145 11.5799 133.966 11.5799C133.787 11.5799 133.624 11.6523 133.507 11.7702C133.389 11.8881 133.317 12.05 133.317 12.2289C133.317 12.4079 133.389 12.5712 133.507 12.6877C133.625 12.8056 133.787 12.878 133.966 12.878ZM147.441 46.9775C147.62 46.9775 147.784 46.9051 147.9 46.7872C148.018 46.6693 148.09 46.5074 148.09 46.3285C148.09 46.1495 148.018 45.9862 147.9 45.8697C147.782 45.7518 147.62 45.6794 147.441 45.6794C147.262 45.6794 147.099 45.7518 146.983 45.8697C146.865 45.9876 146.792 46.1495 146.792 46.3285C146.792 46.5074 146.865 46.6708 146.983 46.7872C147.101 46.9051 147.262 46.9775 147.441 46.9775ZM148.904 47.7914C148.529 48.1663 148.012 48.3978 147.441 48.3978C146.87 48.3978 146.352 48.1663 145.979 47.7914C145.652 47.4647 145.435 47.0301 145.383 46.5458C141.282 45.4635 137.217 45.286 133.44 46.1509C129.829 46.979 126.47 48.7614 123.584 51.6247L123.084 52.1204L122.585 51.6247C119.699 48.7628 116.34 46.979 112.728 46.1509C108.882 45.2704 104.739 45.4706 100.562 46.6054L99.666 46.8483V30.9752C99.666 25.037 103.107 19.6797 107.743 15.1377C112.308 10.6666 118.04 6.98101 122.738 4.33076L123.085 4.13477L123.432 4.33076C124.529 4.95001 125.593 5.57209 126.614 6.19701C127.657 6.83472 128.695 7.49799 129.725 8.18967C130.321 8.59019 130.926 9.00633 131.53 9.43667C131.99 9.76476 132.453 10.1014 132.913 10.4465C133.222 10.2633 133.582 10.1596 133.966 10.1596C134.537 10.1596 135.055 10.3911 135.429 10.7661C135.804 11.141 136.035 11.658 136.035 12.2289C136.035 12.7999 135.804 13.3183 135.429 13.6918C135.054 14.0668 134.537 14.2983 133.966 14.2983C133.395 14.2983 132.876 14.0668 132.503 13.6918C132.128 13.3169 131.896 12.7999 131.896 12.2289C131.896 11.9889 131.938 11.7574 132.013 11.5429C131.573 11.2134 131.138 10.8967 130.709 10.5914C130.101 10.1582 129.509 9.75056 128.937 9.36708C127.938 8.69813 126.917 8.0448 125.876 7.40851C124.933 6.83046 124.003 6.28223 123.085 5.76099C118.542 8.34732 113.088 11.8881 108.736 16.1503C104.344 20.451 101.086 25.4816 101.086 30.9781V45.0076C105.18 44.0205 109.24 43.8998 113.045 44.7718C116.702 45.6098 120.115 47.3624 123.085 50.1419C126.055 47.3624 129.468 45.6098 133.125 44.7718C137.13 43.8543 141.418 44.0361 145.729 45.1709C145.802 45.0616 145.886 44.9607 145.979 44.867C146.353 44.492 146.87 44.2605 147.441 44.2605C148.012 44.2605 148.531 44.492 148.904 44.867C149.279 45.242 149.511 45.7589 149.511 46.3299C149.511 46.9008 149.279 47.4192 148.904 47.7928V47.7914Z" fill="#232323"/>
<path d="M123.797 45.7588H122.371V50.6801H123.797V45.7588Z" fill="#232323"/>
<path fill-rule="evenodd" clip-rule="evenodd" d="M129.521 22.5468L132.509 24.3264L135.573 28.7619L132.509 33.1975L129.388 35.0566L124.756 30.2064L124.74 30.1737C125.064 29.7931 125.26 29.3002 125.26 28.7605C125.26 28.2208 125.06 27.718 124.73 27.336L129.522 22.5439L129.521 22.5468Z" fill="#32C0CF"/>
<path fill-rule="evenodd" clip-rule="evenodd" d="M116.644 22.5473L113.655 24.3269L110.592 28.7625L113.655 33.198L116.777 35.0572L121.409 30.2069L121.423 30.1785C121.096 29.7979 120.9 29.3022 120.9 28.7625C120.9 28.2228 121.1 27.7186 121.431 27.3351L116.642 22.5459L116.644 22.5473Z" fill="#32C0CF"/>
<path fill-rule="evenodd" clip-rule="evenodd" d="M116.83 22.3633L118.609 19.3751L123.045 16.3115L127.48 19.3751L129.339 22.4968L124.506 27.1128C124.124 26.7818 123.626 26.583 123.082 26.583C122.538 26.583 122.002 26.7975 121.614 27.1497L116.828 22.3633H116.83Z" fill="#32C0CF"/>
<path fill-rule="evenodd" clip-rule="evenodd" d="M116.83 35.2416L118.609 38.2299L123.045 41.2934L127.48 38.2299L129.339 35.1081L124.489 30.4766L124.452 30.4595C124.077 30.762 123.601 30.9438 123.082 30.9438C122.562 30.9438 122.039 30.7436 121.657 30.4141L116.828 35.243L116.83 35.2416Z" fill="#32C0CF"/>
<path fill-rule="evenodd" clip-rule="evenodd" d="M129.374 35.9785L124.094 30.6922C124.485 30.4863 124.806 30.1667 125.01 29.7761L130.362 35.1348C129.91 35.2371 129.543 35.5581 129.374 35.9799V35.9785ZM129.889 37.6615L128.075 40.7066L127.888 40.9097L124.018 43.5827C123.769 43.3611 123.442 43.2262 123.085 43.2262C122.727 43.2262 122.399 43.3611 122.151 43.5827L118.281 40.9097L118.094 40.7066L116.279 37.6587C116.648 37.4059 116.891 36.9812 116.891 36.4997C116.891 36.3293 116.861 36.1674 116.805 36.0154L119.132 39.9212L123.086 42.6524L127.04 39.9212L129.355 36.0353C129.304 36.1802 129.276 36.3364 129.276 36.4997C129.276 36.9826 129.52 37.4087 129.892 37.6601L129.889 37.6615ZM115.803 35.1348L121.152 29.779C121.357 30.1695 121.678 30.4891 122.069 30.6936L116.788 35.9813C116.621 35.5595 116.253 35.2385 115.803 35.1348ZM121.152 27.7465L115.803 22.3907C116.253 22.287 116.621 21.966 116.788 21.5442L122.069 26.8319C121.678 27.0364 121.357 27.3574 121.152 27.7465ZM116.276 19.8654L118.091 16.8175L118.278 16.6144L122.149 13.9414C122.397 14.163 122.724 14.2979 123.082 14.2979C123.44 14.2979 123.768 14.163 124.015 13.9414L127.885 16.6144L128.073 16.8175L129.886 19.8626C129.514 20.1139 129.27 20.54 129.27 21.0229C129.27 21.1863 129.298 21.3425 129.349 21.4874L127.034 17.6015L123.08 14.8703L119.126 17.6015L116.8 21.5072C116.855 21.3567 116.885 21.1934 116.885 21.0229C116.885 20.5415 116.642 20.1168 116.273 19.864L116.276 19.8654ZM130.362 22.3907L125.01 27.7494C124.804 27.3588 124.485 27.0378 124.094 26.8333L129.374 21.547C129.543 21.9688 129.91 22.2884 130.362 22.3921V22.3907Z" fill="#232323"/>
<path fill-rule="evenodd" clip-rule="evenodd" d="M115.859 35.0616L121.151 29.7768C121.357 30.1674 121.676 30.4883 122.067 30.6929L116.783 35.9692C116.575 35.4593 116.072 35.0986 115.487 35.0986C115.022 35.0986 114.612 35.3244 114.356 35.6709L111.138 33.7536L110.935 33.5661L108.262 29.6958C108.483 29.4473 108.618 29.1206 108.618 28.7627C108.618 28.4048 108.483 28.0767 108.262 27.8296L110.935 23.9593L111.138 23.7718L114.356 21.8559C114.612 22.2024 115.022 22.4283 115.487 22.4283C116.073 22.4283 116.575 22.0689 116.783 21.5576L122.067 26.834C121.676 27.0399 121.355 27.3595 121.151 27.75L115.859 22.4652L111.923 24.8101L109.192 28.7641L111.923 32.7182L115.859 35.0631V35.0616ZM124.096 26.834L129.378 21.559C129.589 22.0675 130.09 22.4254 130.675 22.4254C131.14 22.4254 131.551 22.1996 131.807 21.8516L135.028 23.7704L135.231 23.9579L137.904 27.8282C137.683 28.0767 137.548 28.4034 137.548 28.7613C137.548 29.1192 137.683 29.4473 137.904 29.6944L135.231 33.5647L135.028 33.7521L131.807 35.6709C131.551 35.323 131.14 35.0972 130.675 35.0972C130.09 35.0972 129.59 35.4551 129.378 35.9635L124.096 30.6886C124.487 30.4827 124.807 30.1617 125.011 29.7711L130.306 35.0588L134.241 32.7139L136.973 28.7599L134.241 24.8058L130.306 22.4609L125.011 27.7486C124.807 27.358 124.486 27.0371 124.096 26.8311V26.834Z" fill="#232323"/>
<path fill-rule="evenodd" clip-rule="evenodd" d="M130.675 37.2526C130.882 37.2526 131.071 37.1688 131.206 37.0324C131.342 36.8961 131.426 36.7086 131.426 36.5012C131.426 36.2939 131.342 36.105 131.206 35.97C131.07 35.8337 130.882 35.7499 130.675 35.7499C130.468 35.7499 130.279 35.8337 130.144 35.97C130.007 36.1064 129.924 36.2939 129.924 36.5012C129.924 36.7086 130.007 36.8975 130.144 37.0324C130.28 37.1688 130.468 37.2526 130.675 37.2526ZM132.126 37.9513C131.756 38.322 131.242 38.5521 130.675 38.5521C130.108 38.5521 129.596 38.322 129.223 37.9513C128.853 37.5806 128.623 37.0665 128.623 36.4998C128.623 35.9331 128.853 35.4204 129.223 35.0483C129.594 34.6776 130.108 34.4475 130.675 34.4475C131.242 34.4475 131.754 34.6776 132.126 35.0483C132.497 35.419 132.727 35.9331 132.727 36.4998C132.727 37.0665 132.497 37.5792 132.126 37.9513ZM115.488 37.2526C115.695 37.2526 115.884 37.1688 116.019 37.0324C116.155 36.8961 116.239 36.7086 116.239 36.5012C116.239 36.2939 116.155 36.105 116.019 35.97C115.883 35.8337 115.695 35.7499 115.488 35.7499C115.28 35.7499 115.092 35.8337 114.957 35.97C114.82 36.1064 114.737 36.2939 114.737 36.5012C114.737 36.7086 114.82 36.8975 114.957 37.0324C115.093 37.1688 115.28 37.2526 115.488 37.2526ZM116.938 37.9513C116.567 38.322 116.053 38.5521 115.488 38.5521C114.923 38.5521 114.408 38.322 114.036 37.9513C113.666 37.5806 113.436 37.0665 113.436 36.4998C113.436 35.9331 113.666 35.4204 114.036 35.0483C114.407 34.6776 114.921 34.4475 115.488 34.4475C116.055 34.4475 116.567 34.6776 116.938 35.0483C117.309 35.419 117.539 35.9331 117.539 36.4998C117.539 37.0665 117.309 37.5792 116.938 37.9513ZM115.488 21.7758C115.695 21.7758 115.884 21.692 116.019 21.5556C116.155 21.4193 116.239 21.2318 116.239 21.0244C116.239 20.8171 116.155 20.6282 116.019 20.4932C115.883 20.3569 115.695 20.2731 115.488 20.2731C115.28 20.2731 115.092 20.3569 114.957 20.4932C114.82 20.6296 114.737 20.8171 114.737 21.0244C114.737 21.2318 114.82 21.4207 114.957 21.5556C115.093 21.692 115.28 21.7758 115.488 21.7758ZM116.938 22.4745C116.567 22.8452 116.053 23.0753 115.488 23.0753C114.923 23.0753 114.408 22.8452 114.036 22.4745C113.666 22.1038 113.436 21.5897 113.436 21.023C113.436 20.4563 113.666 19.9436 114.036 19.5715C114.407 19.2008 114.921 18.9707 115.488 18.9707C116.055 18.9707 116.567 19.2008 116.938 19.5715C117.309 19.9422 117.539 20.4563 117.539 21.023C117.539 21.5897 117.309 22.1024 116.938 22.4745ZM130.675 21.7758C130.882 21.7758 131.071 21.692 131.206 21.5556C131.342 21.4193 131.426 21.2318 131.426 21.0244C131.426 20.8171 131.342 20.6282 131.206 20.4932C131.07 20.3583 130.882 20.2731 130.675 20.2731C130.468 20.2731 130.279 20.3569 130.144 20.4932C130.007 20.6296 129.924 20.8171 129.924 21.0244C129.924 21.2318 130.007 21.4207 130.144 21.5556C130.28 21.692 130.468 21.7758 130.675 21.7758ZM132.126 22.4745C131.756 22.8452 131.242 23.0753 130.675 23.0753C130.108 23.0753 129.596 22.8452 129.223 22.4745C128.853 22.1038 128.623 21.5897 128.623 21.023C128.623 20.4563 128.853 19.9436 129.223 19.5715C129.594 19.2008 130.108 18.9707 130.675 18.9707C131.242 18.9707 131.754 19.2008 132.126 19.5715C132.497 19.9422 132.727 20.4563 132.727 21.023C132.727 21.5897 132.497 22.1024 132.126 22.4745Z" fill="#232323"/>
<path fill-rule="evenodd" clip-rule="evenodd" d="M123.083 30.2929C123.504 30.2929 123.888 30.121 124.165 29.8455C124.442 29.5685 124.612 29.1865 124.612 28.7632C124.612 28.34 124.44 27.9579 124.165 27.681C123.888 27.404 123.506 27.2336 123.083 27.2336C122.659 27.2336 122.277 27.4054 122 27.681C121.723 27.9579 121.553 28.34 121.553 28.7632C121.553 29.1865 121.725 29.5685 122 29.8455C122.277 30.1224 122.659 30.2929 123.083 30.2929ZM125.084 30.7644C124.571 31.2771 123.864 31.5939 123.083 31.5939C122.301 31.5939 121.594 31.2771 121.081 30.7644C120.569 30.2517 120.252 29.5444 120.252 28.7632C120.252 27.9821 120.569 27.2748 121.081 26.7621C121.594 26.2493 122.301 25.9326 123.083 25.9326C123.864 25.9326 124.571 26.2493 125.084 26.7621C125.596 27.2748 125.913 27.9821 125.913 28.7632C125.913 29.5444 125.596 30.2517 125.084 30.7644Z" fill="#232323"/>
<path fill-rule="evenodd" clip-rule="evenodd" d="M123.833 44.6298C123.833 44.4225 123.749 44.2336 123.613 44.0986C123.477 43.9623 123.289 43.8785 123.082 43.8785C122.874 43.8785 122.686 43.9623 122.551 44.0986C122.414 44.235 122.33 44.4225 122.33 44.6298C122.33 44.8372 122.414 45.0261 122.551 45.161C122.687 45.2974 122.874 45.3812 123.082 45.3812C123.289 45.3812 123.478 45.2974 123.613 45.161C123.749 45.0247 123.833 44.8372 123.833 44.6298ZM124.532 43.1783C124.903 43.549 125.133 44.0631 125.133 44.6298C125.133 45.1965 124.903 45.7092 124.532 46.0814C124.161 46.4521 123.647 46.6821 123.08 46.6821C122.514 46.6821 122.001 46.4521 121.629 46.0814C121.258 45.7107 121.028 45.1965 121.028 44.6298C121.028 44.0631 121.258 43.5504 121.629 43.1783C122 42.8062 122.514 42.5775 123.08 42.5775C123.647 42.5775 124.16 42.8076 124.532 43.1783ZM107.214 29.5138C107.422 29.5138 107.611 29.43 107.746 29.2936C107.882 29.1573 107.966 28.9698 107.966 28.7625C107.966 28.5551 107.882 28.3662 107.746 28.2313C107.609 28.0949 107.422 28.0111 107.214 28.0111C107.007 28.0111 106.818 28.0949 106.683 28.2313C106.547 28.3676 106.463 28.5551 106.463 28.7625C106.463 28.9698 106.547 29.1587 106.683 29.2936C106.82 29.43 107.007 29.5138 107.214 29.5138ZM108.666 30.2126C108.295 30.5833 107.781 30.8133 107.214 30.8133C106.648 30.8133 106.135 30.5833 105.763 30.2126C105.391 29.8419 105.162 29.3277 105.162 28.761C105.162 28.1943 105.392 27.6816 105.763 27.3095C106.134 26.9388 106.648 26.7087 107.214 26.7087C107.781 26.7087 108.294 26.9388 108.666 27.3095C109.038 27.6802 109.267 28.1943 109.267 28.761C109.267 29.3277 109.037 29.8405 108.666 30.2126ZM123.833 12.8951C123.833 12.6877 123.749 12.4988 123.613 12.3639C123.477 12.2275 123.289 12.1438 123.082 12.1438C122.874 12.1438 122.686 12.2275 122.551 12.3639C122.414 12.5002 122.33 12.6877 122.33 12.8951C122.33 13.1024 122.414 13.2913 122.551 13.4263C122.687 13.5626 122.874 13.6464 123.082 13.6464C123.289 13.6464 123.478 13.5626 123.613 13.4263C123.749 13.2899 123.833 13.1024 123.833 12.8951ZM124.532 11.4436C124.903 11.8142 125.133 12.3284 125.133 12.8951C125.133 13.4618 124.903 13.9745 124.532 14.3466C124.161 14.7173 123.647 14.9474 123.08 14.9474C122.514 14.9474 122.001 14.7173 121.629 14.3466C121.257 13.9759 121.028 13.4618 121.028 12.8951C121.028 12.3284 121.258 11.8157 121.629 11.4436C122 11.0729 122.514 10.8428 123.08 10.8428C123.647 10.8428 124.16 11.0729 124.532 11.4436ZM138.948 29.5138C139.155 29.5138 139.344 29.43 139.479 29.2936C139.615 29.1573 139.699 28.9698 139.699 28.7625C139.699 28.5551 139.615 28.3662 139.479 28.2313C139.343 28.0949 139.155 28.0111 138.948 28.0111C138.74 28.0111 138.551 28.0949 138.417 28.2313C138.28 28.3676 138.196 28.5551 138.196 28.7625C138.196 28.9698 138.28 29.1587 138.417 29.2936C138.553 29.43 138.74 29.5138 138.948 29.5138ZM140.399 30.2126C140.029 30.5833 139.514 30.8133 138.948 30.8133C138.381 30.8133 137.868 30.5833 137.496 30.2126C137.126 29.8419 136.895 29.3277 136.895 28.761C136.895 28.1943 137.126 27.6816 137.496 27.3095C137.867 26.9388 138.381 26.7087 138.948 26.7087C139.514 26.7087 140.027 26.9388 140.399 27.3095C140.77 27.6802 141 28.1943 141 28.761C141 29.3277 140.77 29.8405 140.399 30.2126Z" fill="#232323"/>
<path fill-rule="evenodd" clip-rule="evenodd" d="M79.2284 25.11H75.8144C74.8666 25.11 74.1051 24.8362 73.5345 24.3807C73.1458 24.0701 72.8536 23.6836 72.6626 23.2488C72.4786 22.8301 72.3866 22.3723 72.3866 21.8984C72.3866 20.9851 72.7317 19.9936 73.4172 19.1332L76.8404 14.8334H83.9537L83.9445 24.4152L83.887 24.7764L83.6753 25.4044L83.3947 25.8553L80.3234 28.8668H70.4886L67.5577 25.5724L67.399 25.8346L64.1851 29.1911C63.4858 29.9227 62.8117 30.5024 62.0019 30.9142C61.1622 31.3421 60.2236 31.5699 59.0319 31.5699H54.5045L51.4792 28.5447C50.8098 27.8752 50.3543 27.2633 50.0506 26.4489C49.7607 25.6759 49.6434 24.7971 49.6434 23.5801V14.8196H53.5451V17.1018H51.9255V23.5778C51.9255 24.5302 51.9992 25.1698 52.1809 25.6529C52.3465 26.0969 52.6433 26.4788 53.0942 26.9297L55.45 29.2855H59.0319C59.8371 29.2855 60.4491 29.1451 60.969 28.8806C61.5188 28.5999 62.0134 28.1674 62.5448 27.6107L65.5839 24.4382L65.6552 24.2243L65.6598 20.5089V14.7621H67.9419V20.5388C67.9419 21.482 68.0247 22.1078 68.2088 22.5863C68.3859 23.0441 68.6919 23.4421 69.1359 23.9229L71.4986 26.5777H79.4055L81.6049 24.4198L81.6716 24.2243L81.6785 17.1156H77.9355L75.2001 20.5503C74.8459 20.9943 74.6687 21.4751 74.6687 21.8984C74.6687 22.0617 74.6963 22.209 74.7492 22.3309C74.7952 22.4367 74.8643 22.5288 74.954 22.5978C75.1334 22.7404 75.4187 22.8278 75.8167 22.8278H79.2307V25.11H79.2284ZM23.2631 26.4558L22.6442 25.8369C21.9748 25.1675 21.5193 24.5555 21.2156 23.7411C20.9257 22.9682 20.8084 22.0894 20.8084 20.8724V11.6426H23.0905V20.8724C23.0905 21.8248 23.1642 22.4643 23.3459 22.9475C23.5115 23.3915 23.8083 23.7734 24.2592 24.2243L25.2761 25.2411C25.3865 25.1353 25.4969 25.0225 25.6096 24.9052L28.6487 21.7328L28.72 21.5188L28.7292 11.6426H31.0021L30.9929 21.7098L30.9354 22.0709L30.7237 22.699L30.4661 23.1269L27.2522 26.4834C26.5529 27.215 25.8788 27.7947 25.069 28.2065C24.2293 28.6344 23.2907 28.8622 22.099 28.8622V26.58C22.5407 26.58 22.9249 26.5363 23.2677 26.4558H23.2631ZM38.4467 18.8755C39.6383 18.8755 40.577 19.1033 41.4167 19.5312C42.2265 19.943 42.9005 20.525 43.5999 21.2543L43.6091 21.2681L45.9625 23.7826L46.2754 24.5578V28.8622H37.1078V26.58H43.9933V24.9995L41.9642 22.8301C41.4305 22.2757 40.9382 21.8432 40.3883 21.5625C39.8684 21.298 39.2588 21.1576 38.4513 21.1576V18.8755H38.4467ZM29.2261 27.2702L30.7767 28.9381L34.0802 25.8645C34.7911 25.202 35.2604 24.5739 35.5595 23.748C35.8425 22.9705 35.9483 22.0848 35.9483 20.8724V11.6426H33.6661V20.8724C33.6661 21.8271 33.5994 22.4827 33.42 22.9728C33.2589 23.4145 32.976 23.7826 32.5274 24.1967L29.2238 27.2702H29.2261ZM3.89942 17.0995H2.27984V23.5755C2.27984 24.5279 2.35345 25.1675 2.5352 25.6506C2.70084 26.0946 2.99761 26.4765 3.44851 26.9274L5.80427 29.2831H9.38621C10.1914 29.2831 10.8033 29.1428 11.3233 28.8783C11.8731 28.5976 12.3677 28.1651 12.8991 27.6084L15.9382 24.4359L16.0095 24.222L16.0187 20.5365H16.0141V14.7598H18.2962V20.5365H18.2916L18.2824 24.4106L18.2249 24.7718L18.0132 25.3998L17.7556 25.8277L14.5417 29.1842C13.8424 29.9158 13.1683 30.4955 12.3585 30.9073C11.5188 31.3352 10.5802 31.563 9.38851 31.563H4.86105L1.83583 28.5378C1.16638 27.8683 0.710868 27.2564 0.407196 26.442C0.117328 25.669 0 24.7902 0 23.5732V14.8127H3.90172V17.0949L3.89942 17.0995ZM79.042 10H81.3242V12.2821H79.042V10ZM57.6516 19.6324V21.9145H59.9337V19.6324H57.6516ZM8.00589 19.6324V21.9145H10.288V19.6324H8.00589Z" fill="#1B1B1B"/>
<path d="M2.01861 48.8436C1.57691 48.586 1.22723 48.2363 0.967264 47.7969C0.707303 47.3552 0.576172 46.8767 0.576172 46.3544V43.3085L1.86218 42.9957V46.3544C1.86218 46.6466 1.93349 46.9158 2.07383 47.1619C2.21416 47.4081 2.4074 47.6036 2.65356 47.7463C2.89972 47.8889 3.16658 47.9625 3.45415 47.9625H7.17873C7.4663 47.9625 7.73086 47.8912 7.97472 47.7463C8.21857 47.6036 8.41182 47.4081 8.55445 47.1619C8.69709 46.9158 8.77071 46.6466 8.77071 46.3544V45.5216H4.28695V42.646C4.28695 42.126 4.41808 41.6452 4.67804 41.2081C4.938 40.771 5.28998 40.4213 5.73399 40.1637C6.17799 39.906 6.65881 39.7772 7.17873 39.7772H10.0475V46.3567C10.0475 46.8767 9.91868 47.3575 9.66101 47.7992C9.40335 48.2386 9.05367 48.5883 8.61427 48.8459C8.17256 49.1036 7.69635 49.2324 7.17873 49.2324H3.45415C2.93883 49.2324 2.46032 49.1036 2.01861 48.8459V48.8436ZM8.7684 44.2517V41.0471H7.17643C6.88426 41.0471 6.6151 41.1184 6.36664 41.2633C6.11818 41.406 5.92263 41.6015 5.78 41.8431C5.63737 42.0869 5.56375 42.3538 5.56375 42.646V44.2517H8.7684ZM6.12508 37.0234H9.22851V38.1185H6.12508V37.0234Z" fill="#1A1A1A"/>
<path d="M11.5801 44.2504H12.3324V36.5251L13.6092 36.1594V44.2504H15.208C15.5002 44.2504 15.7694 44.1791 16.0155 44.0341C16.2617 43.8915 16.4572 43.6959 16.5999 43.4498C16.7425 43.2036 16.8161 42.9345 16.8161 42.6423V36.4285L18.086 36.1064V42.6423C18.086 43.1576 17.9572 43.6361 17.6995 44.0778C17.4419 44.5195 17.0922 44.8692 16.6528 45.1292C16.2111 45.3891 15.7326 45.5203 15.2103 45.5203H11.5824V44.2504H11.5801ZM18.4104 45.2143C18.0193 45.0096 17.6926 44.7289 17.435 44.3746L17.0922 43.528L17.4051 42.7251L18.0837 42.6446C18.0837 42.9368 18.155 43.2059 18.2954 43.4521C18.4357 43.6982 18.6289 43.8938 18.8728 44.0364C19.1167 44.1791 19.3835 44.2527 19.6757 44.2527L19.9011 44.8945L19.6757 45.5226C19.2225 45.5226 18.8015 45.4213 18.4081 45.2166L18.4104 45.2143Z" fill="#1A1A1A"/>
<path d="M19.4492 44.8948L19.6747 44.2529H22.1271L22.3525 44.904L22.1271 45.5251H19.6747L19.4492 44.8971V44.8948Z" fill="#1A1A1A"/>
<path d="M21.9043 44.8932L22.1298 44.2513H27.6211V42.6455C27.6211 42.3533 27.5498 42.0865 27.4049 41.8426C27.2623 41.5988 27.0667 41.4055 26.8252 41.2629C26.5813 41.1203 26.3144 41.0466 26.0223 41.0466H23.402L23.7079 39.7767H26.0223C26.5491 39.7767 27.0322 39.9056 27.4762 40.1632C27.9202 40.4209 28.2699 40.7683 28.5276 41.2077C28.7852 41.6448 28.9141 42.1256 28.9141 42.6455V45.5212H22.1321L21.9066 44.8932H21.9043ZM24.2854 37.1035H25.599V38.2653H24.2854V37.1035Z" fill="#1A1A1A"/>
<path d="M33.2446 49.6043C32.8029 49.342 32.4578 48.9877 32.207 48.5414C31.9563 48.0951 31.832 47.612 31.832 47.0921C31.832 46.6159 31.9471 46.1742 32.1794 45.767C32.4118 45.3598 32.7315 45.0285 33.1387 44.7731C33.5482 44.5178 34.0037 44.3683 34.5053 44.3245L33.3228 41.4627V39.7764H37.2728C37.6087 39.7764 37.9193 39.8615 38.2045 40.0294C38.4898 40.1974 38.7061 40.4297 38.8579 40.7265C38.9936 40.998 39.0626 41.274 39.0626 41.5524C39.0626 41.9274 38.9522 42.2656 38.7337 42.5669L37.3602 44.2532H39.6102L39.8356 44.8951L39.6102 45.5231H34.7261C34.4339 45.5231 34.1648 45.5944 33.9163 45.7394C33.6679 45.882 33.47 46.0753 33.3251 46.3191C33.1802 46.563 33.1065 46.8275 33.1065 47.1151C33.1065 47.4027 33.1802 47.6764 33.3251 47.9249C33.47 48.1733 33.6679 48.3689 33.9163 48.5138C34.1648 48.6565 34.4316 48.7301 34.7192 48.7301H38.6923L38.3564 50H34.7123C34.1763 50 33.6886 49.8688 33.2492 49.6066L33.2446 49.6043ZM37.8111 41.58C37.8111 41.4189 37.7559 41.2786 37.6432 41.159C37.5305 41.0394 37.3901 40.9795 37.2199 40.9795H34.6065V41.2717L35.8557 44.221L37.68 41.9435C37.7674 41.8307 37.8111 41.7088 37.8111 41.5777V41.58Z" fill="#1A1A1A"/>
<path d="M39.377 44.8948L39.6024 44.2529H42.0548L42.2802 44.904L42.0548 45.5251H39.6024L39.377 44.8971V44.8948Z" fill="#1A1A1A"/>
<path d="M43.7851 48.1287H40.6816V47.0337H43.7851V48.1287ZM42.0114 45.5222L41.8296 44.8942L42.0344 44.2523H42.0574C42.3495 44.2523 42.6164 44.181 42.8603 44.0361C43.1041 43.8934 43.2951 43.6979 43.4377 43.4517C43.578 43.2056 43.6493 42.9364 43.6493 42.6442V40.323L44.9353 40.0078V42.6442C44.9353 43.1641 44.8042 43.645 44.5442 44.0867C44.2843 44.5284 43.9323 44.8758 43.4929 45.1334C43.0512 45.3911 42.575 45.5199 42.0574 45.5199H42.0137L42.0114 45.5222Z" fill="#1A1A1A"/>
<path d="M47.8942 45.1308C47.4525 44.8709 47.1051 44.5189 46.8474 44.0795C46.5898 43.6401 46.4609 43.1616 46.4609 42.6439V36.4969L47.7308 36.1748V42.6439C47.7308 42.9361 47.8022 43.2053 47.9471 43.4514C48.0897 43.6976 48.2853 43.8931 48.5314 44.0358C48.7776 44.1784 49.0467 44.252 49.3389 44.252L49.5644 44.8939L49.3389 45.5219C48.819 45.5219 48.3382 45.3908 47.8965 45.1308H47.8942Z" fill="#1A1A1A"/>
<path d="M49.3122 45.5228L49.1074 44.8948L49.3191 44.2529H49.3329C49.625 44.2529 49.8919 44.1816 50.1358 44.0367C50.3796 43.8941 50.5729 43.6985 50.7155 43.4524C50.8581 43.2062 50.9318 42.937 50.9318 42.6449V40.3236L52.2017 40.0085V42.6449C52.2017 42.937 52.273 43.2062 52.4179 43.4524C52.5605 43.6985 52.7561 43.8941 52.9976 44.0367C53.2415 44.1793 53.5084 44.2529 53.8005 44.2529L54.026 44.8948L53.8005 45.5228C53.3473 45.5228 52.924 45.4216 52.5306 45.2169C52.1372 45.0121 51.8152 44.7361 51.5667 44.3841C51.309 44.7338 50.9847 45.0121 50.5959 45.2169C50.2071 45.4216 49.7861 45.5228 49.3329 45.5228H49.3122ZM50.8098 37.3076H52.1234V38.4694H50.8098V37.3076Z" fill="#1A1A1A"/>
<path d="M53.5781 44.8855L53.8036 44.2506L54.7974 44.2437V40.0751L56.0742 39.7461V42.6816L58.7751 39.776H61.4115C61.9314 39.776 62.4122 39.9048 62.8493 40.1625C63.2864 40.4202 63.6361 40.7675 63.8938 41.2069C64.1514 41.6463 64.2803 42.1248 64.2803 42.6448C64.2803 43.1647 64.1491 43.6455 63.8892 44.0872C63.6292 44.5289 63.2795 44.8763 62.8424 45.134C62.4053 45.3916 61.9314 45.5205 61.4253 45.5205H53.8036L53.5781 44.8855ZM62.2121 44.0343C62.4582 43.8917 62.6538 43.6961 62.7964 43.45C62.939 43.2038 63.0126 42.9346 63.0126 42.6425C63.0126 42.3503 62.9413 42.088 62.7964 41.8419C62.6538 41.5957 62.4582 41.4025 62.2121 41.2576C61.9659 41.1149 61.699 41.0413 61.4115 41.0413L59.2352 41.0344L56.2491 44.246H61.4115C61.699 44.246 61.9659 44.1746 62.2121 44.0297V44.0343Z" fill="#1A1A1A"/>
<path d="M66.873 47.6529L68.1061 46.827V40.3211L69.3921 39.999V47.5057L67.5816 48.7181L66.873 47.6529Z" fill="#1A1A1A"/>
<path d="M71.1211 36.4969L72.4071 36.1748V45.5196H71.1211V36.4946V36.4969Z" fill="#1A1A1A"/>
<path d="M73.3711 47.6519L74.6042 46.826V40.3201L75.8902 39.998V47.5047L74.0797 48.7171L73.3711 47.6519ZM74.6203 37.334H75.9339V38.4958H74.6203V37.334Z" fill="#1A1A1A"/>
<path d="M79.0563 45.1308C78.6146 44.8709 78.2672 44.5189 78.0095 44.0795C77.7519 43.6401 77.623 43.1616 77.623 42.6439V36.4969L78.8929 36.1748V42.6439C78.8929 42.9361 78.9643 43.2053 79.1092 43.4514C79.2518 43.6976 79.4474 43.8931 79.6935 44.0358C79.9397 44.1784 80.2089 44.252 80.501 44.252L80.7265 44.8939L80.501 45.5219C79.9811 45.5219 79.5003 45.3908 79.0586 45.1308H79.0563Z" fill="#1A1A1A"/>
<path d="M80.1406 47.0238H81.4542V48.1856H80.1406V47.0238ZM80.4535 45.5193L80.2718 44.8912L80.4765 44.2494H80.4972C80.7894 44.2494 81.0562 44.1781 81.3001 44.0331C81.544 43.8905 81.7349 43.6949 81.8775 43.4488C82.0179 43.2026 82.0892 42.9335 82.0892 42.6413V40.3201L83.3752 40.0049V42.6413C83.3752 43.1612 83.2441 43.642 82.9841 44.0837C82.7241 44.5254 82.3722 44.8728 81.9327 45.1305C81.491 45.3881 81.0148 45.517 80.4972 45.517H80.4535V45.5193Z" fill="#1A1A1A"/>
</svg>
