<svg width="261" height="204" viewBox="0 0 261 204" fill="none" xmlns="http://www.w3.org/2000/svg">
<mask id="mask0_213_1064" style="mask-type:alpha" maskUnits="userSpaceOnUse" x="0" y="0" width="261" height="204">
<path d="M0.5 0.5H260.5V180C260.5 192.979 249.979 203.5 237 203.5H0.5V0.5Z" fill="#F4F4F4" stroke="#E5E5E5"/>
</mask>
<g mask="url(#mask0_213_1064)">
<g clip-path="url(#clip0_213_1064)">
<path opacity="0.1" d="M196.1 146.41L197.65 91.0004L200.71 91.0904C202.81 91.1504 204.35 89.4904 204.41 87.4004L205.3 55.5204C205.36 53.4204 203.91 51.6804 201.81 51.6204L194.98 51.4304L188.15 51.2404L138.06 49.8404C135.96 49.7804 134.34 51.4404 134.28 53.5304L131.73 144.61C131.67 146.71 133.19 148.76 135.29 148.81L192.21 150.4C194.31 150.46 196.03 148.5 196.09 146.41H196.1Z" fill="black"/>
<path d="M194.01 148.46L195.56 93.0502L198.62 93.1402C200.72 93.2002 202.26 91.5402 202.32 89.4502L203.21 57.5702C203.27 55.4702 201.82 53.7302 199.72 53.6702L192.89 53.4802L186.06 53.2903L135.97 51.8902C133.87 51.8302 132.25 53.4902 132.19 55.5802L129.65 146.66C129.59 148.76 131.11 150.8 133.21 150.86L190.13 152.45C192.23 152.51 193.95 150.55 194.01 148.46Z" fill="url(#paint0_linear_213_1064)"/>
<path opacity="0.1" d="M131.43 66.1797L130.41 155.87L197.97 156.64L198.99 66.9497L131.43 66.1797Z" fill="black"/>
<path d="M130.03 64.7803L129.01 154.47L196.57 155.24L197.59 65.5503L130.03 64.7803Z" fill="#F7F0E7"/>
<path d="M130.431 150.48C128.341 150.42 126.551 148.67 126.611 146.58L129.151 55.5C129.211 53.4 131.091 51.76 133.191 51.82L186.121 57.1C188.211 57.16 189.781 58.9 189.721 61L187.181 152.08C187.121 154.18 185.461 155.83 183.361 155.77L130.431 150.49V150.48Z" fill="#00ADEE"/>
<path opacity="0.1" d="M128.411 59.6201L126.391 148.96L193.941 150.49L195.961 61.1501L128.411 59.6201Z" fill="black"/>
<path d="M126.84 57.8398L125.82 147.53L193.38 148.3L194.4 58.6098L126.84 57.8398Z" fill="#F7F0E7"/>
<path opacity="0.1" d="M123.211 57.3702L124.441 146.73L192.001 145.81L190.771 56.4502L123.211 57.3702Z" fill="black"/>
<path d="M121.379 56.35L124.789 145.98L192.309 143.42L188.899 53.79L121.379 56.35Z" fill="#F7F0E7"/>
<path fill-rule="evenodd" clip-rule="evenodd" d="M169.166 93.3622C169.281 93.3581 169.383 93.3073 169.456 93.2288C169.529 93.1503 169.572 93.0441 169.568 92.9292C169.564 92.8142 169.513 92.7114 169.435 92.6384C169.357 92.5654 169.251 92.5221 169.136 92.5263C169.021 92.5304 168.918 92.5812 168.845 92.6597C168.772 92.7382 168.729 92.8444 168.733 92.9593C168.738 93.0742 168.788 93.177 168.867 93.2501C168.945 93.3231 169.051 93.3664 169.166 93.3622ZM167.88 93.3537C165.939 93.4081 164.175 93.8981 162.623 94.7754C160.982 95.7057 159.576 97.0748 158.451 98.8339L158.095 99.3882L157.7 98.861C155.825 96.347 153.377 94.7534 150.522 94.2443C147.753 93.7479 144.592 94.2648 141.181 95.939L140.549 96.2495L140.057 82.6C139.937 79.2823 141.153 75.7699 144.084 72.1512C146.733 68.8827 150.786 65.5217 156.531 62.1309L156.743 62.0056L156.964 62.1153C157.959 62.6104 158.91 63.1097 159.821 63.613C160.333 63.898 160.832 64.1808 161.315 64.4668C161.544 64.2336 161.86 64.0861 162.213 64.0734C162.565 64.0607 162.92 64.197 163.169 64.4313C163.42 64.6655 163.581 64.9919 163.594 65.3602C163.607 65.7286 163.471 66.0683 163.237 66.3174C163.003 66.5691 162.677 66.73 162.309 66.7433C161.941 66.7565 161.602 66.6197 161.353 66.3854C161.102 66.1512 160.941 65.8248 160.928 65.4565C160.926 65.4042 160.926 65.3519 160.932 65.2993C160.433 65.0035 159.916 64.7082 159.383 64.4136C158.562 63.9593 157.694 63.5041 156.781 63.0453C151.246 66.3368 147.34 69.5827 144.792 72.7273C142.013 76.1574 140.858 79.461 140.97 82.567L141.412 94.8216C144.766 93.2959 147.9 92.8479 150.682 93.3466C153.575 93.8647 156.073 95.4016 158.036 97.8157C159.179 96.1841 160.569 94.8914 162.174 93.9834C163.869 93.025 165.796 92.4951 167.913 92.4422C167.975 92.2935 168.062 92.1543 168.17 92.038C168.404 91.7863 168.73 91.6254 169.098 91.6121C169.465 91.5988 169.805 91.7357 170.054 91.97C170.305 92.2042 170.466 92.5306 170.479 92.8989C170.492 93.2673 170.356 93.607 170.122 93.8561C169.888 94.1078 169.562 94.2687 169.194 94.2819C168.826 94.2952 168.487 94.1584 168.238 93.9241C168.073 93.7705 167.946 93.5763 167.878 93.3564L167.88 93.3537Z" fill="#32C0CF"/>
<path fill-rule="evenodd" clip-rule="evenodd" d="M164.053 70.0499C164.168 70.0458 164.271 69.995 164.343 69.9165C164.416 69.838 164.46 69.7318 164.455 69.6169C164.451 69.5019 164.401 69.3991 164.322 69.3261C164.244 69.2531 164.138 69.2098 164.023 69.2139C163.908 69.2181 163.805 69.2689 163.733 69.3474C163.66 69.4259 163.616 69.532 163.621 69.647C163.625 69.7619 163.675 69.8647 163.754 69.9378C163.832 70.0108 163.938 70.054 164.053 70.0499ZM173.521 91.7172C173.636 91.713 173.739 91.6622 173.812 91.5837C173.885 91.5053 173.928 91.3991 173.924 91.2841C173.92 91.1692 173.869 91.0664 173.79 90.9933C173.712 90.9203 173.606 90.8771 173.491 90.8812C173.376 90.8854 173.274 90.9361 173.201 91.0146C173.128 91.0931 173.085 91.1993 173.089 91.3142C173.093 91.4292 173.144 91.532 173.222 91.605C173.301 91.678 173.407 91.7213 173.521 91.7172ZM174.482 92.2083C174.248 92.46 173.922 92.6208 173.554 92.6341C173.187 92.6474 172.847 92.5105 172.598 92.2762C172.379 92.0723 172.231 91.7977 172.186 91.4881C169.52 90.8859 166.899 90.8654 164.488 91.5122C162.183 92.129 160.061 93.3565 158.27 95.2704L157.961 95.6007L157.628 95.2936C155.704 93.5163 153.5 92.445 151.156 91.9933C148.659 91.5158 145.998 91.74 143.334 92.5686L142.763 92.7461L142.394 82.5135C142.256 78.6864 144.346 75.153 147.225 72.1168C150.059 69.1293 153.665 66.6189 156.627 64.8013L156.844 64.6679L157.073 64.7852C157.795 65.1593 158.493 65.5344 159.165 65.9129C159.85 66.2989 160.534 66.7032 161.212 67.126C161.605 67.3708 162.004 67.6258 162.402 67.8887C162.707 68.0896 163.013 68.2957 163.316 68.5071C163.51 68.3824 163.739 68.3061 163.987 68.2971C164.355 68.2838 164.694 68.4207 164.943 68.655C165.195 68.8892 165.355 69.2156 165.369 69.5839C165.382 69.9522 165.245 70.292 165.011 70.5411C164.777 70.7928 164.451 70.9537 164.084 70.9669C163.716 70.9802 163.376 70.8434 163.128 70.6091C162.876 70.3749 162.715 70.0485 162.702 69.6801C162.697 69.526 162.717 69.3762 162.762 69.2359C162.47 69.0346 162.183 68.8409 161.9 68.6523C161.498 68.3869 161.108 68.1394 160.731 67.9045C160.074 67.4967 159.401 67.0998 158.716 66.7139C158.094 66.3622 157.484 66.0311 156.88 65.7155C154.015 67.4877 150.586 69.8977 147.883 72.7444C145.155 75.6182 143.177 78.9357 143.304 82.4807L143.631 91.5246C146.243 90.7921 148.854 90.622 151.325 91.0953C153.698 91.5511 155.935 92.6003 157.912 94.3234C159.76 92.4623 161.916 91.2545 164.25 90.6288C166.806 89.9454 169.571 89.9607 172.373 90.592C172.417 90.5197 172.47 90.4525 172.528 90.3902C172.762 90.1385 173.088 89.9776 173.455 89.9644C173.823 89.9511 174.163 90.0879 174.411 90.3222C174.663 90.5564 174.824 90.8828 174.837 91.2512C174.85 91.6195 174.714 91.9593 174.48 92.2083L174.482 92.2083Z" fill="#232323"/>
<path d="M158.272 91.4796L157.354 91.5127L157.468 94.6841L158.386 94.6509L158.272 91.4796Z" fill="#232323"/>
<path fill-rule="evenodd" clip-rule="evenodd" d="M161.419 76.3863L163.383 77.4638L165.458 80.2505L163.589 83.1796L161.623 84.4512L158.528 81.4318L158.517 81.4113C158.717 81.1582 158.831 80.835 158.818 80.4875C158.806 80.1401 158.666 79.8208 158.443 79.5829L161.416 76.3838L161.419 76.3863Z" fill="#32C0CF"/>
<path fill-rule="evenodd" clip-rule="evenodd" d="M153.128 76.6853L151.246 77.9015L149.377 80.8306L151.453 83.6173L153.505 84.7439L156.374 81.5093L156.384 81.4906C156.164 81.2527 156.027 80.9385 156.014 80.5911C156.002 80.2436 156.118 79.9125 156.323 79.6592L153.128 76.6827L153.128 76.6853Z" fill="#32C0CF"/>
<path fill-rule="evenodd" clip-rule="evenodd" d="M153.243 76.5632L154.319 74.5966L157.102 72.5186L160.027 74.3906L161.298 76.3589L158.292 79.4467C158.039 79.2413 157.714 79.1249 157.364 79.1375C157.015 79.1501 156.675 79.301 156.433 79.5373L153.24 76.5633L153.243 76.5632Z" fill="#32C0CF"/>
<path fill-rule="evenodd" clip-rule="evenodd" d="M153.543 84.8629L154.758 86.7468L157.683 88.6188L160.466 86.5408L161.591 84.4861L158.36 81.6129L158.336 81.6033C158.101 81.8079 157.8 81.9339 157.466 81.946C157.132 81.958 156.791 81.8421 156.535 81.6369L153.54 84.8603L153.543 84.8629Z" fill="#32C0CF"/>
<path fill-rule="evenodd" clip-rule="evenodd" d="M161.635 85.0459L158.113 81.7621C158.358 81.6198 158.56 81.4059 158.681 81.1504L162.249 84.4797C161.962 84.5554 161.732 84.7704 161.633 85.0486L161.635 85.0459ZM162.006 86.1181L160.908 88.1221L160.792 88.2571L158.363 90.0712C158.198 89.9332 157.984 89.8546 157.754 89.8629C157.525 89.8712 157.317 89.9651 157.163 90.1145L154.609 88.4802L154.484 88.354L153.244 86.4316C153.476 86.2611 153.623 85.9812 153.611 85.6703C153.607 85.5606 153.585 85.4567 153.545 85.3614L155.134 87.8257L157.744 89.4945L160.227 87.6419L161.626 85.0829C161.595 85.1781 161.581 85.2781 161.585 85.3852C161.596 85.696 161.762 85.9647 162.008 86.118L162.006 86.1181ZM152.878 84.8179L156.197 81.2401C156.339 81.486 156.553 81.685 156.808 81.8092L153.532 85.341C153.415 85.0732 153.17 84.8753 152.878 84.8179ZM156.15 79.9313L152.581 76.602C152.868 76.5237 153.098 76.3087 153.196 76.0332L156.718 79.3196C156.472 79.4593 156.271 79.6758 156.15 79.9313ZM152.828 74.9635L153.926 72.9568L154.041 72.8219L156.471 71.0078C156.635 71.1458 156.849 71.2243 157.079 71.2161C157.308 71.2078 157.517 71.1139 157.671 70.9645L160.224 72.5987L160.349 72.725L161.586 74.6448C161.352 74.8154 161.205 75.0954 161.217 75.4063C161.22 75.5108 161.242 75.612 161.28 75.7048L159.7 73.2533L157.09 71.5845L154.607 73.4371L153.2 76.0095C153.233 75.9115 153.248 75.8063 153.244 75.6966C153.232 75.3858 153.066 75.1171 152.823 74.9637L152.828 74.9635ZM161.956 76.2637L158.636 79.8415C158.494 79.5956 158.281 79.394 158.025 79.2724L161.302 75.7432C161.421 76.011 161.664 76.2089 161.958 76.2662L161.956 76.2637Z" fill="#232323"/>
<path fill-rule="evenodd" clip-rule="evenodd" d="M152.915 84.77L156.199 81.2405C156.342 81.4865 156.555 81.6881 156.81 81.8096L153.531 85.3337C153.383 85.0094 153.052 84.7886 152.676 84.8022C152.376 84.813 152.118 84.9688 151.961 85.1968L149.845 84.0359L149.71 83.9204L147.898 81.4878C148.036 81.3233 148.114 81.1086 148.106 80.8787C148.098 80.6488 148.004 80.4403 147.855 80.2861L149.487 77.7292L149.613 77.6043L151.64 76.2939C151.812 76.51 152.081 76.6468 152.381 76.636C152.759 76.6223 153.072 76.3782 153.196 76.0442L156.721 79.3227C156.475 79.4649 156.274 79.6789 156.152 79.9343L152.622 76.6508L150.143 78.2548L148.477 80.8679L150.327 83.3541L152.915 84.7752L152.915 84.77ZM158.028 79.2755L161.305 75.7515C161.452 76.0732 161.784 76.294 162.16 76.2804C162.46 76.2696 162.718 76.1138 162.874 75.8832L164.993 77.044L165.128 77.1595L166.94 79.5921C166.802 79.7567 166.724 79.9714 166.732 80.2012C166.74 80.4311 166.834 80.6396 166.983 80.7938L165.351 83.3507L165.225 83.4756L163.196 84.7861C163.023 84.5674 162.752 84.4307 162.454 84.4414C162.079 84.455 161.763 84.6966 161.64 85.0306L158.117 81.752C158.363 81.6097 158.562 81.3959 158.686 81.1403L162.216 84.4265L164.695 82.8225L166.361 80.2094L164.511 77.7232L161.923 76.3021L158.638 79.8342C158.499 79.5881 158.283 79.3866 158.027 79.2651L158.028 79.2755Z" fill="#232323"/>
<path fill-rule="evenodd" clip-rule="evenodd" d="M162.502 85.8389C162.635 85.8341 162.756 85.7749 162.839 85.6855C162.924 85.5935 162.972 85.4715 162.967 85.3382C162.962 85.205 162.903 85.0842 162.814 85.0011C162.722 84.9155 162.6 84.8676 162.467 84.8724C162.334 84.8772 162.213 84.9365 162.13 85.0258C162.045 85.1178 161.997 85.2399 162.002 85.3731C162.007 85.5063 162.066 85.6271 162.155 85.7102C162.247 85.7958 162.369 85.8437 162.502 85.8389ZM163.452 86.2546C163.223 86.5009 162.897 86.6617 162.532 86.6749C162.167 86.6881 161.833 86.551 161.584 86.322C161.338 86.0928 161.177 85.7664 161.164 85.4007C161.151 85.035 161.288 84.7004 161.517 84.4515C161.745 84.2052 162.071 84.0444 162.437 84.0312C162.802 84.018 163.136 84.1551 163.385 84.3841C163.631 84.6133 163.791 84.9397 163.805 85.3054C163.818 85.6711 163.681 86.0057 163.452 86.2546ZM152.726 86.1918C152.859 86.187 152.98 86.1277 153.063 86.0384C153.148 85.9463 153.196 85.8243 153.191 85.6911C153.186 85.5578 153.127 85.437 153.038 85.3539C152.946 85.2683 152.824 85.2204 152.691 85.2252C152.558 85.23 152.437 85.2893 152.354 85.3786C152.269 85.4706 152.221 85.5927 152.226 85.7259C152.231 85.8591 152.29 85.9799 152.379 86.063C152.471 86.1486 152.593 86.1966 152.726 86.1918ZM153.676 86.6074C153.447 86.8537 153.121 87.0145 152.756 87.0277C152.391 87.0409 152.057 86.9039 151.808 86.6748C151.562 86.4456 151.401 86.1192 151.388 85.7535C151.375 85.3878 151.512 85.0533 151.741 84.8043C151.969 84.5581 152.295 84.3972 152.661 84.384C153.026 84.3708 153.36 84.5079 153.609 84.7369C153.855 84.9661 154.015 85.2925 154.029 85.6582C154.042 86.0239 153.905 86.3585 153.676 86.6074ZM152.366 76.2152C152.499 76.2104 152.62 76.1511 152.703 76.0618C152.788 75.9698 152.836 75.8477 152.831 75.7145C152.826 75.5812 152.767 75.4604 152.678 75.3773C152.586 75.2917 152.464 75.2438 152.331 75.2486C152.198 75.2534 152.077 75.3127 151.994 75.402C151.909 75.494 151.861 75.6161 151.866 75.7493C151.871 75.8825 151.93 76.0034 152.019 76.0865C152.111 76.1721 152.233 76.22 152.366 76.2152ZM153.316 76.6308C153.087 76.8771 152.761 77.038 152.396 77.0511C152.031 77.0643 151.697 76.9273 151.448 76.6982C151.202 76.4691 151.041 76.1427 151.028 75.7769C151.015 75.4112 151.152 75.0767 151.381 74.8278C151.609 74.5815 151.935 74.4206 152.301 74.4074C152.666 74.3943 153 74.5313 153.249 74.7604C153.497 74.9894 153.655 75.3159 153.669 75.6816C153.682 76.0474 153.545 76.3819 153.316 76.6308ZM162.142 75.8624C162.275 75.8576 162.396 75.7983 162.479 75.709C162.564 75.617 162.612 75.4949 162.607 75.3617C162.602 75.2284 162.543 75.1076 162.454 75.0245C162.362 74.9415 162.24 74.891 162.107 74.8958C161.974 74.9006 161.853 74.9599 161.77 75.0492C161.685 75.1412 161.637 75.2633 161.642 75.3965C161.647 75.5297 161.706 75.6505 161.795 75.7336C161.887 75.8193 162.009 75.8672 162.142 75.8624ZM163.092 76.278C162.863 76.5243 162.537 76.6851 162.172 76.6983C161.807 76.7115 161.473 76.5745 161.224 76.3454C160.978 76.1163 160.817 75.7899 160.804 75.4241C160.791 75.0584 160.928 74.7239 161.157 74.475C161.385 74.2287 161.711 74.0678 162.077 74.0546C162.442 74.0414 162.776 74.1785 163.025 74.4075C163.271 74.6367 163.431 74.9631 163.445 75.3288C163.458 75.6946 163.321 76.0291 163.092 76.278Z" fill="#232323"/>
<path fill-rule="evenodd" clip-rule="evenodd" d="M157.453 81.528C157.724 81.5182 157.968 81.3995 158.139 81.2155C158.31 81.0314 158.41 80.7793 158.401 80.5076C158.391 80.2359 158.272 79.9917 158.088 79.8205C157.905 79.6492 157.653 79.5485 157.382 79.5582C157.11 79.568 156.866 79.6867 156.695 79.8707C156.524 80.0548 156.424 80.3069 156.433 80.5786C156.443 80.8503 156.562 81.0945 156.746 81.2657C156.929 81.437 157.181 81.5378 157.453 81.528ZM158.752 81.7845C158.433 82.1282 157.986 82.3484 157.483 82.3665C156.979 82.3847 156.518 82.1973 156.175 81.8775C155.831 81.5577 155.611 81.1105 155.593 80.6063C155.575 80.1021 155.762 79.6402 156.082 79.2965C156.401 78.9528 156.848 78.7326 157.351 78.7145C157.855 78.6963 158.316 78.8837 158.659 79.2035C159.003 79.5233 159.222 79.9705 159.241 80.4747C159.259 80.9789 159.072 81.4408 158.752 81.7845Z" fill="#232323"/>
<path fill-rule="evenodd" clip-rule="evenodd" d="M158.269 90.7516C158.264 90.6184 158.205 90.4976 158.115 90.4145C158.024 90.3289 157.902 90.281 157.769 90.2858C157.636 90.2906 157.515 90.3499 157.432 90.4392C157.346 90.5312 157.299 90.6533 157.303 90.7865C157.308 90.9197 157.367 91.0405 157.457 91.1236C157.548 91.2092 157.67 91.2572 157.803 91.2524C157.937 91.2476 158.057 91.1883 158.14 91.099C158.226 91.0069 158.273 90.8849 158.269 90.7516ZM158.684 89.8002C158.93 90.0294 159.09 90.3558 159.104 90.7215C159.117 91.0872 158.98 91.4218 158.751 91.6707C158.522 91.917 158.196 92.0778 157.831 92.091C157.466 92.1042 157.132 91.9672 156.883 91.7381C156.637 91.5089 156.476 91.1825 156.463 90.8168C156.45 90.4511 156.587 90.1166 156.816 89.8676C157.044 89.6187 157.37 89.4605 157.736 89.4473C158.101 89.4341 158.435 89.5712 158.684 89.8002ZM147.217 81.3937C147.35 81.3889 147.471 81.3296 147.554 81.2403C147.64 81.1483 147.687 81.0262 147.683 80.893C147.678 80.7598 147.619 80.639 147.529 80.5559C147.437 80.4703 147.316 80.4223 147.183 80.4271C147.049 80.4319 146.929 80.4912 146.846 80.5805C146.76 80.6726 146.712 80.7946 146.717 80.9278C146.722 81.0611 146.781 81.1819 146.871 81.265C146.962 81.3506 147.084 81.3985 147.217 81.3937ZM148.168 81.8093C147.939 82.0556 147.613 82.2165 147.248 82.2297C146.882 82.2429 146.548 82.1058 146.3 81.8767C146.051 81.6477 145.893 81.3212 145.88 80.9555C145.866 80.5897 146.003 80.2552 146.232 80.0063C146.461 79.76 146.787 79.5991 147.152 79.586C147.517 79.5728 147.852 79.7098 148.1 79.9389C148.349 80.1679 148.507 80.4944 148.52 80.8602C148.533 81.2259 148.396 81.5604 148.168 81.8093ZM157.528 70.2944C157.523 70.1612 157.464 70.0404 157.375 69.9573C157.283 69.8717 157.161 69.8237 157.028 69.8285C156.895 69.8333 156.774 69.8926 156.691 69.9819C156.605 70.074 156.558 70.196 156.562 70.3292C156.567 70.4625 156.626 70.5833 156.716 70.6664C156.808 70.752 156.929 70.7999 157.063 70.7951C157.196 70.7903 157.316 70.731 157.399 70.6417C157.485 70.5497 157.533 70.4276 157.528 70.2944ZM157.943 69.343C158.189 69.5721 158.349 69.8986 158.363 70.2643C158.376 70.63 158.239 70.9645 158.01 71.2134C157.781 71.4597 157.455 71.6206 157.09 71.6338C156.725 71.647 156.391 71.5099 156.142 71.2809C155.894 71.0518 155.736 70.7253 155.722 70.3596C155.709 69.9938 155.846 69.6593 156.075 69.4104C156.304 69.1641 156.63 69.0033 156.995 68.9901C157.36 68.9769 157.694 69.1139 157.943 69.343ZM167.643 80.6566C167.777 80.6518 167.897 80.5925 167.98 80.5032C168.066 80.4111 168.114 80.2891 168.109 80.1558C168.104 80.0226 168.045 79.9018 167.955 79.8187C167.864 79.7331 167.742 79.6852 167.609 79.69C167.476 79.6948 167.355 79.7541 167.272 79.8434C167.186 79.9354 167.139 80.0575 167.143 80.1907C167.148 80.3239 167.207 80.4447 167.297 80.5278C167.389 80.6134 167.51 80.6614 167.643 80.6566ZM168.594 81.0722C168.365 81.3185 168.039 81.4793 167.674 81.4925C167.308 81.5057 166.974 81.3686 166.726 81.1396C166.48 80.9104 166.319 80.584 166.306 80.2183C166.293 79.8526 166.429 79.518 166.658 79.2691C166.887 79.0228 167.213 78.862 167.578 78.8488C167.943 78.8356 168.278 78.9727 168.526 79.2017C168.772 79.4309 168.933 79.7573 168.946 80.123C168.959 80.4887 168.822 80.8233 168.594 81.0722Z" fill="#232323"/>
<path opacity="0.6" d="M149.199 134.41L149.249 135.73L181.159 134.52L181.109 133.2L149.199 134.41Z" fill="#75726A"/>
<path opacity="0.24" d="M133.43 103.67L133.48 104.99L179.99 103.22L179.94 101.9L133.43 103.67Z" fill="#75726A"/>
<path opacity="0.24" d="M133.65 109.58L133.7 110.86L154.81 110.06L154.76 108.78L133.65 109.58Z" fill="#75726A"/>
<path opacity="0.24" d="M133.539 106.61L133.589 107.93L180.099 106.16L180.049 104.84L133.539 106.61Z" fill="#75726A"/>
<path opacity="0.24" d="M133.84 114.67L133.89 115.99L180.39 114.22L180.34 112.9L133.84 114.67Z" fill="#75726A"/>
<path opacity="0.24" d="M134.07 120.59L134.12 121.87L155.23 121.07L155.18 119.79L134.07 120.59Z" fill="#75726A"/>
<path opacity="0.24" d="M133.959 117.61L134.009 118.93L180.509 117.16L180.459 115.84L133.949 117.61H133.959Z" fill="#75726A"/>
<path d="M152.42 132.72C153.82 130.57 155.81 128.81 158.1 127.65C158.75 127.32 159.43 127.04 160.13 126.81C160.07 126.78 160 126.74 159.94 126.71C160.19 127.75 160.06 128.86 159.59 129.82C159.54 129.91 159.59 130.01 159.69 130.04C160.05 130.16 160.44 130.12 160.8 130.02C161.15 129.93 161.5 129.77 161.86 129.73C162.3 129.68 163.03 129.79 163.08 130.35C163.08 130.45 163.18 130.52 163.28 130.49C165.43 129.93 167.7 130.87 169.82 130.09C170.33 129.91 170.79 129.63 171.17 129.24C171.26 129.15 171.18 128.97 171.05 128.98C169.14 129.19 167.23 129.41 165.32 129.62C164.78 129.68 164.23 129.74 163.69 129.8C163.53 129.82 163.48 130.08 163.66 130.1C165.84 130.33 168.03 130.47 170.23 130.5C172.43 130.53 174.63 130.47 176.82 130.3C178.06 130.21 179.3 130.08 180.53 129.92C180.72 129.9 180.71 129.59 180.52 129.62C178.35 129.9 176.16 130.08 173.98 130.16C171.8 130.24 169.62 130.22 167.44 130.11C166.2 130.04 164.97 129.94 163.74 129.81C163.73 129.91 163.72 130.01 163.71 130.11C165.62 129.9 167.53 129.68 169.44 129.47C169.98 129.41 170.53 129.35 171.07 129.29C171.03 129.2 170.99 129.12 170.95 129.03C170.28 129.71 169.34 129.99 168.42 130.08C167.33 130.18 166.24 130.02 165.16 130C164.5 129.99 163.84 130.03 163.19 130.2C163.26 130.25 163.32 130.29 163.39 130.34C163.34 129.7 162.67 129.43 162.11 129.42C161.32 129.4 160.57 130.01 159.77 129.75C159.8 129.82 159.84 129.9 159.87 129.97C160.37 128.93 160.5 127.74 160.24 126.62C160.22 126.54 160.12 126.5 160.05 126.52C157.55 127.34 155.27 128.84 153.52 130.81C153.02 131.36 152.57 131.96 152.17 132.58C152.06 132.74 152.33 132.89 152.44 132.72H152.42Z" fill="#6D6E70"/>
<path d="M168.09 157.71C168.09 157.71 172.29 157.24 173.38 155.65C174.47 154.06 178.35 148.12 178.66 145.24C178.97 142.35 180.61 138.81 183.67 136.98C186.73 135.15 195.39 130.35 195.39 130.35L199.04 141.32L219.81 142.58L229.7 143.15C229.7 143.15 233.64 144.43 233.48 147.4C233.25 151.74 230.67 152.16 230.67 152.16C230.67 152.16 233.97 153.51 232.74 156.96C231.51 160.41 228.89 160.17 228.89 160.17C228.89 160.17 231.2 163.32 230.06 165.24C228.92 167.16 226.78 167.97 226.78 167.97C226.78 167.97 227.84 170.8 225.85 172.46C223.85 174.12 214.5 174.34 209.9 176C205.3 177.66 189.48 178.28 185.72 177.31C181.96 176.34 177.78 179.1 177.78 179.1L168.09 157.69V157.71Z" fill="#EF9D95"/>
<path d="M228.889 160.18C228.889 160.18 231.499 160.42 232.739 156.97C233.979 153.52 230.669 152.17 230.669 152.17C230.669 152.17 233.239 151.74 233.479 147.4C233.669 144.04 229.699 143.15 229.699 143.15L220.289 142.61L217.779 142.46C217.939 142.88 222.129 144.54 220.679 148.17C219.229 151.8 215.469 152.52 215.469 152.52C215.469 152.52 219.269 155.4 218.339 157.86C217.409 160.33 215.569 161.14 215.569 161.14C215.569 161.14 218.869 163.71 216.899 166.32C214.919 168.94 211.539 170.79 211.539 170.79L211.559 175.53C216.459 174.3 224.069 173.96 225.849 172.48C227.849 170.82 226.779 167.99 226.779 167.99C226.779 167.99 228.919 167.18 230.059 165.26C231.199 163.34 228.889 160.19 228.889 160.19V160.18Z" fill="#E88C82"/>
<path d="M171.371 158.01C171.181 157.7 170.981 157.4 170.761 157.1C169.121 157.92 166.721 158.19 166.721 158.19L176.401 179.6C176.401 179.6 178.291 178.36 180.671 177.83C179.651 175.53 178.611 173.24 177.591 170.95C176.291 168.03 175.031 165.1 173.601 162.25C172.881 160.82 172.201 159.37 171.371 158.01Z" fill="#E88C82"/>
<path d="M191.541 181.46C190.071 181.43 187.861 180.77 187.591 177.69C187.311 174.61 188.081 167.52 188.081 167.52C188.081 167.52 189.601 164.41 192.601 164.8C195.601 165.19 196.421 167.61 196.421 167.61C196.421 167.61 197.221 164.01 200.191 163.87C204.421 163.67 204.831 167.12 204.831 167.12C204.831 167.12 206.331 164.68 209.581 164.94C211.931 165.13 212.851 167.99 212.851 167.99C212.851 167.99 213.571 166.57 216.131 167.21C218.301 167.75 219.071 172.75 219.041 174.99C219.011 177.23 218.291 179.84 215.791 179.7C212.981 179.55 211.981 176.13 211.981 176.13C211.981 176.13 211.571 179.14 210.881 180.01C210.191 180.88 208.311 181.86 206.421 181.36C204.531 180.86 204.451 179 204.451 179C204.451 179 203.381 182.38 200.451 182.34C196.601 182.29 195.431 178.88 195.431 178.88C195.431 178.88 194.201 181.52 191.551 181.46H191.541Z" fill="#F27661"/>
<path d="M196.221 171.23C196.221 171.32 196.221 171.41 196.211 171.5C196.211 171.4 196.211 171.3 196.211 171.2C196.211 171.21 196.211 171.22 196.231 171.23H196.221Z" fill="#DCA07D"/>
<path d="M194.1 166.72C194.1 166.72 193.42 166.1 192.39 166.09C191.28 166.07 190.7 166.37 190.46 166.6C190.39 166.67 190.34 166.75 190.31 166.84L189.25 170.07C189.07 170.6 189.32 170.82 189.79 171.13C190.39 171.53 191.32 171.95 192.43 171.78C193.6 171.6 194.27 171.3 194.62 171.09C194.83 170.96 194.95 170.73 194.92 170.49C194.84 169.54 194.57 166.97 194.11 166.72H194.1Z" fill="#FB8177"/>
<path d="M202.67 166.4C202.73 166.46 203.92 169.79 203.88 170.11C203.84 170.43 202.72 171.17 200.99 171.22C199.26 171.27 198.55 170.81 198.37 170.55C198.19 170.29 198.93 167.03 199.05 166.86C199.17 166.7 200.03 165.99 201.04 165.94C202.05 165.89 202.67 166.39 202.67 166.39V166.4Z" fill="#FB8177"/>
<path d="M210.509 167.17C210.709 167.59 211.339 170.92 211.259 171.18C211.179 171.44 210.089 172.04 208.249 171.88C206.409 171.71 206.069 171.18 205.989 170.95C205.909 170.72 206.809 167.63 207.029 167.31C207.239 166.99 208.019 166.41 209.059 166.47C210.109 166.52 210.509 167.18 210.509 167.18V167.17Z" fill="#FB8177"/>
<path d="M216.269 168.57C216.549 169.03 217.159 172.05 217.159 172.05C217.159 172.05 216.759 172.569 215.239 172.649C213.719 172.729 213.379 172.19 213.379 172.19C213.379 172.19 213.719 168.95 213.919 168.75C214.119 168.55 214.389 168.21 215.139 168.17C215.889 168.14 216.269 168.56 216.269 168.56V168.57Z" fill="#FB8177"/>
<path d="M210.05 117.41C210.05 117.41 209.15 119.96 207.23 121.4C205.32 122.84 198.52 125.09 197.35 126.22C196.18 127.34 193.41 132.2 191.5 134.52C189.59 136.85 187.31 139.49 187.13 140.23C186.95 140.97 188.66 143.89 188.46 145.52C188.26 147.15 186.98 151.48 187.65 152.1C188.32 152.73 190.8 155.33 193.79 151.91C196.78 148.49 196.57 143.77 196.57 143.77L198.95 141.39L228.94 143.21C228.94 143.21 228.17 139.04 229.09 136.06C230.01 133.07 232.24 129.88 232.24 129.88L210.05 117.41Z" fill="#F27661"/>
<path d="M192.87 132.67C192.48 133.54 191.99 134.36 191.44 135.13C190.55 136.41 189.57 137.64 188.63 138.86C188.29 139.32 187.9 139.79 187.64 140.28C187.64 140.3 187.63 140.31 187.62 140.33C187.62 140.35 187.62 140.37 187.62 140.4C187.67 140.85 187.84 141.3 187.97 141.75C188.15 142.35 188.33 142.96 188.46 143.59C188.57 144.22 188.66 144.89 188.48 145.51C188.43 144.88 188.2 144.31 187.97 143.74C187.67 143.04 187.32 142.32 187.01 141.61C186.86 141.22 186.69 140.84 186.65 140.41C186.65 140.38 186.65 140.3 186.65 140.26C186.65 140.17 186.68 140.07 186.7 139.99C186.96 139.31 187.4 138.79 187.81 138.22C189.36 136.22 191.14 134.48 192.89 132.66L192.87 132.67Z" fill="#E55B57"/>
<path d="M188.77 145.21C188.41 145.28 188.33 145.25 188.27 145.63C188.13 146.62 187.53 149.25 187.47 149.74C187.43 150.1 187.1 151.51 187.2 151.73C187.52 152.41 188.82 152.49 189.57 152.31C190.53 152.08 190.99 151.9 191.42 151.02C191.83 150.19 191.96 148.56 191.86 147.64C191.68 146.06 191.21 145.66 190.73 145.4C190.24 145.14 189.28 145.11 188.76 145.22L188.77 145.21Z" fill="#FB8177"/>
<path d="M230.739 132.03C231.599 130.41 232.439 129.2 232.439 129.2L210.249 116.73C210.249 116.73 210.129 117.08 209.879 117.59" fill="#E55B57"/>
<path d="M213.781 109.74L208.871 116.98L234.331 132.97L244.141 118.02L213.781 109.74Z" fill="white"/>
<path d="M224.149 126.57L227.169 120.34L221.859 113.95L213.789 109.75L244.149 118.03L234.339 132.98L224.149 126.58V126.57Z" fill="#EDEFEF"/>
<path d="M162.221 158.94L170.221 155.41L181.381 183.33L164.911 190.3L162.221 158.94Z" fill="white"/>
<path d="M176.92 172.16L170.25 174.01L164.83 167.71L162.23 158.94L164.92 190.3L181.39 183.33L176.92 172.16Z" fill="#EDEFEF"/>
<path d="M264.139 34.0001L285.659 74.0101L285.009 74.8001L242.749 125.95L210.199 108.13C210.199 108.13 264.239 33.9201 264.139 34.0001Z" fill="#262261"/>
<path d="M161.29 155.13L172.98 190.35L116.58 220.33L13 224.93L85.51 188.7C85.42 188.78 161.29 155.13 161.29 155.13Z" fill="#231F20"/>
<path d="M235.48 127.52C236.27 126.84 236.36 125.66 235.68 124.87C235 124.08 233.82 123.99 233.03 124.67C232.24 125.35 232.15 126.53 232.83 127.32C233.51 128.11 234.69 128.2 235.48 127.52Z" fill="#231F20"/>
<path d="M177.361 183.13C178.151 182.45 178.241 181.27 177.561 180.48C176.881 179.69 175.701 179.6 174.911 180.28C174.121 180.96 174.031 182.14 174.711 182.93C175.391 183.72 176.571 183.81 177.361 183.13Z" fill="#231F20"/>
<path d="M285.009 74.7999L242.739 125.95L210.189 108.13C210.459 108.18 249.469 115.37 284.779 74.6299L285.009 74.7999Z" fill="#2B388F"/>
<path d="M161.29 155.13L172.98 190.35L116.58 220.33C143.3 200.61 161.29 155.13 161.29 155.13Z" fill="#282828"/>
<path d="M193.789 151.91C195.329 149.89 196.079 147.35 196.199 144.84C196.219 144.44 196.219 144.02 196.199 143.63C196.829 142.96 197.999 141.74 198.639 141.07L198.769 140.93H198.979C208.359 141.36 217.739 141.96 227.079 142.99C227.689 143.05 228.349 143.14 228.949 143.21C228.359 143.21 227.639 143.21 227.069 143.21C220.179 143.13 213.299 142.8 206.429 142.37C203.929 142.21 201.429 142.04 198.939 141.84L199.279 141.71C198.679 142.29 197.449 143.46 196.849 144.04L196.959 143.76C196.959 143.96 196.959 144.14 196.939 144.34C196.739 147.1 195.779 149.92 193.809 151.92L193.789 151.91Z" fill="#E55B57"/>
<path d="M209.529 142.5C210.239 141.57 211.059 140.67 211.779 139.76C212.539 138.84 213.149 137.9 213.939 136.96C213.909 139.4 211.889 141.91 209.529 142.5Z" fill="#E55B57"/>
<path d="M216.121 167.2C216.891 167.25 217.511 167.89 217.911 168.51C218.711 169.79 219.031 171.29 219.141 172.77C219.181 173.51 219.181 174.25 219.031 174.98C218.891 174.25 218.761 173.55 218.621 172.84C218.251 171.25 217.701 167.94 216.131 167.2H216.121Z" fill="#E55B57"/>
<path d="M211.77 176.56C211.64 175.03 211.71 173.51 211.84 171.99C211.98 170.47 212.18 168.96 212.58 167.48C212.72 169.01 212.64 170.53 212.51 172.05C212.37 173.57 212.17 175.08 211.77 176.56Z" fill="#E55B57"/>
<path d="M204.14 175.97C204.01 174.44 204.08 172.92 204.21 171.4C204.35 169.88 204.55 168.37 204.95 166.89C205.08 168.42 205.01 169.94 204.88 171.46C204.74 172.98 204.54 174.49 204.14 175.97Z" fill="#E55B57"/>
<path d="M227.031 167.97C225.501 168.09 223.981 168 222.461 167.86C220.941 167.7 219.431 167.49 217.961 167.08C219.491 166.96 221.011 167.05 222.531 167.19C224.051 167.35 225.561 167.56 227.031 167.97Z" fill="#E88C82"/>
<path d="M229.019 160.13C227.489 160.25 225.969 160.16 224.449 160.02C222.929 159.86 221.419 159.65 219.949 159.24C221.479 159.12 222.999 159.21 224.519 159.35C226.039 159.51 227.549 159.72 229.019 160.13Z" fill="#E88C82"/>
<path d="M230.849 152.21C229.319 152.33 227.799 152.24 226.279 152.1C224.759 151.94 223.249 151.73 221.779 151.32C223.309 151.2 224.829 151.29 226.349 151.43C227.869 151.59 229.379 151.8 230.849 152.21Z" fill="#E88C82"/>
<path d="M195.77 176.61C195.64 175.08 195.71 173.56 195.84 172.04C195.98 170.52 196.18 169.01 196.58 167.53C196.71 169.06 196.64 170.58 196.51 172.1C196.37 173.62 196.17 175.13 195.77 176.61Z" fill="#E55B57"/>
</g>
</g>
<defs>
<linearGradient id="paint0_linear_213_1064" x1="122.13" y1="110.57" x2="210.48" y2="92.4202" gradientUnits="userSpaceOnUse">
<stop stop-color="#2483C5"/>
<stop offset="1" stop-color="#2483C5"/>
</linearGradient>
<clipPath id="clip0_213_1064">
<rect width="241.66" height="190.93" fill="white" transform="translate(44 34)"/>
</clipPath>
</defs>
</svg>
