<svg width="21" height="21" viewBox="0 0 21 21" fill="none" xmlns="http://www.w3.org/2000/svg">
<path d="M16.625 7.875C16.625 9.14375 16.2487 10.3075 15.6012 11.2788C14.6562 12.6788 13.16 13.6675 11.4188 13.9212C11.1213 13.9737 10.815 14 10.5 14C10.185 14 9.87875 13.9737 9.58125 13.9212C7.84 13.6675 6.34375 12.6788 5.39875 11.2788C4.75125 10.3075 4.375 9.14375 4.375 7.875C4.375 4.48875 7.11375 1.75 10.5 1.75C13.8862 1.75 16.625 4.48875 16.625 7.875Z" stroke="#FF4D1E" stroke-width="1.2" stroke-linecap="round" stroke-linejoin="round"/>
<path d="M18.5942 16.1613L17.1505 16.5026C16.8267 16.5813 16.573 16.8263 16.503 17.1501L16.1967 18.4363C16.0305 19.1363 15.138 19.3463 14.6742 18.7951L10.5005 14.0001L6.32669 18.8038C5.86294 19.3551 4.97044 19.1451 4.80419 18.4451L4.49793 17.1588C4.41918 16.8351 4.16544 16.5813 3.85044 16.5113L2.40669 16.1701C1.74169 16.0126 1.50544 15.1813 1.98669 14.7001L5.39919 11.2876C6.34419 12.6876 7.84044 13.6763 9.58172 13.9301C9.87922 13.9826 10.1855 14.0088 10.5005 14.0088C10.8155 14.0088 11.1217 13.9826 11.4192 13.9301C13.1605 13.6763 14.6567 12.6876 15.6017 11.2876L19.0142 14.7001C19.4955 15.1726 19.2592 16.0038 18.5942 16.1613Z" stroke="#FF4D1E" stroke-width="1.2" stroke-linecap="round" stroke-linejoin="round"/>
<path d="M11.0073 5.2325L11.5235 6.26499C11.5935 6.40499 11.7773 6.545 11.9435 6.57125L12.8798 6.72874C13.4748 6.82499 13.6148 7.2625 13.186 7.69125L12.4598 8.41748C12.3373 8.53998 12.2673 8.77625 12.311 8.95125L12.521 9.8525C12.6873 10.5613 12.311 10.8413 11.681 10.465L10.806 9.94875C10.6485 9.8525 10.386 9.8525 10.2285 9.94875L9.35351 10.465C8.72348 10.8325 8.34723 10.5613 8.51348 9.8525L8.72348 8.95125C8.75851 8.785 8.69723 8.53998 8.57473 8.41748L7.84848 7.69125C7.41973 7.2625 7.55973 6.83374 8.15473 6.72874L9.09101 6.57125C9.24851 6.545 9.43226 6.40499 9.50226 6.26499L10.0185 5.2325C10.2723 4.6725 10.7273 4.6725 11.0073 5.2325Z" stroke="#FF4D1E" stroke-width="1.2" stroke-linecap="round" stroke-linejoin="round"/>
</svg>
